<svg width="48" height="70" viewBox="0 0 48 70" fill="none" xmlns="http://www.w3.org/2000/svg">
<g clip-path="url(#clip0_1130_187)">
<path d="M23.7166 35C23.7166 31.9058 24.9457 28.9384 27.1336 26.7504C29.3216 24.5625 32.289 23.3333 35.3832 23.3333C38.4774 23.3333 41.4449 24.5625 43.6328 26.7504C45.8207 28.9384 47.0499 31.9058 47.0499 35C47.0499 38.0942 45.8207 41.0617 43.6328 43.2496C41.4449 45.4375 38.4774 46.6667 35.3832 46.6667C32.289 46.6667 29.3216 45.4375 27.1336 43.2496C24.9457 41.0617 23.7166 38.0942 23.7166 35Z" fill="#1ABCFE"/>
<path d="M0.383301 58.3333C0.383301 55.2391 1.61246 52.2717 3.80039 50.0837C5.98831 47.8958 8.95577 46.6667 12.05 46.6667H23.7166V58.3333C23.7166 61.4275 22.4875 64.395 20.2995 66.5829C18.1116 68.7708 15.1442 70 12.05 70C8.95577 70 5.98831 68.7708 3.80039 66.5829C1.61246 64.395 0.383301 61.4275 0.383301 58.3333H0.383301Z" fill="#0ACF83"/>
<path d="M23.7166 0V23.3333H35.3832C38.4774 23.3333 41.4449 22.1042 43.6328 19.9162C45.8207 17.7283 47.0499 14.7609 47.0499 11.6667C47.0499 8.57247 45.8207 5.60501 43.6328 3.41709C41.4449 1.22916 38.4774 0 35.3832 0L23.7166 0Z" fill="#FF7262"/>
<path d="M0.383301 11.6667C0.383301 14.7609 1.61246 17.7283 3.80039 19.9162C5.98831 22.1042 8.95577 23.3333 12.05 23.3333H23.7166V0H12.05C8.95577 0 5.98831 1.22916 3.80039 3.41709C1.61246 5.60501 0.383301 8.57247 0.383301 11.6667H0.383301Z" fill="#F24E1E"/>
<path d="M0.383301 35C0.383301 38.0942 1.61246 41.0617 3.80039 43.2496C5.98831 45.4375 8.95577 46.6667 12.05 46.6667H23.7166V23.3333H12.05C8.95577 23.3333 5.98831 24.5625 3.80039 26.7504C1.61246 28.9384 0.383301 31.9058 0.383301 35H0.383301Z" fill="#A259FF"/>
</g>
<defs>
<clipPath id="clip0_1130_187">
<rect width="46.6667" height="70" fill="white" transform="translate(0.383301)"/>
</clipPath>
</defs>
</svg>
