<svg width="71" height="70" viewBox="0 0 71 70" fill="none" xmlns="http://www.w3.org/2000/svg">
<path d="M32.7807 0.0188373C32.6302 0.0325205 32.1512 0.0804118 31.7202 0.11462C21.7794 1.01087 12.4679 6.3747 6.57045 14.6188C3.28648 19.2027 1.1861 24.4023 0.392473 29.9098C0.111967 31.8323 0.0777588 32.4002 0.0777588 35.0069C0.0777588 37.6135 0.111967 38.1814 0.392473 40.1039C2.29444 53.2466 11.6469 64.289 24.3313 68.3802C26.6027 69.1123 28.9973 69.6117 31.7202 69.9128C32.7807 70.0291 37.3646 70.0291 38.425 69.9128C43.1252 69.3928 47.107 68.2297 51.0341 66.2251C51.6362 65.9173 51.7525 65.8352 51.6704 65.7667C51.6156 65.7257 49.05 62.2844 45.9713 58.1247L40.3749 50.5647L33.3622 40.186C29.5035 34.48 26.329 29.8141 26.3017 29.8141C26.2743 29.8072 26.2469 34.4185 26.2332 40.0491C26.2127 49.9079 26.2059 50.3047 26.0827 50.5373C25.9049 50.8726 25.768 51.0094 25.4807 51.1599C25.2617 51.2694 25.0702 51.2899 24.0371 51.2899H22.8535L22.5388 51.0915C22.3335 50.9615 22.183 50.7905 22.0804 50.592L21.9367 50.2842L21.9504 36.5667L21.9709 22.8425L22.183 22.5756C22.2925 22.432 22.5251 22.2472 22.6893 22.1583C22.9698 22.0215 23.0793 22.0078 24.2629 22.0078C25.6586 22.0078 25.8912 22.0625 26.2538 22.4593C26.3564 22.5688 30.1535 28.2884 34.6963 35.1779C39.2392 42.0674 45.4513 51.4746 48.5027 56.0927L54.0444 64.4874L54.3249 64.3026C56.8084 62.688 59.4356 60.3892 61.5155 57.9947C65.942 52.9114 68.7949 46.7129 69.7528 40.1039C70.0333 38.1814 70.0675 37.6135 70.0675 35.0069C70.0675 32.4002 70.0333 31.8323 69.7528 29.9098C67.8508 16.7671 58.4983 5.72474 45.8139 1.63346C43.5767 0.908247 41.1959 0.408809 38.5276 0.107778C37.8708 0.0393621 33.3485 -0.0358957 32.7807 0.0188373ZM47.107 21.1868C47.4354 21.351 47.7022 21.6657 47.798 21.9941C47.8527 22.172 47.8664 25.9759 47.8527 34.5485L47.8322 46.8497L45.6634 43.5247L43.4878 40.1996V31.2576C43.4878 25.4765 43.5152 22.2267 43.5562 22.0694C43.6657 21.6862 43.9051 21.3852 44.2335 21.2073C44.514 21.0636 44.6167 21.05 45.6908 21.05C46.7034 21.05 46.8812 21.0636 47.107 21.1868Z" fill="black"/>
</svg>
