<svg width="115" height="70" viewBox="0 0 115 70" fill="none" xmlns="http://www.w3.org/2000/svg">
<path d="M56.6049 70C56.2175 70 55.8557 69.8967 55.5197 69.7158L52.0831 67.6746C51.5662 67.3902 51.8247 67.2869 51.9798 67.2353C52.6774 67.0028 52.8066 66.9509 53.5301 66.5377C53.6077 66.4859 53.7112 66.5118 53.7885 66.5634L56.4243 68.1396C56.5276 68.1913 56.6568 68.1913 56.7341 68.1396L67.0443 62.1706C67.1476 62.119 67.1995 62.0155 67.1995 61.8865V49.9744C67.1995 49.845 67.1476 49.7419 67.0443 49.69L56.7341 43.747C56.6308 43.6951 56.5016 43.6951 56.4243 43.747L46.1141 49.69C46.0108 49.7417 45.9589 49.8709 45.9589 49.9742V61.8863C45.9589 61.9898 46.0108 62.1188 46.1141 62.1706L48.9307 63.7985C50.4553 64.5736 51.4113 63.6693 51.4113 62.7649V51.0078C51.4113 50.8528 51.5405 50.6977 51.7214 50.6977H53.0391C53.1943 50.6977 53.3492 50.8269 53.3492 51.0078V62.7649C53.3492 64.8061 52.238 65.9949 50.3001 65.9949C49.7058 65.9949 49.2408 65.9949 47.9228 65.3488L45.2097 63.7985C44.5379 63.411 44.1245 62.6873 44.1245 61.9122V50.0001C44.1245 49.225 44.5379 48.5013 45.2097 48.1138L55.5197 42.1448C56.1658 41.7831 57.0445 41.7831 57.6904 42.1448L68.0003 48.1138C68.6721 48.5013 69.0857 49.225 69.0857 50.0001V61.9122C69.0857 62.6873 68.6721 63.411 68.0003 63.7985L57.6904 69.7675C57.3543 69.9226 56.9667 70 56.6049 70ZM59.7832 61.8089C55.2614 61.8089 54.3312 59.7417 54.3312 57.9846C54.3312 57.8295 54.4604 57.6745 54.6412 57.6745H55.9849C56.1399 57.6745 56.2691 57.7778 56.2691 57.933C56.4759 59.3024 57.0702 59.9742 59.8092 59.9742C61.9796 59.9742 62.9102 59.4833 62.9102 58.3205C62.9102 57.6486 62.6515 57.1579 59.2666 56.8218C56.45 56.5374 54.6929 55.9175 54.6929 53.6694C54.6929 51.5763 56.4502 50.3359 59.3958 50.3359C62.7031 50.3359 64.3312 51.473 64.538 53.9534C64.538 54.0312 64.5121 54.1085 64.4604 54.1861C64.4086 54.2378 64.3312 54.2894 64.2536 54.2894H62.9099C62.7807 54.2894 62.6515 54.1861 62.6258 54.0569C62.3157 52.6358 61.5146 52.1706 59.3958 52.1706C57.0185 52.1706 56.7341 52.9976 56.7341 53.6176C56.7341 54.367 57.0702 54.5995 60.2742 55.0129C63.4526 55.4265 64.9514 56.0208 64.9514 58.2429C64.9255 60.5169 63.0651 61.8089 59.7832 61.8089Z" fill="#539E43"/>
<path d="M24.6154 23.411C24.6154 22.946 24.3569 22.5064 23.9435 22.2739L12.9874 15.9691C12.8064 15.8656 12.5998 15.814 12.3932 15.788H12.2897C12.0831 15.788 11.8763 15.8656 11.6954 15.9691L0.739347 22.2739C0.325734 22.5064 0.0675049 22.9458 0.0675049 23.411L0.0934396 40.3618C0.0934396 40.5943 0.222666 40.8268 0.429249 40.9304C0.636056 41.0596 0.894285 41.0596 1.07538 40.9304L7.587 37.2094C8.00039 36.9769 8.25884 36.5376 8.25884 36.0725V28.1396C8.25884 27.6746 8.51707 27.2353 8.93068 27.0028L11.6954 25.4006C11.9022 25.2714 12.1347 25.2195 12.3673 25.2195C12.5998 25.2195 12.8323 25.2714 13.0134 25.4006L15.7781 27.0028C16.1917 27.2353 16.45 27.6744 16.45 28.1396V36.0725C16.45 36.5376 16.7084 36.9769 17.1218 37.2094L23.6334 40.9304C23.8402 41.0596 24.0984 41.0596 24.3053 40.9304C24.5121 40.8268 24.6413 40.5943 24.6413 40.3618L24.6154 23.411ZM77.2769 0.0776364C77.0703 -0.0258788 76.8118 -0.0258788 76.6307 0.0776364C76.4241 0.206863 76.2949 0.413446 76.2949 0.645964V17.442C76.2949 17.597 76.2176 17.7519 76.0624 17.8554C75.9075 17.9328 75.7523 17.9328 75.5974 17.8554L72.8583 16.2792C72.6575 16.1649 72.4304 16.1048 72.1994 16.1048C71.9683 16.1048 71.7412 16.1649 71.5404 16.2792L60.5843 22.61C60.1709 22.8425 59.9125 23.2818 59.9125 23.7468V36.3824C59.9125 36.8474 60.1709 37.287 60.5843 37.5195L71.5404 43.8502C71.7412 43.9646 71.9683 44.0247 72.1994 44.0247C72.4304 44.0247 72.6575 43.9646 72.8583 43.8502L83.8144 37.5195C84.2278 37.287 84.4862 36.8476 84.4862 36.3824V4.88383C84.4862 4.39285 84.2278 3.95375 83.8144 3.72101L77.2769 0.0776364ZM76.2692 32.2223C76.2692 32.3516 76.2176 32.4549 76.114 32.5065L72.3674 34.677C72.315 34.7025 72.2576 34.7158 72.1994 34.7158C72.1411 34.7158 72.0837 34.7025 72.0313 34.677L68.2847 32.5065C68.1812 32.4549 68.1295 32.3256 68.1295 32.2223V27.8812C68.1295 27.752 68.1812 27.6487 68.2847 27.597L72.0313 25.4263C72.0837 25.4008 72.1411 25.3875 72.1994 25.3875C72.2576 25.3875 72.315 25.4008 72.3674 25.4263L76.114 27.597C76.2176 27.6484 76.2692 27.7779 76.2692 27.8812V32.2223ZM113.737 27.7779C114.15 27.5454 114.383 27.106 114.383 26.6408V23.566C114.383 23.1009 114.124 22.6616 113.737 22.4291L102.858 16.1243C102.658 16.01 102.43 15.9499 102.199 15.9499C101.968 15.9499 101.741 16.01 101.541 16.1243L90.5845 22.4548C90.1709 22.6873 89.9126 23.1266 89.9126 23.5919V36.2275C89.9126 36.6925 90.1709 37.1318 90.5845 37.3643L101.463 43.5659C101.877 43.7984 102.367 43.7984 102.755 43.5659L109.344 39.897C109.551 39.7935 109.68 39.561 109.68 39.3284C109.68 39.0959 109.551 38.8634 109.344 38.7599L98.3363 32.4291C98.1297 32.3001 98.0005 32.0933 98.0005 31.8608V27.9073C98.0005 27.6748 98.1297 27.4423 98.3363 27.3388L101.773 25.3749C101.874 25.3116 101.99 25.278 102.109 25.278C102.228 25.278 102.344 25.3116 102.445 25.3749L105.881 27.3388C106.088 27.468 106.217 27.6746 106.217 27.9073V31.0081C106.217 31.2406 106.347 31.4731 106.553 31.5764C106.76 31.7057 107.018 31.7057 107.225 31.5764L113.737 27.7779Z" fill="#333333"/>
<path d="M102.032 27.1836C102.07 27.1584 102.115 27.1449 102.161 27.1449C102.207 27.1449 102.251 27.1584 102.29 27.1836L104.383 28.3981C104.46 28.4495 104.512 28.5271 104.512 28.6306V31.0595C104.512 31.1628 104.46 31.2404 104.383 31.292L102.29 32.5065C102.251 32.5317 102.207 32.5452 102.161 32.5452C102.115 32.5452 102.07 32.5317 102.032 32.5065L99.9384 31.292C99.8609 31.2404 99.8092 31.1628 99.8092 31.0595V28.6306C99.8092 28.5271 99.8609 28.4495 99.9384 28.3981L102.032 27.1836Z" fill="#539E43"/>
<path d="M42.9356 16.1759C42.7348 16.0616 42.5078 16.0015 42.2767 16.0015C42.0457 16.0015 41.8187 16.0616 41.6179 16.1759L30.7394 22.4546C30.3258 22.6871 30.0933 23.1264 30.0933 23.5915V36.1756C30.0933 36.6406 30.3517 37.0799 30.7394 37.3125L41.6179 43.5916C41.8187 43.7059 42.0457 43.766 42.2767 43.766C42.5078 43.766 42.7348 43.7059 42.9356 43.5916L53.8143 37.3125C54.2277 37.0799 54.4605 36.6406 54.4605 36.1756V23.5917C54.4605 23.1266 54.2018 22.6873 53.8143 22.4548L42.9356 16.1759Z" fill="url(#paint0_linear_1612_404)"/>
<mask id="mask0_1612_404" style="mask-type:luminance" maskUnits="userSpaceOnUse" x="30" y="16" width="25" height="28">
<path d="M42.9356 16.1759C42.7348 16.0616 42.5078 16.0015 42.2767 16.0015C42.0457 16.0015 41.8187 16.0616 41.6179 16.1759L30.7394 22.4546C30.3258 22.6871 30.0933 23.1264 30.0933 23.5915V36.1756C30.0933 36.6406 30.3517 37.0799 30.7394 37.3125L41.6179 43.5916C41.8187 43.7059 42.0457 43.766 42.2767 43.766C42.5078 43.766 42.7348 43.7059 42.9356 43.5916L53.8143 37.3125C54.2277 37.0799 54.4605 36.6406 54.4605 36.1756V23.5917C54.4605 23.1266 54.2018 22.6873 53.8143 22.4548L42.9356 16.1759Z" fill="white"/>
</mask>
<g mask="url(#mask0_1612_404)">
<path d="M53.8399 22.4548L42.9098 16.1759C42.8024 16.1217 42.6898 16.0784 42.5738 16.0467L30.3257 37.0287C30.4271 37.1526 30.5497 37.2576 30.6877 37.3388L41.6178 43.6179C41.9279 43.7988 42.2896 43.8505 42.6254 43.7469L54.1243 22.7135C54.0468 22.6102 53.9432 22.5322 53.8399 22.4548Z" fill="url(#paint1_linear_1612_404)"/>
</g>
<mask id="mask1_1612_404" style="mask-type:luminance" maskUnits="userSpaceOnUse" x="30" y="16" width="25" height="28">
<path d="M42.9356 16.1759C42.7348 16.0616 42.5078 16.0015 42.2767 16.0015C42.0457 16.0015 41.8187 16.0616 41.6179 16.1759L30.7394 22.4546C30.3258 22.6871 30.0933 23.1264 30.0933 23.5915V36.1756C30.0933 36.6406 30.3517 37.0799 30.7394 37.3125L41.6179 43.5916C41.8187 43.7059 42.0457 43.766 42.2767 43.766C42.5078 43.766 42.7348 43.7059 42.9356 43.5916L53.8143 37.3125C54.2277 37.0799 54.4605 36.6406 54.4605 36.1756V23.5917C54.4605 23.1266 54.2018 22.6873 53.8143 22.4548L42.9356 16.1759Z" fill="white"/>
</mask>
<g mask="url(#mask1_1612_404)">
<path fill-rule="evenodd" clip-rule="evenodd" d="M53.8659 37.3127C54.176 37.1318 54.4086 36.8217 54.5121 36.4859L42.522 16.0208C42.2119 15.9691 41.8758 15.9948 41.5919 16.1757L30.7391 22.4291L42.4444 43.7727C42.6146 43.7448 42.78 43.6926 42.9354 43.6177L53.8657 37.3129L53.8659 37.3127Z" fill="url(#paint2_linear_1612_404)"/>
<path fill-rule="evenodd" clip-rule="evenodd" d="M53.866 37.3127L42.9616 43.5918C42.8076 43.6703 42.6417 43.7226 42.4706 43.7467L42.6774 44.1344L54.7703 37.132V36.9769L54.4602 36.46C54.4086 36.8217 54.1761 37.1318 53.866 37.3127Z" fill="url(#paint3_linear_1612_404)"/>
<path fill-rule="evenodd" clip-rule="evenodd" d="M53.866 37.3127L42.9616 43.5918C42.8076 43.6703 42.6417 43.7226 42.4706 43.7467L42.6774 44.1344L54.7703 37.132V36.9769L54.4602 36.46C54.4086 36.8217 54.1761 37.1318 53.866 37.3127Z" fill="url(#paint4_linear_1612_404)"/>
</g>
<defs>
<linearGradient id="paint0_linear_1612_404" x1="1691.64" y1="501.518" x2="499.257" y2="2375.11" gradientUnits="userSpaceOnUse">
<stop stop-color="#41873F"/>
<stop offset="0.3288" stop-color="#418B3D"/>
<stop offset="0.6352" stop-color="#419637"/>
<stop offset="0.9319" stop-color="#3FA92D"/>
<stop offset="1" stop-color="#3FAE2A"/>
</linearGradient>
<linearGradient id="paint1_linear_1612_404" x1="1060.26" y1="1547.15" x2="4046.54" y2="-75.3012" gradientUnits="userSpaceOnUse">
<stop offset="0.1376" stop-color="#41873F"/>
<stop offset="0.4032" stop-color="#54A044"/>
<stop offset="0.7136" stop-color="#66B848"/>
<stop offset="0.9081" stop-color="#6CC04A"/>
</linearGradient>
<linearGradient id="paint2_linear_1612_404" x1="-73.6003" y1="1404.68" x2="2443.67" y2="1404.68" gradientUnits="userSpaceOnUse">
<stop offset="0.09192" stop-color="#6CC04A"/>
<stop offset="0.2864" stop-color="#66B848"/>
<stop offset="0.5968" stop-color="#54A044"/>
<stop offset="0.8624" stop-color="#41873F"/>
</linearGradient>
<linearGradient id="paint3_linear_1612_404" x1="-1234.99" y1="422.292" x2="1282.25" y2="422.292" gradientUnits="userSpaceOnUse">
<stop offset="0.09192" stop-color="#6CC04A"/>
<stop offset="0.2864" stop-color="#66B848"/>
<stop offset="0.5968" stop-color="#54A044"/>
<stop offset="0.8624" stop-color="#41873F"/>
</linearGradient>
<linearGradient id="paint4_linear_1612_404" x1="1648.98" y1="-1583.37" x2="1011.26" y2="1758.24" gradientUnits="userSpaceOnUse">
<stop stop-color="#41873F"/>
<stop offset="0.3288" stop-color="#418B3D"/>
<stop offset="0.6352" stop-color="#419637"/>
<stop offset="0.9319" stop-color="#3FA92D"/>
<stop offset="1" stop-color="#3FAE2A"/>
</linearGradient>
</defs>
</svg>
