<svg width="63" height="70" viewBox="0 0 63 70" fill="none" xmlns="http://www.w3.org/2000/svg">
<path d="M54.9047 13.4842C54.8483 13.1457 54.5663 12.9201 54.2843 12.9201C54.0023 12.9201 49.0388 12.8073 49.0388 12.8073C49.0388 12.8073 44.865 8.74631 44.4702 8.35149C44.0753 7.95667 43.2293 8.06947 42.9473 8.18228C42.9473 8.18228 42.1576 8.40789 40.8604 8.80271C40.6347 8.06947 40.2963 7.22343 39.8451 6.32098C38.3786 3.50083 36.1789 1.97795 33.5844 1.97795C33.4152 1.97795 33.2459 1.97795 33.0203 2.03435C32.9639 1.92154 32.8511 1.86514 32.7947 1.75233C31.6667 0.511468 30.2002 -0.0525627 28.4517 0.00384038C25.0675 0.116646 21.6833 2.54198 18.976 6.88501C17.0583 9.93077 15.5918 13.7662 15.1406 16.7555C11.2488 17.94 8.54142 18.7861 8.48502 18.8425C6.51091 19.4629 6.45451 19.5193 6.22889 21.3806C6.05968 22.7907 0.870605 62.5548 0.870605 62.5548L43.9625 70L62.6319 65.3749C62.5755 65.3186 54.9611 13.8226 54.9047 13.4842ZM38.717 9.47955C37.7018 9.76156 36.5737 10.1564 35.3893 10.4948C35.3893 8.80271 35.1637 6.37738 34.374 4.34687C36.9121 4.8545 38.153 7.73106 38.717 9.47955ZM33.0767 11.228C30.8206 11.9049 28.3389 12.6945 25.8572 13.4278C26.534 10.7768 27.8877 8.12588 29.4669 6.37738C30.0874 5.75695 30.9334 5.02371 31.8923 4.57249C32.9075 6.54659 33.1331 9.31034 33.0767 11.228ZM28.5081 2.25996C29.2977 2.25996 29.9746 2.42917 30.5386 2.76759C29.6362 3.27522 28.7337 3.95205 27.8877 4.8545C25.7443 7.16703 24.1087 10.7768 23.4318 14.2174C21.4013 14.8378 19.3708 15.4583 17.5095 16.0223C18.694 10.6076 23.2626 2.42917 28.5081 2.25996Z" fill="#95BF47"/>
<path d="M54.2844 12.9201C54.0024 12.9201 49.0389 12.8073 49.0389 12.8073C49.0389 12.8073 44.8651 8.74631 44.4703 8.35149C44.3011 8.18228 44.1319 8.12588 43.9062 8.06947V69.9436L62.5757 65.3186C62.5757 65.3186 54.9612 13.8226 54.9048 13.4278C54.8484 13.1457 54.5664 12.9201 54.2844 12.9201Z" fill="#5E8E3E"/>
<path d="M33.5279 22.5087L31.3845 30.6307C31.3845 30.6307 28.9592 29.5026 26.0827 29.7282C21.8524 30.0103 21.8524 32.6612 21.8524 33.338C22.078 36.9478 31.6102 37.7375 32.1742 46.2543C32.569 52.9663 28.6208 57.5349 22.9241 57.8734C16.0429 58.3246 12.2639 54.2636 12.2639 54.2636L13.7304 48.0592C13.7304 48.0592 17.5094 50.9358 20.5552 50.7102C22.5293 50.5974 23.2625 48.9617 23.2061 47.8336C22.9241 43.0958 15.1405 43.3778 14.6328 35.5942C14.238 29.0514 18.5247 22.3959 28.0004 21.8318C31.6666 21.5498 33.5279 22.5087 33.5279 22.5087Z" fill="white"/>
</svg>
