<svg width="77" height="60" viewBox="0 0 77 60" fill="none" xmlns="http://www.w3.org/2000/svg">
<path d="M28.0576 42.8693C26.6357 44.2912 26.6357 46.5958 28.0576 48.0178C29.4795 49.4397 31.7841 49.4397 33.2061 48.0178L56.3668 24.8571C59.2092 22.0147 63.8183 22.0147 66.6607 24.8571C69.5031 27.6995 69.5031 32.3086 66.6607 35.151L43.9465 57.8638C46.786 60.7062 51.3922 60.7091 54.2346 57.8697L54.2405 57.8638L71.8121 40.2936C77.4984 34.6073 77.4984 25.3905 71.8121 19.7057C66.1258 14.0194 56.9075 14.0194 51.2242 19.7057L28.0576 42.8693ZM64.0894 27.4269C62.6675 26.0049 60.3629 26.0049 58.9425 27.4269L35.7788 50.5876C32.9394 53.43 28.3332 53.4329 25.4907 50.5949L25.4834 50.5876C24.0629 49.1671 21.7598 49.1656 20.3379 50.5861L20.3364 50.5876C18.9145 52.008 18.913 54.3126 20.3335 55.7345L20.3364 55.7375C26.0212 61.4208 35.2395 61.4208 40.9243 55.7375L64.088 32.5739C65.5099 31.1519 65.5099 28.8473 64.0894 27.4269ZM25.4849 40.2951L48.6455 17.1344C50.066 15.7124 50.066 13.4079 48.6455 11.9859C47.2251 10.5655 44.922 10.5655 43.5015 11.9859L20.3364 35.1466C17.4955 37.989 12.8863 37.9905 10.0439 35.1481L10.0424 35.1466C7.20002 32.3057 7.19708 27.6995 10.038 24.8556L10.0424 24.8512L32.7596 2.13402C29.9187 -0.708392 25.311 -0.709865 22.4671 2.13107L22.4642 2.13402L4.89545 19.7057C-0.789368 25.392 -0.789368 34.6088 4.89545 40.2936C10.5832 45.9799 19.7971 45.9799 25.4849 40.2951ZM12.6167 32.5739C14.0371 33.9943 16.3402 33.9943 17.7607 32.5739L40.9258 9.4117C43.7667 6.56929 48.3744 6.56782 51.2168 9.40875L51.2198 9.4117C52.6417 10.8336 54.9463 10.8336 56.3668 9.4117C57.7887 7.98976 57.7887 5.68518 56.3668 4.26472C50.6805 -1.42157 41.4651 -1.42157 35.7788 4.26472L12.6167 27.4269C11.1947 28.8473 11.1947 31.1519 12.6152 32.5739H12.6167Z" fill="black"/>
</svg>
