<svg width="114" height="90" viewBox="0 0 114 90" fill="none" xmlns="http://www.w3.org/2000/svg">
<path id="Vector" d="M41.2812 64.3039C39.1483 66.4369 39.1483 69.8937 41.2812 72.0266C43.4141 74.1595 46.871 74.1595 49.0039 72.0266L83.7449 37.2856C88.0086 33.022 94.9223 33.022 99.1859 37.2856C103.45 41.5492 103.45 48.4629 99.1859 52.7265L65.1146 86.7957C69.3738 91.0593 76.2831 91.0637 80.5467 86.8045L80.5555 86.7957L106.913 60.4404C115.442 51.911 115.442 38.0857 106.913 29.5585C98.3836 21.0291 84.5561 21.0291 76.0311 29.5585L41.2812 64.3039ZM95.329 41.1403C93.1961 39.0074 89.7392 39.0074 87.6085 41.1403L52.8631 75.8813C48.6039 80.145 41.6946 80.1494 37.4309 75.8924L37.4199 75.8813C35.2892 73.7506 31.8345 73.7484 29.7016 75.8791L29.6994 75.8813C27.5665 78.012 27.5643 81.4689 29.695 83.6018L29.6994 83.6062C38.2266 92.1313 52.0541 92.1313 60.5813 83.6062L95.3268 48.8608C97.4597 46.7279 97.4597 43.271 95.329 41.1403ZM37.4221 60.4426L72.1631 25.7016C74.2938 23.5687 74.2938 20.1118 72.1631 17.9789C70.0324 15.8482 66.5778 15.8482 64.4471 17.9789L29.6994 52.7199C25.438 56.9835 18.5243 56.9857 14.2607 52.7221L14.2585 52.7199C9.99486 48.4585 9.99044 41.5492 14.2518 37.2834L14.2585 37.2768L48.3342 3.20102C44.0728 -1.06259 37.1613 -1.0648 32.8955 3.1966L32.8911 3.20102L6.538 29.5585C-1.98923 38.0879 -1.98923 51.9132 6.538 60.4404C15.0696 68.9698 28.8905 68.9698 37.4221 60.4426ZM18.1198 48.8608C20.2505 50.9915 23.7052 50.9915 25.8359 48.8608L60.5835 14.1175C64.8449 9.85394 71.7564 9.85173 76.0201 14.1131L76.0245 14.1175C78.1574 16.2505 81.6143 16.2505 83.7449 14.1175C85.8779 11.9846 85.8779 8.52778 83.7449 6.39708C75.2155 -2.13236 61.3925 -2.13236 52.8631 6.39708L18.1198 41.1403C15.9869 43.271 15.9869 46.7279 18.1176 48.8608H18.1198Z" fill="black"/>
</svg>
