<svg width="97" height="60" viewBox="0 0 97 60" fill="none" xmlns="http://www.w3.org/2000/svg">
<path d="M0.716553 12.8974V25.7949H12.1166L23.5114 25.8L22.8704 26.4256C19.2089 29.9949 13.9422 32.7077 7.58835 34.3026C5.29091 34.882 3.4704 35.2 0.988348 35.4667L0.716553 35.4923V47.7487V60H1.03963C1.47553 60 3.82937 59.7333 5.56271 59.4872C16.055 57.9897 25.1217 54.8923 33.0499 50.1026C39.1525 46.4154 44.855 41.359 49.1832 35.8051L49.6653 35.1846L49.9114 35.1795C50.0448 35.1795 50.1525 35.1897 50.1525 35.2C50.1525 35.2103 47.2909 40.7641 43.7935 47.5333C40.2909 54.3077 37.4191 59.8821 37.3986 59.9231C37.3781 59.9897 39.1166 60 51.8191 59.9897L66.2601 59.9744L81.5678 30.0564C89.9832 13.6 96.8704 0.107689 96.8704 0.0666656C96.8704 0.0102539 94.4755 0 82.6448 0H68.4243L62.9678 10.5128L57.5166 21.0256H57.2448H56.973V10.5128V0H47.2396H37.5012L32.2448 10.5744L26.9935 21.1538L26.7268 21.1692L26.4601 21.1846V10.5949V0H13.5883H0.716553V12.8974Z" fill="#016BF0"/>
</svg>
