<svg width="181" height="70" viewBox="0 0 181 70" fill="none" xmlns="http://www.w3.org/2000/svg">
<g id="Wix.com_website_logo 1" clip-path="url(#clip0_1130_193)">
<path id="Vector" d="M103.534 1.33058C100.063 3.06612 98.5586 6.30579 98.5586 15.0992C98.5586 15.0992 100.294 13.3636 103.071 12.3223C105.096 11.5702 106.542 10.5868 107.583 9.83471C110.592 7.57851 111.054 4.8595 111.054 0.115703C110.997 0.115703 106.253 -0.173553 103.534 1.33058Z" fill="#FBBD71"/>
<path id="Vector_2" d="M82.3024 3.35537C79.2941 5.84297 78.5421 10.124 78.5421 10.124L68.823 47.3802L60.8396 16.8926C60.0875 13.6529 58.5834 9.66115 56.3272 6.88429C53.5503 3.35537 47.7652 3.12396 47.071 3.12396C46.5503 3.12396 40.8231 3.35537 37.8148 6.88429C35.5586 9.66115 34.0545 13.6529 33.3024 16.8926L25.7817 47.3802L16.0627 10.124C16.0627 10.124 15.3107 6.13223 12.3024 3.35537C7.55859 -0.925623 0.558594 0.115699 0.558594 0.115699L19.071 69.8264C19.071 69.8264 25.0875 70.3471 28.0958 68.843C32.0875 66.8182 34.1123 65.3719 36.3685 55.8264C38.6247 47.3223 44.6412 22.562 45.104 20.8264C45.3354 20.0744 45.8561 17.8182 47.3602 17.8182C48.8644 17.8182 49.385 19.843 49.6164 20.8264C50.1371 22.562 56.0958 47.3223 58.352 55.8264C60.8396 65.314 62.5751 66.8182 66.6247 68.843C69.633 70.3471 75.6495 69.8264 75.6495 69.8264L94.0462 0.115699C94.0462 0.115699 87.0462 -0.867772 82.3024 3.35537Z" fill="black"/>
<path id="Vector_3" d="M110.997 11.3388C110.997 11.3388 109.724 13.0744 107.236 14.5785C105.501 15.562 103.997 16.0826 102.261 17.0661C99.2528 18.5702 98.5007 20.0744 98.5007 22.3306V23.0826V26.843V27.595V69.595C98.5007 69.595 103.245 70.1157 106.253 68.6116C110.245 66.5868 110.997 64.6198 110.997 56.1157V14.1157V11.3388Z" fill="black"/>
<path id="Vector_4" d="M156.988 35.1157L180.476 0.347107C180.476 0.347107 170.757 -1.38843 165.724 3.12397C162.484 5.90083 159.245 11.1074 159.245 11.1074L150.74 23.6033C150.22 24.3554 149.757 24.876 149.005 24.876C148.253 24.876 147.501 24.124 147.269 23.6033L138.765 11.1074C138.765 11.1074 135.294 6.13223 132.286 3.12397C127.311 -1.38843 117.534 0.347107 117.534 0.347107L140.269 35.0578L117.013 69.7686C117.013 69.7686 127.253 71.0413 132.286 66.5289C135.526 63.7521 138.534 59.0083 138.534 59.0083L147.038 46.5124C147.559 45.7603 148.021 45.2397 148.774 45.2397C149.526 45.2397 150.278 45.9917 150.509 46.5124L159.013 59.0083C159.013 59.0083 162.253 63.7521 165.261 66.5289C170.236 71.0413 180.245 69.7686 180.245 69.7686L156.988 35.1157Z" fill="black"/>
</g>
<defs>
<clipPath id="clip0_1130_193">
<rect width="179.917" height="70" fill="white" transform="translate(0.558594)"/>
</clipPath>
</defs>
</svg>
