<svg width="71" height="70" viewBox="0 0 71 70" fill="none" xmlns="http://www.w3.org/2000/svg">
<path d="M35.0778 70C15.6815 70 -0.068496 54.5412 0.0777931 35C0.224082 15.4588 14.9528 0 35.0778 0C55.2042 0 70.0778 15.75 70.0778 35C70.0778 54.25 54.4741 70 35.0778 70ZM45.4315 64.6037L35.5153 37.9162L26.1815 65.1875C33.0366 66.7926 37.7028 67.2287 45.4315 64.6037ZM21.2241 63.1463L6.34908 22.4588C4.30651 26.8338 3.87037 30.4801 3.57779 35C3.72408 46.9574 10.4315 57.8949 21.2241 63.1463ZM66.4329 35C66.5778 27.2713 63.0792 21.1463 62.7866 20.2713C63.0792 26.2514 62.2028 29.3125 61.1829 32.6676L50.9741 61.9801C63.8079 54.25 66.2852 42.7287 66.5778 35H66.4329ZM34.0579 33.6875L29.0991 20.125L25.4528 19.8338C23.9954 18.8125 24.869 17.2088 25.8903 17.2088C32.4528 17.6463 36.0977 17.6463 42.6616 17.2088C44.2667 17.2088 44.7028 19.5426 42.8065 19.8338L39.3065 20.125L50.6801 53.6662L56.0751 35.2912C56.3676 27.2713 54.1788 26.3963 51.2626 20.5625C48.9288 16.0412 51.4088 11.6662 55.9301 11.5213C52.2825 8.02129 44.8464 3.64629 35.0751 3.5C25.3038 3.35371 14.9501 8.3125 8.82506 17.6463L19.6176 17.3551C20.9301 17.9389 20.3463 19.8338 19.6176 19.9801L15.8264 20.2713L27.2014 54.3963L34.0579 33.6875Z" fill="#21759B"/>
</svg>
