<svg width="359" height="71" viewBox="0 0 359 71" fill="none" xmlns="http://www.w3.org/2000/svg">
<path d="M45.4575 71H63L0 11.5725V28.0336C0 30.4237 1.00236 32.7151 2.78615 34.3964L38.841 68.4073C40.6015 70.0686 42.9783 71 45.4575 71ZM0 45.9678V67.0993C0 69.2534 1.83263 71 4.09434 71H26.537L0 45.9678ZM38.8654 34.0342C42.8004 37.7466 49.0774 37.9338 53.2555 34.4694C53.9787 33.8703 54.5322 33.3808 54.7811 33.1083C65.9292 20.8901 56.794 0 38.213 0H2.78383L38.8654 34.0342Z" fill="white"/>
<path d="M100.948 34.1102C103.101 34.1102 103.676 33.6155 103.676 32.0205C103.676 30.7001 102.355 30.1492 100.462 30.1492H91.8493V34.1102H100.948ZM87 25.8589H100.317C105.713 25.8589 108.641 28.2249 108.641 32.047C108.641 35.4306 106.89 38.0166 102.069 38.3755L110.018 45.1145H103.044L95.1515 38.3755H91.8493V45.1145H87V25.8589ZM116.936 25.8589H136.367V30.1492H121.786V33.3408H135.162V37.6326H121.786V40.8508H136.367V45.1145H116.936V25.8589ZM143.284 25.8589H146.327L161.021 37.7966V25.8589H165.845V45.1145H162.801L148.135 33.1754V45.1145H143.284V25.8589ZM184.987 41.1816C189.408 41.1816 192.193 38.6221 192.193 35.4867C192.193 32.3779 189.351 29.7653 184.987 29.7653C180.625 29.7653 177.784 32.3779 177.784 35.4867C177.784 38.6221 180.596 41.1816 184.987 41.1816ZM172.76 35.4867C172.76 34.7985 172.933 33.7263 173.133 33.038C174.283 28.6635 178.529 25.5 184.987 25.5C191.475 25.5 195.723 28.6635 196.871 33.038C197.071 33.7263 197.244 34.7985 197.244 35.4867C197.244 36.1188 197.071 37.1098 196.928 37.77C195.809 42.2538 191.618 45.4719 184.987 45.4719C178.386 45.4719 174.196 42.2538 173.076 37.77C172.933 37.1098 172.76 36.1188 172.76 35.4867ZM208.265 38.8968L208.667 39.2277C209.987 40.4387 213.116 41.2082 215.297 41.2082C216.502 41.2082 218.023 41.1535 219.287 40.8788C220.492 40.5761 221.267 40.0798 221.267 39.145C221.267 38.5128 220.692 38.182 219.258 37.962C217.766 37.7419 215.784 37.7419 213.775 37.6046C209.758 37.2752 205.309 36.3669 205.309 31.7723C205.309 27.3166 210.158 25.5281 215.498 25.5281C219.23 25.5281 223.706 27.2058 226.204 29.049L226.606 29.3798L222.501 32.1297L222.128 31.7458C220.808 30.5347 217.737 29.8199 215.498 29.8199C214.264 29.8199 212.972 29.8745 211.997 30.1773C211.078 30.4254 210.476 30.9202 210.476 31.8831C210.476 32.626 211.106 33.0115 212.513 33.2581C214.005 33.5328 215.986 33.5609 217.966 33.6982C221.956 34.001 226.434 34.8546 226.434 39.2557C226.434 44.125 220.751 45.5 215.297 45.5C211.595 45.5 207.089 43.8223 204.591 41.9791L204.16 41.7044L208.265 38.8968ZM233.522 25.8589H238.373V45.1145H233.522V25.8589ZM254.733 30.1492H245.29V25.8589H269.026V30.1492H259.584V45.1145H254.733V30.1492ZM275.944 25.8589H295.376V30.1492H280.795V33.3408H294.17V37.6326H280.795V40.8508H295.376V45.1145H275.944V25.8589ZM306.397 38.8968L306.799 39.2277C308.12 40.4387 311.248 41.2082 313.428 41.2082C314.635 41.2082 316.156 41.1535 317.419 40.8788C318.624 40.5761 319.399 40.0798 319.399 39.145C319.399 38.5128 318.825 38.182 317.39 37.962C315.897 37.7419 313.917 37.7419 311.907 37.6046C307.89 37.2752 303.44 36.3669 303.44 31.7723C303.44 27.3166 308.291 25.5281 313.63 25.5281C317.361 25.5281 321.839 27.2058 324.335 29.049L324.737 29.3798L320.634 32.1297L320.259 31.7458C318.94 30.5347 315.869 29.8199 313.63 29.8199C312.396 29.8199 311.105 29.8745 310.128 30.1773C309.209 30.4254 308.607 30.9202 308.607 31.8831C308.607 32.626 309.238 33.0115 310.645 33.2581C312.137 33.5328 314.119 33.5609 316.099 33.6982C320.088 34.001 324.565 34.8546 324.565 39.2557C324.565 44.125 318.883 45.5 313.428 45.5C309.727 45.5 305.22 43.8223 302.723 41.9791L302.292 41.7044L306.397 38.8968Z" fill="white"/>
</svg>
