<svg width="1030" height="633" viewBox="0 0 1030 633" fill="none" xmlns="http://www.w3.org/2000/svg">
<path d="M392.336 633H543.743L0 103.175V249.934C0 271.242 8.65125 291.672 24.0468 306.66L335.23 609.885C350.425 624.696 370.939 633 392.336 633ZM335.441 303.432C369.404 336.53 423.579 338.198 459.639 307.312C465.882 301.97 470.659 297.606 472.807 295.177C569.024 186.246 490.18 0 329.811 0H24.0268L335.441 303.432Z" fill="white" fill-opacity="0.03"/>
<path d="M637.216 633H485.809L1029.55 103.175V249.934C1029.55 271.242 1020.9 291.672 1005.51 306.66L694.322 609.885C679.127 624.696 658.613 633 637.216 633ZM694.111 303.432C660.149 336.53 605.973 338.198 569.913 307.312C563.67 301.97 558.893 297.606 556.745 295.177C460.528 186.246 539.373 0 699.742 0H1005.53L694.111 303.432Z" fill="white" fill-opacity="0.03"/>
</svg>
