<svg width="17" height="16" viewBox="0 0 17 16" fill="none" xmlns="http://www.w3.org/2000/svg">
<path id="Vector" d="M5.6529 0.769421C5.41228 0.188196 4.77794 -0.121165 4.17171 0.0444527L1.42183 0.79442C0.878108 0.944413 0.5 1.43814 0.5 2.00062C0.5 9.73153 6.76847 16 14.4994 16C15.0619 16 15.5556 15.6219 15.7056 15.0782L16.4555 12.3283C16.6212 11.7221 16.3118 11.0877 15.7306 10.8471L12.7307 9.59716C12.2214 9.38467 11.6308 9.53154 11.2839 9.95964L10.0215 11.5002C7.82155 10.4596 6.04038 8.67845 4.9998 6.47854L6.54036 5.21923C6.96846 4.86924 7.11533 4.28177 6.90284 3.77241L5.6529 0.772546V0.769421Z" fill="white"/>
</svg>
