<svg width="13" height="7" viewBox="0 0 13 7" fill="none" xmlns="http://www.w3.org/2000/svg">
<path id="Vector" d="M0.482109 0.130567C0.145542 0.269073 0 0.494145 0 0.875036C0 1.13474 0.281988 1.42906 3.0291 4.05202C4.68465 5.63618 6.14007 6.95199 6.25832 6.97796C6.36748 7.01258 6.5676 7.00393 6.71314 6.9693C6.98604 6.9087 12.6531 1.60219 12.8805 1.19533C13.0533 0.875036 13.0442 0.667277 12.8168 0.398922C12.5348 0.0613136 12.2438 -0.0252523 11.889 0.12191C11.7253 0.191163 10.47 1.31652 9.0964 2.63233C7.72284 3.94814 6.55851 5.02156 6.50393 5.02156C6.44935 5.02156 5.28501 3.94814 3.91145 2.63233C1.83747 0.649964 1.03699 -0.0252523 0.800483 0.000717163C0.78229 0.00937414 0.645844 0.0613136 0.482109 0.130567Z" fill="white"/>
</svg>
