<svg width="16" height="10" viewBox="0 0 16 10" fill="none" xmlns="http://www.w3.org/2000/svg">
<path id="Vector" d="M0.593365 0.667871C0.179129 0.845951 0 1.13533 0 1.62505C0 1.95895 0.347063 2.33736 3.72812 5.70974C5.76572 7.74652 7.55701 9.43827 7.70255 9.47166C7.8369 9.51618 8.0832 9.50505 8.26233 9.46053C8.5982 9.38262 15.573 2.55996 15.8529 2.03686C16.0656 1.62505 16.0544 1.35793 15.7746 1.0129C15.4275 0.578833 15.0692 0.467533 14.6326 0.656742C14.4311 0.745782 12.8861 2.19267 11.1956 3.88443C9.50504 5.57618 8.07201 6.95629 8.00483 6.95629C7.93766 6.95629 6.50463 5.57618 4.8141 3.88443C2.26151 1.33567 1.27629 0.467533 0.98521 0.500923C0.962819 0.512053 0.794886 0.578833 0.593365 0.667871Z" fill="black"/>
</svg>
