<svg width="58" height="56" viewBox="0 0 58 56" fill="none" xmlns="http://www.w3.org/2000/svg">
<path id="Vector" d="M25.4411 0.179295C17.1316 1.16428 9.6817 5.77962 4.98254 12.8715C-0.662193 21.3705 -1.00603 32.937 4.12293 41.8299C9.76766 51.6798 21.1717 57.2519 32.4899 55.7604C39.424 54.8598 44.6389 52.327 49.3954 47.5428C56.8166 40.1133 59.3955 29.1659 56.0717 19.2598C54.9828 16.1079 54.4671 15.0384 52.5759 12.2524C49.7965 8.17172 45.1833 4.34436 40.6561 2.43068C36.1575 0.488861 30.1976 -0.411694 25.4411 0.179295ZM30.9139 5.89219C32.0887 6.68017 33.722 8.9597 34.8108 11.3518C35.7564 13.4062 36.9025 17.0647 36.7306 17.3743C36.6446 17.4868 33.1775 17.5994 28.9941 17.5994C22.719 17.5994 21.3723 17.5431 21.2577 17.2054C21.0571 16.6707 22.6904 11.9991 23.8079 9.86026C24.3236 8.93156 25.3838 7.4963 26.2147 6.68017C27.4755 5.41377 27.848 5.21677 28.7936 5.21677C29.4812 5.21677 30.2835 5.47005 30.9139 5.89219ZM19.0514 7.80587C17.9626 10.1698 16.7305 13.4343 16.358 14.9822C16.1001 16.0234 15.7562 17.0647 15.613 17.2335C15.4124 17.4868 14.3236 17.5994 11.9453 17.5994C7.90519 17.5994 7.87654 17.5713 9.82497 14.8977C11.6015 12.4775 13.6932 10.5075 16.2433 8.84713C18.3637 7.4963 19.3666 7.13045 19.0514 7.80587ZM41.1719 8.50943C44.2091 10.2542 49.51 15.8264 49.51 17.2335C49.51 17.7401 42.3753 17.7683 42.232 17.2335C41.2865 14.0253 39.8251 9.86026 39.3094 8.79085C38.4498 7.15859 38.7363 7.10231 41.1719 8.50943ZM14.8393 28.0121V33.3591H10.57C6.38656 33.3591 6.3006 33.3591 6.12868 32.7118C5.72753 31.4173 5.61291 25.9014 5.9281 24.2691L6.27194 22.665H10.57H14.8393V28.0121ZM37.8767 24.3817C37.9627 25.3385 38.0486 26.9708 38.0486 28.0121C38.0486 29.0533 37.9627 30.6856 37.8767 31.6424L37.6761 33.3591H29.0228H20.3408L20.1689 32.7118C20.0829 32.3741 19.9969 30.2634 19.9969 28.0121C19.9969 25.7607 20.0829 23.65 20.1689 23.2841L20.3408 22.665H29.0228H37.6761L37.8767 24.3817ZM52.0029 23.9877C52.318 25.9014 52.2321 31.6706 51.8309 32.5993L51.5158 33.3872L47.3323 33.3028L43.1203 33.2184L43.1489 28.0121C43.1776 25.1415 43.1776 22.7776 43.2062 22.7213C43.2062 22.6932 45.126 22.665 47.4756 22.665H51.7736L52.0029 23.9877ZM15.613 38.7624C15.7849 38.9594 16.0714 39.8318 16.272 40.6761C16.7018 42.4209 18.0772 46.2202 18.7362 47.4866C18.9941 47.9368 19.1087 48.3871 19.0227 48.4715C18.4497 49.0344 13.2347 45.2633 11.0571 42.7305C9.53844 40.9575 8.22038 38.8469 8.47826 38.5936C8.8221 38.2559 15.3264 38.4247 15.613 38.7624ZM36.7306 38.678C36.9311 38.9876 35.3552 43.7155 34.4383 45.5447C32.1747 49.9349 29.7964 51.5953 27.4468 50.3852C26.444 49.8787 24.5242 47.571 23.5786 45.7699C22.6617 43.9688 21.0858 39.2409 21.2577 38.7906C21.3723 38.5092 22.9769 38.4247 28.9941 38.4247C33.1775 38.4247 36.6446 38.5373 36.7306 38.678ZM49.51 38.7906C49.51 39.5223 46.702 43.0964 44.8395 44.7849C43.0343 46.389 39.7105 48.556 38.9942 48.556C38.7936 48.556 39.0228 47.768 39.6246 46.4734C40.169 45.3196 40.9426 43.2089 41.3724 41.7455C41.7736 40.3103 42.1461 38.9594 42.2034 38.7624C42.3753 38.2559 49.51 38.284 49.51 38.7906Z" fill="url(#paint0_linear_270_394)"/>
<defs>
<linearGradient id="paint0_linear_270_394" x1="0.500001" y1="53.617" x2="64.6283" y2="11.8342" gradientUnits="userSpaceOnUse">
<stop stop-color="#2B3A67"/>
<stop offset="1" stop-color="#4A71E7"/>
</linearGradient>
</defs>
</svg>
