<svg width="38" height="32" viewBox="0 0 38 32" fill="none" xmlns="http://www.w3.org/2000/svg">
<path d="M0.666626 2.66667C0.666626 1.19167 1.85829 0 3.33329 0H35.3333C36.8083 0 38 1.19167 38 2.66667C38 4.14167 36.8083 5.33333 35.3333 5.33333H3.33329C1.85829 5.33333 0.666626 4.14167 0.666626 2.66667ZM0.666626 16C0.666626 14.525 1.85829 13.3333 3.33329 13.3333H35.3333C36.8083 13.3333 38 14.525 38 16C38 17.475 36.8083 18.6667 35.3333 18.6667H3.33329C1.85829 18.6667 0.666626 17.475 0.666626 16ZM38 29.3333C38 30.8083 36.8083 32 35.3333 32H3.33329C1.85829 32 0.666626 30.8083 0.666626 29.3333C0.666626 27.8583 1.85829 26.6667 3.33329 26.6667H35.3333C36.8083 26.6667 38 27.8583 38 29.3333Z" fill="white"/>
</svg>
