<svg width="75" height="53" viewBox="0 0 75 53" fill="none" xmlns="http://www.w3.org/2000/svg">
<path id="Vector" d="M0 19.875C0 8.89406 8.98995 0 20.0893 0H21.4286C24.3917 0 26.7857 2.36844 26.7857 5.3C26.7857 8.23156 24.3917 10.6 21.4286 10.6H20.0893C14.9163 10.6 10.7143 14.7572 10.7143 19.875V21.2H21.4286C27.3382 21.2 32.1429 25.9534 32.1429 31.8V42.4C32.1429 48.2466 27.3382 53 21.4286 53H10.7143C4.80469 53 0 48.2466 0 42.4V37.1V31.8V19.875ZM42.8571 19.875C42.8571 8.89406 51.8471 0 62.9464 0H64.2857C67.2489 0 69.6429 2.36844 69.6429 5.3C69.6429 8.23156 67.2489 10.6 64.2857 10.6H62.9464C57.7734 10.6 53.5714 14.7572 53.5714 19.875V21.2H64.2857C70.1953 21.2 75 25.9534 75 31.8V42.4C75 48.2466 70.1953 53 64.2857 53H53.5714C47.6618 53 42.8571 48.2466 42.8571 42.4V37.1V31.8V19.875Z" fill="url(#paint0_linear_543_6973)"/>
<defs>
<linearGradient id="paint0_linear_543_6973" x1="-7.6091e-07" y1="13.25" x2="136.395" y2="60.9578" gradientUnits="userSpaceOnUse">
<stop stop-color="#2B3A67"/>
<stop offset="1" stop-color="#163FBA"/>
</linearGradient>
</defs>
</svg>
