<svg width="15" height="12" viewBox="0 0 15 12" fill="none" xmlns="http://www.w3.org/2000/svg">
<path id="Vector" d="M10.6223 1.97946L13.9116 5.26875C14.1045 5.46161 14.2143 5.72679 14.2143 6C14.2143 6.27321 14.1045 6.53839 13.9116 6.73125L10.6223 10.0205C10.4509 10.192 10.2205 10.2857 9.97946 10.2857C9.47857 10.2857 9.07143 9.87857 9.07143 9.37768V7.71429H5.64286C5.16875 7.71429 4.78571 7.33125 4.78571 6.85714V5.14286C4.78571 4.66875 5.16875 4.28571 5.64286 4.28571H9.07143V2.62232C9.07143 2.12143 9.47857 1.71429 9.97946 1.71429C10.2205 1.71429 10.4509 1.81071 10.6223 1.97946ZM4.78571 1.71429H3.07143C2.59732 1.71429 2.21429 2.09732 2.21429 2.57143V9.42857C2.21429 9.90268 2.59732 10.2857 3.07143 10.2857H4.78571C5.25982 10.2857 5.64286 10.6687 5.64286 11.1429C5.64286 11.617 5.25982 12 4.78571 12H3.07143C1.65179 12 0.5 10.8482 0.5 9.42857V2.57143C0.5 1.15179 1.65179 0 3.07143 0H4.78571C5.25982 0 5.64286 0.383036 5.64286 0.857143C5.64286 1.33125 5.25982 1.71429 4.78571 1.71429Z" fill="#C05B0E"/>
</svg>
