<svg width="12" height="12" viewBox="0 0 12 12" fill="none" xmlns="http://www.w3.org/2000/svg">
<path id="Vector" d="M0.154896 6.61107C0.445325 7.16397 0.532454 7.17367 4.4242 7.17367L7.98679 7.18337L6.5056 8.62869C5.70208 9.4241 4.98569 10.1904 4.93729 10.3262C4.56941 11.2865 5.27612 12.1595 6.27326 11.9752C6.58305 11.917 7.00901 11.5387 9.17755 9.3756C10.5813 7.97878 11.7914 6.71777 11.8689 6.57227C12.0334 6.26187 12.0431 5.83506 11.8979 5.45676C11.7817 5.14636 7.05742 0.344809 6.6605 0.131407C6.35071 -0.0334949 5.71176 -0.0431948 5.38261 0.102306C4.90825 0.325408 4.69526 1.17902 4.97601 1.72222C5.05346 1.86772 5.74081 2.60493 6.51528 3.36154C7.28008 4.11815 7.88998 4.76805 7.86094 4.79715C7.83189 4.82625 6.19581 4.84565 4.23058 4.84565L0.658305 4.84565L0.329153 5.17546C0.0580864 5.44706 9.53674e-07 5.57316 9.53674e-07 5.92236C0.0096817 6.15517 0.0677671 6.46557 0.154896 6.61107Z" fill="white"/>
</svg>
