<svg width="15" height="15" viewBox="0 0 15 15" fill="none" xmlns="http://www.w3.org/2000/svg">
<path d="M14.1073 0.45535C13.2105 0.97859 9.90416 2.82889 7.1147 4.39103C6.08861 4.95977 4.8573 5.64984 4.37845 5.92283C3.89961 6.19583 2.78991 6.82523 1.90823 7.31056C-0.13636 8.44804 -0.075554 8.41012 0.0536578 8.49354C0.114463 8.53145 0.973342 8.90303 1.96903 9.32769L3.7704 10.1012L4.13523 9.84335C4.51526 9.57793 10.4058 5.25551 10.8238 4.93702C10.9531 4.83844 11.0671 4.77777 11.0671 4.81569C11.0671 4.8536 9.61533 6.33233 7.83677 8.10679L4.60647 11.3372L4.62167 12.96L4.64448 14.5904L5.21453 14.7952C5.52616 14.9089 5.83779 14.9999 5.90619 14.9999C5.9898 15.0075 6.34703 14.4843 6.96269 13.4529C7.47954 12.596 7.90517 11.8984 7.91278 11.8984C7.92798 11.8984 9.09088 12.3913 10.5122 12.9904L13.0812 14.0899L13.1345 13.8852C13.1649 13.7714 13.2789 13.0131 13.3853 12.2017C13.4841 11.3903 13.6741 9.95709 13.8033 9.01678C14.1681 6.31716 14.4038 4.51994 14.5634 3.25355C14.7078 2.16915 14.8902 0.83451 14.989 0.235437C15.0118 0.106523 14.9966 -0.00722504 14.9662 0.000358582C14.9358 0.000358582 14.5482 0.205105 14.1073 0.45535Z" fill="white"/>
</svg>
