<svg width="111" height="155" viewBox="0 0 111 155" fill="none" xmlns="http://www.w3.org/2000/svg">
<path d="M65.4457 0C63.4371 0 61.5107 0.797329 60.0903 2.21658C58.67 3.63584 57.8721 5.56076 57.8721 7.56789C57.8721 9.57501 58.67 11.4999 60.0903 12.9192C61.5107 14.3384 63.4371 15.1358 65.4457 15.1358C67.4544 15.1358 69.3808 14.3384 70.8011 12.9192C72.2215 11.4999 73.0194 9.57501 73.0194 7.56789C73.0194 5.56076 72.2215 3.63584 70.8011 2.21658C69.3808 0.797329 67.4544 0 65.4457 0ZM86.2733 26.4876C86.2733 26.9894 86.0738 27.4706 85.7188 27.8254C85.3637 28.1802 84.8821 28.3796 84.3799 28.3796C83.8777 28.3796 83.3961 28.1802 83.0411 27.8254C82.686 27.4706 82.4865 26.9894 82.4865 26.4876C82.4865 25.9858 82.686 25.5046 83.0411 25.1498C83.3961 24.795 83.8777 24.5956 84.3799 24.5956C84.8821 24.5956 85.3637 24.795 85.7188 25.1498C86.0738 25.5046 86.2733 25.9858 86.2733 26.4876ZM76.8062 26.4876C76.8062 28.4947 77.6042 30.4196 79.0245 31.8389C80.4448 33.2582 82.3712 34.0555 84.3799 34.0555C86.3886 34.0555 88.315 33.2582 89.7353 31.8389C91.1556 30.4196 91.9536 28.4947 91.9536 26.4876C91.9536 24.4805 91.1556 22.5555 89.7353 21.1363C88.315 19.717 86.3886 18.9197 84.3799 18.9197C82.3712 18.9197 80.4448 19.717 79.0245 21.1363C77.6042 22.5555 76.8062 24.4805 76.8062 26.4876ZM103.314 9.45986C102.812 9.45986 102.33 9.26052 101.975 8.90571C101.62 8.5509 101.421 8.06967 101.421 7.56789C101.421 7.0661 101.62 6.58487 101.975 6.23006C102.33 5.87525 102.812 5.67591 103.314 5.67591C103.816 5.67591 104.298 5.87525 104.653 6.23006C105.008 6.58487 105.207 7.0661 105.207 7.56789C105.207 8.06967 105.008 8.5509 104.653 8.90571C104.298 9.26052 103.816 9.45986 103.314 9.45986ZM103.314 0C101.305 0 99.379 0.797329 97.9587 2.21658C96.5383 3.63584 95.7404 5.56076 95.7404 7.56789C95.7404 9.57501 96.5383 11.4999 97.9587 12.9192C99.379 14.3384 101.305 15.1358 103.314 15.1358C105.323 15.1358 107.249 14.3384 108.669 12.9192C110.09 11.4999 110.888 9.57501 110.888 7.56789C110.888 5.56076 110.09 3.63584 108.669 2.21658C107.249 0.797329 105.323 0 103.314 0ZM103.314 28.3796C102.812 28.3796 102.33 28.1802 101.975 27.8254C101.62 27.4706 101.421 26.9894 101.421 26.4876C101.421 25.9858 101.62 25.5046 101.975 25.1498C102.33 24.795 102.812 24.5956 103.314 24.5956C103.816 24.5956 104.298 24.795 104.653 25.1498C105.008 25.5046 105.207 25.9858 105.207 26.4876C105.207 26.9894 105.008 27.4706 104.653 27.8254C104.298 28.1802 103.816 28.3796 103.314 28.3796ZM103.314 18.9197C101.305 18.9197 99.379 19.717 97.9587 21.1363C96.5383 22.5555 95.7404 24.4805 95.7404 26.4876C95.7404 28.4947 96.5383 30.4196 97.9587 31.8389C99.379 33.2582 101.305 34.0555 103.314 34.0555C105.323 34.0555 107.249 33.2582 108.669 31.8389C110.09 30.4196 110.888 28.4947 110.888 26.4876C110.888 24.4805 110.09 22.5555 108.669 21.1363C107.249 19.717 105.323 18.9197 103.314 18.9197ZM76.8062 7.56789C76.8062 9.57501 77.6042 11.4999 79.0245 12.9192C80.4448 14.3384 82.3712 15.1358 84.3799 15.1358C86.3886 15.1358 88.315 14.3384 89.7353 12.9192C91.1556 11.4999 91.9536 9.57501 91.9536 7.56789C91.9536 5.56076 91.1556 3.63584 89.7353 2.21658C88.315 0.797329 86.3886 0 84.3799 0C82.3712 0 80.4448 0.797329 79.0245 2.21658C77.6042 3.63584 76.8062 5.56076 76.8062 7.56789ZM57.8721 26.4876C57.8721 28.4947 58.67 30.4196 60.0903 31.8389C61.5107 33.2582 63.4371 34.0555 65.4457 34.0555C67.4544 34.0555 69.3808 33.2582 70.8011 31.8389C72.2215 30.4196 73.0194 28.4947 73.0194 26.4876C73.0194 24.4805 72.2215 22.5555 70.8011 21.1363C69.3808 19.717 67.4544 18.9197 65.4457 18.9197C63.4371 18.9197 61.5107 19.717 60.0903 21.1363C58.67 22.5555 57.8721 24.4805 57.8721 26.4876ZM65.4457 41.6234C63.4371 41.6234 61.5107 42.4207 60.0903 43.84C58.67 45.2592 57.8721 47.1841 57.8721 49.1913C57.8721 51.1984 58.67 53.1233 60.0903 54.5426C61.5107 55.9618 63.4371 56.7591 65.4457 56.7591C67.4544 56.7591 69.3808 55.9618 70.8011 54.5426C72.2215 53.1233 73.0194 51.1984 73.0194 49.1913C73.0194 47.1841 72.2215 45.2592 70.8011 43.84C69.3808 42.4207 67.4544 41.6234 65.4457 41.6234ZM65.4457 70.0029C64.9436 70.0029 64.462 69.8036 64.1069 69.4488C63.7518 69.094 63.5523 68.6127 63.5523 68.111C63.5523 67.6092 63.7518 67.128 64.1069 66.7731C64.462 66.4183 64.9436 66.219 65.4457 66.219C65.9479 66.219 66.4295 66.4183 66.7846 66.7731C67.1397 67.128 67.3392 67.6092 67.3392 68.111C67.3392 68.6127 67.1397 69.094 66.7846 69.4488C66.4295 69.8036 65.9479 70.0029 65.4457 70.0029ZM65.4457 60.5431C63.4371 60.5431 61.5107 61.3404 60.0903 62.7597C58.67 64.1789 57.8721 66.1038 57.8721 68.111C57.8721 70.1181 58.67 72.043 60.0903 73.4623C61.5107 74.8815 63.4371 75.6789 65.4457 75.6789C67.4544 75.6789 69.3808 74.8815 70.8011 73.4623C72.2215 72.043 73.0194 70.1181 73.0194 68.111C73.0194 66.1038 72.2215 64.1789 70.8011 62.7597C69.3808 61.3404 67.4544 60.5431 65.4457 60.5431ZM86.2733 68.111C86.2733 68.6127 86.0738 69.094 85.7188 69.4488C85.3637 69.8036 84.8821 70.0029 84.3799 70.0029C83.8777 70.0029 83.3961 69.8036 83.0411 69.4488C82.686 69.094 82.4865 68.6127 82.4865 68.111C82.4865 67.6092 82.686 67.128 83.0411 66.7731C83.3961 66.4183 83.8777 66.219 84.3799 66.219C84.8821 66.219 85.3637 66.4183 85.7188 66.7731C86.0738 67.128 86.2733 67.6092 86.2733 68.111ZM76.8062 68.111C76.8062 70.1181 77.6042 72.043 79.0245 73.4623C80.4448 74.8815 82.3712 75.6789 84.3799 75.6789C86.3886 75.6789 88.315 74.8815 89.7353 73.4623C91.1556 72.043 91.9536 70.1181 91.9536 68.111C91.9536 66.1038 91.1556 64.1789 89.7353 62.7597C88.315 61.3404 86.3886 60.5431 84.3799 60.5431C82.3712 60.5431 80.4448 61.3404 79.0245 62.7597C77.6042 64.1789 76.8062 66.1038 76.8062 68.111ZM103.314 70.0029C102.812 70.0029 102.33 69.8036 101.975 69.4488C101.62 69.094 101.421 68.6127 101.421 68.111C101.421 67.6092 101.62 67.128 101.975 66.7731C102.33 66.4183 102.812 66.219 103.314 66.219C103.816 66.219 104.298 66.4183 104.653 66.7731C105.008 67.128 105.207 67.6092 105.207 68.111C105.207 68.6127 105.008 69.094 104.653 69.4488C104.298 69.8036 103.816 70.0029 103.314 70.0029ZM103.314 60.5431C101.305 60.5431 99.379 61.3404 97.9587 62.7597C96.5383 64.1789 95.7404 66.1038 95.7404 68.111C95.7404 70.1181 96.5383 72.043 97.9587 73.4623C99.379 74.8815 101.305 75.6789 103.314 75.6789C105.323 75.6789 107.249 74.8815 108.669 73.4623C110.09 72.043 110.888 70.1181 110.888 68.111C110.888 66.1038 110.09 64.1789 108.669 62.7597C107.249 61.3404 105.323 60.5431 103.314 60.5431ZM86.2733 49.1913C86.2733 49.693 86.0738 50.1743 85.7188 50.5291C85.3637 50.8839 84.8821 51.0832 84.3799 51.0832C83.8777 51.0832 83.3961 50.8839 83.0411 50.5291C82.686 50.1743 82.4865 49.693 82.4865 49.1913C82.4865 48.6895 82.686 48.2082 83.0411 47.8534C83.3961 47.4986 83.8777 47.2993 84.3799 47.2993C84.8821 47.2993 85.3637 47.4986 85.7188 47.8534C86.0738 48.2082 86.2733 48.6895 86.2733 49.1913ZM76.8062 49.1913C76.8062 51.1984 77.6042 53.1233 79.0245 54.5426C80.4448 55.9618 82.3712 56.7591 84.3799 56.7591C86.3886 56.7591 88.315 55.9618 89.7353 54.5426C91.1556 53.1233 91.9536 51.1984 91.9536 49.1913C91.9536 47.1841 91.1556 45.2592 89.7353 43.84C88.315 42.4207 86.3886 41.6234 84.3799 41.6234C82.3712 41.6234 80.4448 42.4207 79.0245 43.84C77.6042 45.2592 76.8062 47.1841 76.8062 49.1913ZM103.314 51.0832C102.812 51.0832 102.33 50.8839 101.975 50.5291C101.62 50.1743 101.421 49.693 101.421 49.1913C101.421 48.6895 101.62 48.2082 101.975 47.8534C102.33 47.4986 102.812 47.2993 103.314 47.2993C103.816 47.2993 104.298 47.4986 104.653 47.8534C105.008 48.2082 105.207 48.6895 105.207 49.1913C105.207 49.693 105.008 50.1743 104.653 50.5291C104.298 50.8839 103.816 51.0832 103.314 51.0832ZM103.314 41.6234C101.305 41.6234 99.379 42.4207 97.9587 43.84C96.5383 45.2592 95.7404 47.1841 95.7404 49.1913C95.7404 51.1984 96.5383 53.1233 97.9587 54.5426C99.379 55.9618 101.305 56.7591 103.314 56.7591C105.323 56.7591 107.249 55.9618 108.669 54.5426C110.09 53.1233 110.888 51.1984 110.888 49.1913C110.888 47.1841 110.09 45.2592 108.669 43.84C107.249 42.4207 105.323 41.6234 103.314 41.6234Z" fill="url(#paint0_linear_626_39)"/>
<path d="M65.4457 79.3211C63.4371 79.3211 61.5107 80.1185 60.0903 81.5377C58.67 82.957 57.8721 84.8819 57.8721 86.889C57.8721 88.8962 58.67 90.8211 60.0903 92.2403C61.5107 93.6596 63.4371 94.4569 65.4457 94.4569C67.4544 94.4569 69.3808 93.6596 70.8011 92.2403C72.2215 90.8211 73.0194 88.8962 73.0194 86.889C73.0194 84.8819 72.2215 82.957 70.8011 81.5377C69.3808 80.1185 67.4544 79.3211 65.4457 79.3211ZM86.2733 105.809C86.2733 106.311 86.0738 106.792 85.7188 107.147C85.3637 107.501 84.8821 107.701 84.3799 107.701C83.8777 107.701 83.3961 107.501 83.0411 107.147C82.686 106.792 82.4865 106.311 82.4865 105.809C82.4865 105.307 82.686 104.826 83.0411 104.471C83.3961 104.116 83.8777 103.917 84.3799 103.917C84.8821 103.917 85.3637 104.116 85.7188 104.471C86.0738 104.826 86.2733 105.307 86.2733 105.809ZM76.8062 105.809C76.8062 107.816 77.6042 109.741 79.0245 111.16C80.4448 112.579 82.3712 113.377 84.3799 113.377C86.3886 113.377 88.315 112.579 89.7353 111.16C91.1556 109.741 91.9536 107.816 91.9536 105.809C91.9536 103.802 91.1556 101.877 89.7353 100.457C88.315 99.0382 86.3886 98.2409 84.3799 98.2409C82.3712 98.2409 80.4448 99.0382 79.0245 100.457C77.6042 101.877 76.8062 103.802 76.8062 105.809ZM103.314 88.781C102.812 88.781 102.33 88.5817 101.975 88.2269C101.62 87.872 101.421 87.3908 101.421 86.889C101.421 86.3872 101.62 85.906 101.975 85.5512C102.33 85.1964 102.812 84.9971 103.314 84.9971C103.816 84.9971 104.298 85.1964 104.653 85.5512C105.008 85.906 105.207 86.3872 105.207 86.889C105.207 87.3908 105.008 87.872 104.653 88.2269C104.298 88.5817 103.816 88.781 103.314 88.781ZM103.314 79.3211C101.305 79.3211 99.379 80.1185 97.9587 81.5377C96.5383 82.957 95.7404 84.8819 95.7404 86.889C95.7404 88.8962 96.5383 90.8211 97.9587 92.2403C99.379 93.6596 101.305 94.4569 103.314 94.4569C105.323 94.4569 107.249 93.6596 108.669 92.2403C110.09 90.8211 110.888 88.8962 110.888 86.889C110.888 84.8819 110.09 82.957 108.669 81.5377C107.249 80.1185 105.323 79.3211 103.314 79.3211ZM103.314 107.701C102.812 107.701 102.33 107.501 101.975 107.147C101.62 106.792 101.421 106.311 101.421 105.809C101.421 105.307 101.62 104.826 101.975 104.471C102.33 104.116 102.812 103.917 103.314 103.917C103.816 103.917 104.298 104.116 104.653 104.471C105.008 104.826 105.207 105.307 105.207 105.809C105.207 106.311 105.008 106.792 104.653 107.147C104.298 107.501 103.816 107.701 103.314 107.701ZM103.314 98.2409C101.305 98.2409 99.379 99.0382 97.9587 100.457C96.5383 101.877 95.7404 103.802 95.7404 105.809C95.7404 107.816 96.5383 109.741 97.9587 111.16C99.379 112.579 101.305 113.377 103.314 113.377C105.323 113.377 107.249 112.579 108.669 111.16C110.09 109.741 110.888 107.816 110.888 105.809C110.888 103.802 110.09 101.877 108.669 100.457C107.249 99.0382 105.323 98.2409 103.314 98.2409ZM76.8062 86.889C76.8062 88.8962 77.6042 90.8211 79.0245 92.2403C80.4448 93.6596 82.3712 94.4569 84.3799 94.4569C86.3886 94.4569 88.315 93.6596 89.7353 92.2403C91.1556 90.8211 91.9536 88.8962 91.9536 86.889C91.9536 84.8819 91.1556 82.957 89.7353 81.5377C88.315 80.1185 86.3886 79.3211 84.3799 79.3211C82.3712 79.3211 80.4448 80.1185 79.0245 81.5377C77.6042 82.957 76.8062 84.8819 76.8062 86.889ZM57.8721 105.809C57.8721 107.816 58.67 109.741 60.0903 111.16C61.5107 112.579 63.4371 113.377 65.4457 113.377C67.4544 113.377 69.3808 112.579 70.8011 111.16C72.2215 109.741 73.0194 107.816 73.0194 105.809C73.0194 103.802 72.2215 101.877 70.8011 100.457C69.3808 99.0382 67.4544 98.2409 65.4457 98.2409C63.4371 98.2409 61.5107 99.0382 60.0903 100.457C58.67 101.877 57.8721 103.802 57.8721 105.809ZM65.4457 120.945C63.4371 120.945 61.5107 121.742 60.0903 123.161C58.67 124.58 57.8721 126.505 57.8721 128.512C57.8721 130.52 58.67 132.444 60.0903 133.864C61.5107 135.283 63.4371 136.08 65.4457 136.08C67.4544 136.08 69.3808 135.283 70.8011 133.864C72.2215 132.444 73.0194 130.52 73.0194 128.512C73.0194 126.505 72.2215 124.58 70.8011 123.161C69.3808 121.742 67.4544 120.945 65.4457 120.945ZM65.4457 149.324C64.9436 149.324 64.462 149.125 64.1069 148.77C63.7518 148.415 63.5523 147.934 63.5523 147.432C63.5523 146.93 63.7518 146.449 64.1069 146.094C64.462 145.739 64.9436 145.54 65.4457 145.54C65.9479 145.54 66.4295 145.739 66.7846 146.094C67.1397 146.449 67.3392 146.93 67.3392 147.432C67.3392 147.934 67.1397 148.415 66.7846 148.77C66.4295 149.125 65.9479 149.324 65.4457 149.324ZM65.4457 139.864C63.4371 139.864 61.5107 140.662 60.0903 142.081C58.67 143.5 57.8721 145.425 57.8721 147.432C57.8721 149.439 58.67 151.364 60.0903 152.783C61.5107 154.203 63.4371 155 65.4457 155C67.4544 155 69.3808 154.203 70.8011 152.783C72.2215 151.364 73.0194 149.439 73.0194 147.432C73.0194 145.425 72.2215 143.5 70.8011 142.081C69.3808 140.662 67.4544 139.864 65.4457 139.864ZM86.2733 147.432C86.2733 147.934 86.0738 148.415 85.7188 148.77C85.3637 149.125 84.8821 149.324 84.3799 149.324C83.8777 149.324 83.3961 149.125 83.0411 148.77C82.686 148.415 82.4865 147.934 82.4865 147.432C82.4865 146.93 82.686 146.449 83.0411 146.094C83.3961 145.739 83.8777 145.54 84.3799 145.54C84.8821 145.54 85.3637 145.739 85.7188 146.094C86.0738 146.449 86.2733 146.93 86.2733 147.432ZM76.8062 147.432C76.8062 149.439 77.6042 151.364 79.0245 152.783C80.4448 154.203 82.3712 155 84.3799 155C86.3886 155 88.315 154.203 89.7353 152.783C91.1556 151.364 91.9536 149.439 91.9536 147.432C91.9536 145.425 91.1556 143.5 89.7353 142.081C88.315 140.662 86.3886 139.864 84.3799 139.864C82.3712 139.864 80.4448 140.662 79.0245 142.081C77.6042 143.5 76.8062 145.425 76.8062 147.432ZM103.314 149.324C102.812 149.324 102.33 149.125 101.975 148.77C101.62 148.415 101.421 147.934 101.421 147.432C101.421 146.93 101.62 146.449 101.975 146.094C102.33 145.739 102.812 145.54 103.314 145.54C103.816 145.54 104.298 145.739 104.653 146.094C105.008 146.449 105.207 146.93 105.207 147.432C105.207 147.934 105.008 148.415 104.653 148.77C104.298 149.125 103.816 149.324 103.314 149.324ZM103.314 139.864C101.305 139.864 99.379 140.662 97.9587 142.081C96.5383 143.5 95.7404 145.425 95.7404 147.432C95.7404 149.439 96.5383 151.364 97.9587 152.783C99.379 154.203 101.305 155 103.314 155C105.323 155 107.249 154.203 108.669 152.783C110.09 151.364 110.888 149.439 110.888 147.432C110.888 145.425 110.09 143.5 108.669 142.081C107.249 140.662 105.323 139.864 103.314 139.864ZM86.2733 128.512C86.2733 129.014 86.0738 129.495 85.7188 129.85C85.3637 130.205 84.8821 130.404 84.3799 130.404C83.8777 130.404 83.3961 130.205 83.0411 129.85C82.686 129.495 82.4865 129.014 82.4865 128.512C82.4865 128.011 82.686 127.529 83.0411 127.175C83.3961 126.82 83.8777 126.62 84.3799 126.62C84.8821 126.62 85.3637 126.82 85.7188 127.175C86.0738 127.529 86.2733 128.011 86.2733 128.512ZM76.8062 128.512C76.8062 130.52 77.6042 132.444 79.0245 133.864C80.4448 135.283 82.3712 136.08 84.3799 136.08C86.3886 136.08 88.315 135.283 89.7353 133.864C91.1556 132.444 91.9536 130.52 91.9536 128.512C91.9536 126.505 91.1556 124.58 89.7353 123.161C88.315 121.742 86.3886 120.945 84.3799 120.945C82.3712 120.945 80.4448 121.742 79.0245 123.161C77.6042 124.58 76.8062 126.505 76.8062 128.512ZM103.314 130.404C102.812 130.404 102.33 130.205 101.975 129.85C101.62 129.495 101.421 129.014 101.421 128.512C101.421 128.011 101.62 127.529 101.975 127.175C102.33 126.82 102.812 126.62 103.314 126.62C103.816 126.62 104.298 126.82 104.653 127.175C105.008 127.529 105.207 128.011 105.207 128.512C105.207 129.014 105.008 129.495 104.653 129.85C104.298 130.205 103.816 130.404 103.314 130.404ZM103.314 120.945C101.305 120.945 99.379 121.742 97.9587 123.161C96.5383 124.58 95.7404 126.505 95.7404 128.512C95.7404 130.52 96.5383 132.444 97.9587 133.864C99.379 135.283 101.305 136.08 103.314 136.08C105.323 136.08 107.249 135.283 108.669 133.864C110.09 132.444 110.888 130.52 110.888 128.512C110.888 126.505 110.09 124.58 108.669 123.161C107.249 121.742 105.323 120.945 103.314 120.945Z" fill="url(#paint1_linear_626_39)"/>
<path d="M45.442 75.6789C47.4506 75.6789 49.377 74.8815 50.7973 73.4623C52.2177 72.043 53.0156 70.1181 53.0156 68.111C53.0156 66.1038 52.2177 64.1789 50.7973 62.7597C49.377 61.3404 47.4506 60.5431 45.442 60.5431C43.4333 60.5431 41.5069 61.3404 40.0866 62.7597C38.6662 64.1789 37.8683 66.1038 37.8683 68.111C37.8683 70.1181 38.6662 72.043 40.0866 73.4623C41.5069 74.8815 43.4333 75.6789 45.442 75.6789ZM24.6144 49.1913C24.6144 48.6895 24.8139 48.2082 25.1689 47.8534C25.524 47.4986 26.0056 47.2993 26.5078 47.2993C27.01 47.2993 27.4916 47.4986 27.8466 47.8534C28.2017 48.2082 28.4012 48.6895 28.4012 49.1913C28.4012 49.693 28.2017 50.1743 27.8466 50.5291C27.4916 50.8839 27.01 51.0832 26.5078 51.0832C26.0056 51.0832 25.524 50.8839 25.1689 50.5291C24.8139 50.1743 24.6144 49.693 24.6144 49.1913ZM34.0815 49.1913C34.0815 47.1841 33.2835 45.2592 31.8632 43.84C30.4428 42.4207 28.5165 41.6234 26.5078 41.6234C24.4991 41.6234 22.5727 42.4207 21.1524 43.84C19.7321 45.2592 18.9341 47.1841 18.9341 49.1913C18.9341 51.1984 19.7321 53.1233 21.1524 54.5426C22.5727 55.9618 24.4991 56.7591 26.5078 56.7591C28.5165 56.7591 30.4428 55.9618 31.8632 54.5426C33.2835 53.1233 34.0815 51.1984 34.0815 49.1913ZM7.57362 66.219C8.07579 66.219 8.55739 66.4183 8.91248 66.7731C9.26756 67.128 9.46704 67.6092 9.46704 68.111C9.46704 68.6128 9.26756 69.094 8.91248 69.4488C8.55739 69.8036 8.07579 70.0029 7.57362 70.0029C7.07146 70.0029 6.58986 69.8036 6.23478 69.4488C5.87969 69.094 5.68021 68.6128 5.68021 68.111C5.68021 67.6092 5.87969 67.128 6.23478 66.7731C6.58986 66.4183 7.07146 66.219 7.57362 66.219ZM7.57362 75.6789C9.58229 75.6789 11.5087 74.8815 12.929 73.4623C14.3494 72.043 15.1473 70.1181 15.1473 68.111C15.1473 66.1038 14.3494 64.1789 12.929 62.7597C11.5087 61.3404 9.58229 60.5431 7.57362 60.5431C5.56496 60.5431 3.63857 61.3404 2.21824 62.7597C0.797897 64.1789 -4.19617e-05 66.1038 -4.19617e-05 68.111C-4.19617e-05 70.1181 0.797897 72.043 2.21824 73.4623C3.63857 74.8815 5.56496 75.6789 7.57362 75.6789ZM7.57362 47.2993C8.07579 47.2993 8.55739 47.4986 8.91248 47.8534C9.26756 48.2082 9.46704 48.6895 9.46704 49.1913C9.46704 49.693 9.26756 50.1743 8.91248 50.5291C8.55739 50.8839 8.07579 51.0832 7.57362 51.0832C7.07146 51.0832 6.58986 50.8839 6.23478 50.5291C5.87969 50.1743 5.68021 49.693 5.68021 49.1913C5.68021 48.6895 5.87969 48.2082 6.23478 47.8534C6.58986 47.4986 7.07146 47.2993 7.57362 47.2993ZM7.57362 56.7591C9.58229 56.7591 11.5087 55.9618 12.929 54.5426C14.3494 53.1233 15.1473 51.1984 15.1473 49.1913C15.1473 47.1841 14.3494 45.2592 12.929 43.84C11.5087 42.4207 9.58229 41.6234 7.57362 41.6234C5.56496 41.6234 3.63857 42.4207 2.21824 43.84C0.797897 45.2592 -4.19617e-05 47.1841 -4.19617e-05 49.1913C-4.19617e-05 51.1984 0.797897 53.1233 2.21824 54.5426C3.63857 55.9618 5.56496 56.7591 7.57362 56.7591ZM34.0815 68.111C34.0815 66.1038 33.2835 64.1789 31.8632 62.7597C30.4428 61.3404 28.5165 60.5431 26.5078 60.5431C24.4991 60.5431 22.5727 61.3404 21.1524 62.7597C19.7321 64.1789 18.9341 66.1038 18.9341 68.111C18.9341 70.1181 19.7321 72.043 21.1524 73.4623C22.5727 74.8815 24.4991 75.6789 26.5078 75.6789C28.5165 75.6789 30.4428 74.8815 31.8632 73.4623C33.2835 72.043 34.0815 70.1181 34.0815 68.111ZM53.0156 49.1913C53.0156 47.1841 52.2177 45.2592 50.7973 43.84C49.377 42.4207 47.4506 41.6234 45.442 41.6234C43.4333 41.6234 41.5069 42.4207 40.0866 43.84C38.6662 45.2592 37.8683 47.1841 37.8683 49.1913C37.8683 51.1984 38.6662 53.1233 40.0866 54.5426C41.5069 55.9618 43.4333 56.7591 45.442 56.7591C47.4506 56.7591 49.377 55.9618 50.7973 54.5426C52.2177 53.1233 53.0156 51.1984 53.0156 49.1913ZM45.442 34.0555C47.4506 34.0555 49.377 33.2582 50.7973 31.8389C52.2177 30.4196 53.0156 28.4947 53.0156 26.4876C53.0156 24.4805 52.2177 22.5556 50.7973 21.1363C49.377 19.717 47.4506 18.9197 45.442 18.9197C43.4333 18.9197 41.5069 19.717 40.0866 21.1363C38.6662 22.5556 37.8683 24.4805 37.8683 26.4876C37.8683 28.4947 38.6662 30.4196 40.0866 31.8389C41.5069 33.2582 43.4333 34.0555 45.442 34.0555ZM45.442 5.67592C45.9441 5.67592 46.4257 5.87524 46.7808 6.23006C47.1359 6.58488 47.3354 7.06611 47.3354 7.56789C47.3354 8.06967 47.1359 8.5509 46.7808 8.90572C46.4257 9.26053 45.9441 9.45986 45.442 9.45986C44.9398 9.45986 44.4582 9.26053 44.1031 8.90572C43.748 8.5509 43.5485 8.06967 43.5485 7.56789C43.5485 7.06611 43.748 6.58488 44.1031 6.23006C44.4582 5.87524 44.9398 5.67592 45.442 5.67592ZM45.442 15.1358C47.4506 15.1358 49.377 14.3384 50.7973 12.9192C52.2177 11.4999 53.0156 9.57501 53.0156 7.56789C53.0156 5.56076 52.2177 3.63584 50.7973 2.21658C49.377 0.797333 47.4506 0 45.442 0C43.4333 0 41.5069 0.797333 40.0866 2.21658C38.6662 3.63584 37.8683 5.56076 37.8683 7.56789C37.8683 9.57501 38.6662 11.4999 40.0866 12.9192C41.5069 14.3384 43.4333 15.1358 45.442 15.1358ZM24.6144 7.56789C24.6144 7.06611 24.8139 6.58488 25.1689 6.23006C25.524 5.87524 26.0056 5.67592 26.5078 5.67592C27.01 5.67592 27.4916 5.87524 27.8466 6.23006C28.2017 6.58488 28.4012 7.06611 28.4012 7.56789C28.4012 8.06967 28.2017 8.5509 27.8466 8.90572C27.4916 9.26053 27.01 9.45986 26.5078 9.45986C26.0056 9.45986 25.524 9.26053 25.1689 8.90572C24.8139 8.5509 24.6144 8.06967 24.6144 7.56789ZM34.0815 7.56789C34.0815 5.56076 33.2835 3.63584 31.8632 2.21658C30.4428 0.797333 28.5165 0 26.5078 0C24.4991 0 22.5727 0.797333 21.1524 2.21658C19.7321 3.63584 18.9341 5.56076 18.9341 7.56789C18.9341 9.57501 19.7321 11.4999 21.1524 12.9192C22.5727 14.3384 24.4991 15.1358 26.5078 15.1358C28.5165 15.1358 30.4428 14.3384 31.8632 12.9192C33.2835 11.4999 34.0815 9.57501 34.0815 7.56789ZM7.57362 5.67592C8.07579 5.67592 8.55739 5.87524 8.91248 6.23006C9.26756 6.58488 9.46704 7.06611 9.46704 7.56789C9.46704 8.06967 9.26756 8.5509 8.91248 8.90572C8.55739 9.26053 8.07579 9.45986 7.57362 9.45986C7.07146 9.45986 6.58986 9.26053 6.23478 8.90572C5.87969 8.5509 5.68021 8.06967 5.68021 7.56789C5.68021 7.06611 5.87969 6.58488 6.23478 6.23006C6.58986 5.87524 7.07146 5.67592 7.57362 5.67592ZM7.57362 15.1358C9.58229 15.1358 11.5087 14.3384 12.929 12.9192C14.3494 11.4999 15.1473 9.57501 15.1473 7.56789C15.1473 5.56076 14.3494 3.63584 12.929 2.21658C11.5087 0.797333 9.58229 0 7.57362 0C5.56496 0 3.63857 0.797333 2.21824 2.21658C0.797897 3.63584 -4.19617e-05 5.56076 -4.19617e-05 7.56789C-4.19617e-05 9.57501 0.797897 11.4999 2.21824 12.9192C3.63857 14.3384 5.56496 15.1358 7.57362 15.1358ZM24.6144 26.4876C24.6144 25.9858 24.8139 25.5046 25.1689 25.1498C25.524 24.795 26.0056 24.5956 26.5078 24.5956C27.01 24.5956 27.4916 24.795 27.8466 25.1498C28.2017 25.5046 28.4012 25.9858 28.4012 26.4876C28.4012 26.9894 28.2017 27.4706 27.8466 27.8254C27.4916 28.1802 27.01 28.3796 26.5078 28.3796C26.0056 28.3796 25.524 28.1802 25.1689 27.8254C24.8139 27.4706 24.6144 26.9894 24.6144 26.4876ZM34.0815 26.4876C34.0815 24.4805 33.2835 22.5556 31.8632 21.1363C30.4428 19.717 28.5165 18.9197 26.5078 18.9197C24.4991 18.9197 22.5727 19.717 21.1524 21.1363C19.7321 22.5556 18.9341 24.4805 18.9341 26.4876C18.9341 28.4947 19.7321 30.4196 21.1524 31.8389C22.5727 33.2582 24.4991 34.0555 26.5078 34.0555C28.5165 34.0555 30.4428 33.2582 31.8632 31.8389C33.2835 30.4196 34.0815 28.4947 34.0815 26.4876ZM7.57362 24.5956C8.07579 24.5956 8.55739 24.795 8.91248 25.1498C9.26756 25.5046 9.46704 25.9858 9.46704 26.4876C9.46704 26.9894 9.26756 27.4706 8.91248 27.8254C8.55739 28.1802 8.07579 28.3796 7.57362 28.3796C7.07146 28.3796 6.58986 28.1802 6.23478 27.8254C5.87969 27.4706 5.68021 26.9894 5.68021 26.4876C5.68021 25.9858 5.87969 25.5046 6.23478 25.1498C6.58986 24.795 7.07146 24.5956 7.57362 24.5956ZM7.57362 34.0555C9.58229 34.0555 11.5087 33.2582 12.929 31.8389C14.3494 30.4196 15.1473 28.4947 15.1473 26.4876C15.1473 24.4805 14.3494 22.5556 12.929 21.1363C11.5087 19.717 9.58229 18.9197 7.57362 18.9197C5.56496 18.9197 3.63857 19.717 2.21824 21.1363C0.797897 22.5556 -4.19617e-05 24.4805 -4.19617e-05 26.4876C-4.19617e-05 28.4947 0.797897 30.4196 2.21824 31.8389C3.63857 33.2582 5.56496 34.0555 7.57362 34.0555Z" fill="url(#paint2_linear_626_39)"/>
<path d="M45.442 155C47.4506 155 49.377 154.203 50.7973 152.783C52.2177 151.364 53.0156 149.439 53.0156 147.432C53.0156 145.425 52.2177 143.5 50.7973 142.081C49.377 140.662 47.4506 139.864 45.442 139.864C43.4333 139.864 41.5069 140.662 40.0866 142.081C38.6662 143.5 37.8683 145.425 37.8683 147.432C37.8683 149.439 38.6662 151.364 40.0866 152.783C41.5069 154.203 43.4333 155 45.442 155ZM24.6144 128.512C24.6144 128.011 24.8139 127.529 25.1689 127.175C25.524 126.82 26.0056 126.62 26.5078 126.62C27.01 126.62 27.4916 126.82 27.8466 127.175C28.2017 127.529 28.4012 128.011 28.4012 128.512C28.4012 129.014 28.2017 129.495 27.8466 129.85C27.4916 130.205 27.01 130.404 26.5078 130.404C26.0056 130.404 25.524 130.205 25.1689 129.85C24.8139 129.495 24.6144 129.014 24.6144 128.512ZM34.0815 128.512C34.0815 126.505 33.2835 124.58 31.8632 123.161C30.4428 121.742 28.5165 120.945 26.5078 120.945C24.4991 120.945 22.5727 121.742 21.1524 123.161C19.7321 124.58 18.9341 126.505 18.9341 128.512C18.9341 130.52 19.7321 132.444 21.1524 133.864C22.5727 135.283 24.4991 136.08 26.5078 136.08C28.5165 136.08 30.4428 135.283 31.8632 133.864C33.2835 132.444 34.0815 130.52 34.0815 128.512ZM7.57362 145.54C8.07579 145.54 8.55739 145.739 8.91248 146.094C9.26756 146.449 9.46704 146.93 9.46704 147.432C9.46704 147.934 9.26756 148.415 8.91248 148.77C8.55739 149.125 8.07579 149.324 7.57362 149.324C7.07146 149.324 6.58986 149.125 6.23478 148.77C5.87969 148.415 5.68021 147.934 5.68021 147.432C5.68021 146.93 5.87969 146.449 6.23478 146.094C6.58986 145.739 7.07146 145.54 7.57362 145.54ZM7.57362 155C9.58229 155 11.5087 154.203 12.929 152.783C14.3494 151.364 15.1473 149.439 15.1473 147.432C15.1473 145.425 14.3494 143.5 12.929 142.081C11.5087 140.662 9.58229 139.864 7.57362 139.864C5.56496 139.864 3.63857 140.662 2.21824 142.081C0.797897 143.5 -4.19617e-05 145.425 -4.19617e-05 147.432C-4.19617e-05 149.439 0.797897 151.364 2.21824 152.783C3.63857 154.203 5.56496 155 7.57362 155ZM7.57362 126.62C8.07579 126.62 8.55739 126.82 8.91248 127.175C9.26756 127.529 9.46704 128.011 9.46704 128.512C9.46704 129.014 9.26756 129.495 8.91248 129.85C8.55739 130.205 8.07579 130.404 7.57362 130.404C7.07146 130.404 6.58986 130.205 6.23478 129.85C5.87969 129.495 5.68021 129.014 5.68021 128.512C5.68021 128.011 5.87969 127.529 6.23478 127.175C6.58986 126.82 7.07146 126.62 7.57362 126.62ZM7.57362 136.08C9.58229 136.08 11.5087 135.283 12.929 133.864C14.3494 132.444 15.1473 130.52 15.1473 128.512C15.1473 126.505 14.3494 124.58 12.929 123.161C11.5087 121.742 9.58229 120.945 7.57362 120.945C5.56496 120.945 3.63857 121.742 2.21824 123.161C0.797897 124.58 -4.19617e-05 126.505 -4.19617e-05 128.512C-4.19617e-05 130.52 0.797897 132.444 2.21824 133.864C3.63857 135.283 5.56496 136.08 7.57362 136.08ZM34.0815 147.432C34.0815 145.425 33.2835 143.5 31.8632 142.081C30.4428 140.662 28.5165 139.864 26.5078 139.864C24.4991 139.864 22.5727 140.662 21.1524 142.081C19.7321 143.5 18.9341 145.425 18.9341 147.432C18.9341 149.439 19.7321 151.364 21.1524 152.783C22.5727 154.203 24.4991 155 26.5078 155C28.5165 155 30.4428 154.203 31.8632 152.783C33.2835 151.364 34.0815 149.439 34.0815 147.432ZM53.0156 128.512C53.0156 126.505 52.2177 124.58 50.7973 123.161C49.377 121.742 47.4506 120.945 45.442 120.945C43.4333 120.945 41.5069 121.742 40.0866 123.161C38.6662 124.58 37.8683 126.505 37.8683 128.512C37.8683 130.52 38.6662 132.444 40.0866 133.864C41.5069 135.283 43.4333 136.08 45.442 136.08C47.4506 136.08 49.377 135.283 50.7973 133.864C52.2177 132.444 53.0156 130.52 53.0156 128.512ZM45.442 113.377C47.4506 113.377 49.377 112.579 50.7973 111.16C52.2177 109.741 53.0156 107.816 53.0156 105.809C53.0156 103.802 52.2177 101.877 50.7973 100.457C49.377 99.0382 47.4506 98.2409 45.442 98.2409C43.4333 98.2409 41.5069 99.0382 40.0866 100.457C38.6662 101.877 37.8683 103.802 37.8683 105.809C37.8683 107.816 38.6662 109.741 40.0866 111.16C41.5069 112.579 43.4333 113.377 45.442 113.377ZM45.442 84.9971C45.9441 84.9971 46.4257 85.1964 46.7808 85.5512C47.1359 85.906 47.3354 86.3873 47.3354 86.889C47.3354 87.3908 47.1359 87.872 46.7808 88.2269C46.4257 88.5817 45.9441 88.781 45.442 88.781C44.9398 88.781 44.4582 88.5817 44.1031 88.2269C43.748 87.872 43.5485 87.3908 43.5485 86.889C43.5485 86.3873 43.748 85.906 44.1031 85.5512C44.4582 85.1964 44.9398 84.9971 45.442 84.9971ZM45.442 94.4569C47.4506 94.4569 49.377 93.6596 50.7973 92.2403C52.2177 90.8211 53.0156 88.8962 53.0156 86.889C53.0156 84.8819 52.2177 82.957 50.7973 81.5377C49.377 80.1185 47.4506 79.3211 45.442 79.3211C43.4333 79.3211 41.5069 80.1185 40.0866 81.5377C38.6662 82.957 37.8683 84.8819 37.8683 86.889C37.8683 88.8962 38.6662 90.8211 40.0866 92.2403C41.5069 93.6596 43.4333 94.4569 45.442 94.4569ZM24.6144 86.889C24.6144 86.3873 24.8139 85.906 25.1689 85.5512C25.524 85.1964 26.0056 84.9971 26.5078 84.9971C27.01 84.9971 27.4916 85.1964 27.8466 85.5512C28.2017 85.906 28.4012 86.3873 28.4012 86.889C28.4012 87.3908 28.2017 87.872 27.8466 88.2269C27.4916 88.5817 27.01 88.781 26.5078 88.781C26.0056 88.781 25.524 88.5817 25.1689 88.2269C24.8139 87.872 24.6144 87.3908 24.6144 86.889ZM34.0815 86.889C34.0815 84.8819 33.2835 82.957 31.8632 81.5377C30.4428 80.1185 28.5165 79.3211 26.5078 79.3211C24.4991 79.3211 22.5727 80.1185 21.1524 81.5377C19.7321 82.957 18.9341 84.8819 18.9341 86.889C18.9341 88.8962 19.7321 90.8211 21.1524 92.2403C22.5727 93.6596 24.4991 94.4569 26.5078 94.4569C28.5165 94.4569 30.4428 93.6596 31.8632 92.2403C33.2835 90.8211 34.0815 88.8962 34.0815 86.889ZM7.57362 84.9971C8.07579 84.9971 8.55739 85.1964 8.91248 85.5512C9.26756 85.906 9.46704 86.3873 9.46704 86.889C9.46704 87.3908 9.26756 87.872 8.91248 88.2269C8.55739 88.5817 8.07579 88.781 7.57362 88.781C7.07146 88.781 6.58986 88.5817 6.23478 88.2269C5.87969 87.872 5.68021 87.3908 5.68021 86.889C5.68021 86.3873 5.87969 85.906 6.23478 85.5512C6.58986 85.1964 7.07146 84.9971 7.57362 84.9971ZM7.57362 94.4569C9.58229 94.4569 11.5087 93.6596 12.929 92.2403C14.3494 90.8211 15.1473 88.8962 15.1473 86.889C15.1473 84.8819 14.3494 82.957 12.929 81.5377C11.5087 80.1185 9.58229 79.3211 7.57362 79.3211C5.56496 79.3211 3.63857 80.1185 2.21824 81.5377C0.797897 82.957 -4.19617e-05 84.8819 -4.19617e-05 86.889C-4.19617e-05 88.8962 0.797897 90.8211 2.21824 92.2403C3.63857 93.6596 5.56496 94.4569 7.57362 94.4569ZM24.6144 105.809C24.6144 105.307 24.8139 104.826 25.1689 104.471C25.524 104.116 26.0056 103.917 26.5078 103.917C27.01 103.917 27.4916 104.116 27.8466 104.471C28.2017 104.826 28.4012 105.307 28.4012 105.809C28.4012 106.311 28.2017 106.792 27.8466 107.147C27.4916 107.501 27.01 107.701 26.5078 107.701C26.0056 107.701 25.524 107.501 25.1689 107.147C24.8139 106.792 24.6144 106.311 24.6144 105.809ZM34.0815 105.809C34.0815 103.802 33.2835 101.877 31.8632 100.457C30.4428 99.0382 28.5165 98.2409 26.5078 98.2409C24.4991 98.2409 22.5727 99.0382 21.1524 100.457C19.7321 101.877 18.9341 103.802 18.9341 105.809C18.9341 107.816 19.7321 109.741 21.1524 111.16C22.5727 112.579 24.4991 113.377 26.5078 113.377C28.5165 113.377 30.4428 112.579 31.8632 111.16C33.2835 109.741 34.0815 107.816 34.0815 105.809ZM7.57362 103.917C8.07579 103.917 8.55739 104.116 8.91248 104.471C9.26756 104.826 9.46704 105.307 9.46704 105.809C9.46704 106.311 9.26756 106.792 8.91248 107.147C8.55739 107.501 8.07579 107.701 7.57362 107.701C7.07146 107.701 6.58986 107.501 6.23478 107.147C5.87969 106.792 5.68021 106.311 5.68021 105.809C5.68021 105.307 5.87969 104.826 6.23478 104.471C6.58986 104.116 7.07146 103.917 7.57362 103.917ZM7.57362 113.377C9.58229 113.377 11.5087 112.579 12.929 111.16C14.3494 109.741 15.1473 107.816 15.1473 105.809C15.1473 103.802 14.3494 101.877 12.929 100.457C11.5087 99.0382 9.58229 98.2409 7.57362 98.2409C5.56496 98.2409 3.63857 99.0382 2.21824 100.457C0.797897 101.877 -4.19617e-05 103.802 -4.19617e-05 105.809C-4.19617e-05 107.816 0.797897 109.741 2.21824 111.16C3.63857 112.579 5.56496 113.377 7.57362 113.377Z" fill="url(#paint3_linear_626_39)"/>
<defs>
<linearGradient id="paint0_linear_626_39" x1="60.1281" y1="7.7871e-07" x2="120.526" y2="66.0986" gradientUnits="userSpaceOnUse">
<stop stop-color="#2B3A67"/>
<stop offset="1" stop-color="#4A71E7"/>
</linearGradient>
<linearGradient id="paint1_linear_626_39" x1="60.1281" y1="79.3211" x2="120.526" y2="145.42" gradientUnits="userSpaceOnUse">
<stop stop-color="#2B3A67"/>
<stop offset="1" stop-color="#4A71E7"/>
</linearGradient>
<linearGradient id="paint2_linear_626_39" x1="50.7596" y1="75.6789" x2="-9.63853" y2="9.58029" gradientUnits="userSpaceOnUse">
<stop stop-color="#2B3A67"/>
<stop offset="1" stop-color="#4A71E7"/>
</linearGradient>
<linearGradient id="paint3_linear_626_39" x1="50.7596" y1="155" x2="-9.63853" y2="88.9014" gradientUnits="userSpaceOnUse">
<stop stop-color="#2B3A67"/>
<stop offset="1" stop-color="#4A71E7"/>
</linearGradient>
</defs>
</svg>
