<svg width="66" height="56" viewBox="0 0 66 56" fill="none" xmlns="http://www.w3.org/2000/svg">
<g id="Group">
<path id="Vector" d="M52.8275 0.484734C52.6306 0.746788 51.843 2.58116 51.0882 4.61208L51.0532 4.7038C50.1777 7.00034 48.3637 8.8141 46.0671 9.68936C41.7024 11.3272 41.6367 11.36 41.6367 12.3427C41.6367 13.2926 41.6039 13.2926 46.0343 14.9959C48.3309 15.8712 50.1449 17.685 51.0204 19.9815L51.0554 20.0732C52.6306 24.2006 53.0244 24.7902 54.0746 24.4626C54.8622 24.2333 54.895 24.1678 56.4375 19.8767C57.0282 18.2389 57.6517 16.7648 57.8486 16.5683C58.0455 16.339 59.7521 15.6183 61.6555 14.9304C65.6592 13.4891 65.9218 13.3254 65.9218 12.3427C65.9218 11.36 65.6592 11.1962 61.6555 9.75488C59.7521 9.06699 58.0455 8.34634 57.8486 8.11704C57.6517 7.9205 56.9297 6.21716 56.2406 4.31727C54.731 0.255438 53.8777 -0.727262 52.8275 0.484734Z" fill="url(#paint0_linear_270_368)"/>
<path id="Vector_2" d="M22.817 8.18342C22.6529 8.41272 21.0448 11.7539 19.2727 15.5537C17.5005 19.3862 15.8925 22.7274 15.6956 22.9894C15.4986 23.2515 12.0856 24.9548 8.11468 26.7892C4.14375 28.6236 0.697895 30.2942 0.500989 30.458C-0.0569103 30.8838 -0.0569103 32.8492 0.468172 33.275C0.697895 33.4388 4.17656 35.1094 8.18031 36.9438C12.1841 38.7782 15.5971 40.4488 15.7612 40.6781C15.9253 40.8746 17.5005 44.2158 19.2727 48.0811C21.0448 51.9464 22.6857 55.3203 22.9154 55.5824C23.4405 56.1392 24.9501 56.1392 25.5408 55.5824C25.7706 55.3203 27.5427 51.8153 29.4133 47.7535L30.5961 45.2237C32.0572 42.0987 34.5804 39.5939 37.7162 38.1558C47.2989 33.7336 47.9881 33.4061 48.3491 32.5872C49.0054 31.1131 48.2835 30.4907 42.967 27.9685C40.2103 26.691 36.8301 25.1186 35.4518 24.4963C33.8208 23.7563 32.5071 22.459 31.7466 20.8374L29.3149 15.6519L26.25 9.11633C25.9131 8.3981 25.216 7.91658 24.425 7.85585C23.6702 7.79034 23.0139 7.92137 22.817 8.18342Z" fill="url(#paint1_linear_270_368)"/>
<path id="Vector_3" d="M52.9163 31.7703C52.5881 31.9996 51.7348 33.8668 50.9472 35.9304L50.9026 36.0513C50.056 38.3451 48.2505 40.1552 45.9589 41.0077C41.5942 42.6128 41.5286 42.6783 41.5286 43.6938C41.5286 44.5782 42.6444 45.2006 47.206 46.8057C49.7002 47.6901 49.6345 47.5591 51.2754 52.3415C52.3256 55.3879 53.0147 56.2068 54.0649 55.7155C54.6228 55.4534 55.1479 54.4707 56.0996 51.8174C56.8216 49.852 57.5436 48.0832 57.7405 47.8866C57.9374 47.6573 59.447 47.0349 61.0551 46.4453C65.2557 44.9385 65.8136 44.611 65.8136 43.661C65.8136 42.7111 65.2557 42.3835 60.9894 40.8767C59.3157 40.2871 57.8061 39.6319 57.6748 39.4354C57.5107 39.2389 57.1498 38.4199 56.8544 37.601C54.6884 31.4428 54.2618 30.8204 52.9163 31.7703Z" fill="url(#paint2_linear_270_368)"/>
</g>
<defs>
<linearGradient id="paint0_linear_270_368" x1="41.6367" y1="23.4951" x2="69.4114" y2="5.90018" gradientUnits="userSpaceOnUse">
<stop stop-color="#2B3A67"/>
<stop offset="1" stop-color="#4A71E7"/>
</linearGradient>
<linearGradient id="paint1_linear_270_368" x1="0.0783696" y1="53.9506" x2="54.9772" y2="18.5805" gradientUnits="userSpaceOnUse">
<stop stop-color="#2B3A67"/>
<stop offset="1" stop-color="#4A71E7"/>
</linearGradient>
<linearGradient id="paint2_linear_270_368" x1="41.5286" y1="54.8083" x2="69.2357" y2="37.1817" gradientUnits="userSpaceOnUse">
<stop stop-color="#2B3A67"/>
<stop offset="1" stop-color="#4A71E7"/>
</linearGradient>
</defs>
</svg>
