<svg width="50" height="56" viewBox="0 0 50 56" fill="none" xmlns="http://www.w3.org/2000/svg">
<path id="Vector" d="M46.4375 3.50571C46.4375 2.09492 45.691 0.815375 44.5426 0.26856C43.3941 -0.278256 42.083 0.0279608 41.2025 1.02317L37.0299 5.80233C32.4361 11.0518 26.2059 14.0046 19.7076 14.0046H18.875H15.8125H6.625C3.24668 14.0046 0.5 17.1433 0.5 21.0038V31.5027C0.5 35.3632 3.24668 38.5019 6.625 38.5019V52.5004C6.625 54.4361 7.99355 56 9.6875 56H15.8125C17.5064 56 18.875 54.4361 18.875 52.5004V38.5019H19.7076C26.2059 38.5019 32.4361 41.4547 37.0299 46.7041L41.2025 51.4724C42.083 52.4785 43.3941 52.7738 44.5426 52.227C45.691 51.6802 46.4375 50.4115 46.4375 48.9898V32.8588C48.2176 31.8964 49.5 29.3045 49.5 26.2532C49.5 23.202 48.2176 20.6101 46.4375 19.6477V3.50571ZM40.3125 11.8939V26.2532V40.6126C34.6852 34.7617 27.3447 31.5027 19.7076 31.5027H18.875V21.0038H19.7076C27.3447 21.0038 34.6852 17.7448 40.3125 11.8939Z" fill="url(#paint0_linear_270_393)"/>
<defs>
<linearGradient id="paint0_linear_270_393" x1="0.500001" y1="2.38298" x2="60.2774" y2="35.8646" gradientUnits="userSpaceOnUse">
<stop stop-color="#2B3A67"/>
<stop offset="1" stop-color="#4A71E7"/>
</linearGradient>
</defs>
</svg>
