<svg width="16" height="16" viewBox="0 0 16 16" fill="none" xmlns="http://www.w3.org/2000/svg">
<path id="Vector" d="M6.51562 1.94726L7.39375 0.793905C7.775 0.293807 8.36875 0 9 0C9.89062 0 10.675 0.584489 10.9312 1.43778L11.4875 3.29439C11.8094 4.3696 12.6156 5.23227 13.6687 5.6261L14.9125 6.09181C15.5656 6.33874 16 6.96386 16 7.66087C16 8.1891 15.7531 8.68607 15.3281 9.00176L13.225 10.5802C12.4656 11.1491 12.0625 12.0774 12.1687 13.0213L12.2469 13.7308C12.3812 14.9404 11.4344 16 10.2156 16C9.75313 16 9.3 15.8406 8.94063 15.553L7.20937 14.1684C7.06875 14.0559 6.91875 13.959 6.75625 13.8808C6.2625 13.6339 5.70312 13.5558 5.1625 13.6527L2.575 14.1246C1.49375 14.3215 0.5 13.4901 0.5 12.393C0.5 11.9805 0.646875 11.5804 0.909375 11.2616L1.25937 10.8427C1.71563 10.2989 1.96563 9.61125 1.96563 8.90174C1.96563 8.31412 1.79375 7.73901 1.47187 7.24517L0.275 5.42293C0.096875 5.14788 0 4.82594 0 4.49775C0 3.4538 0.940625 2.65989 1.96875 2.83493L3.57188 3.10686C4.69375 3.29752 5.82812 2.85056 6.51562 1.94726Z" fill="#FDD566"/>
</svg>
