<svg width="17" height="16" viewBox="0 0 17 16" fill="none" xmlns="http://www.w3.org/2000/svg">
<path id="Vector" d="M6.601 1.71429C6.601 0.767857 7.36886 0 8.31529 0H9.45815C10.4046 0 11.1724 0.767857 11.1724 1.71429V14.2857C11.1724 15.2321 10.4046 16 9.45815 16H8.31529C7.36886 16 6.601 15.2321 6.601 14.2857V1.71429ZM0.886719 8.57143C0.886719 7.625 1.65458 6.85714 2.601 6.85714H3.74386C4.69029 6.85714 5.45815 7.625 5.45815 8.57143V14.2857C5.45815 15.2321 4.69029 16 3.74386 16H2.601C1.65458 16 0.886719 15.2321 0.886719 14.2857V8.57143ZM14.0296 2.28571H15.1724C16.1189 2.28571 16.8867 3.05357 16.8867 4V14.2857C16.8867 15.2321 16.1189 16 15.1724 16H14.0296C13.0831 16 12.3153 15.2321 12.3153 14.2857V4C12.3153 3.05357 13.0831 2.28571 14.0296 2.28571Z" fill="url(#paint0_linear_675_162)"/>
<defs>
<linearGradient id="paint0_linear_675_162" x1="0.886719" y1="4" x2="31.6639" y2="11.6074" gradientUnits="userSpaceOnUse">
<stop stop-color="#2B3A67"/>
<stop offset="1" stop-color="#163FBA"/>
</linearGradient>
</defs>
</svg>
