<svg width="17" height="16" viewBox="0 0 17 16" fill="none" xmlns="http://www.w3.org/2000/svg">
<path d="M2.38643 8.12724C2.38643 4.47951 5.29523 1.52386 8.88516 1.52386C10.8566 1.52386 12.6219 2.41595 13.8154 3.82552C14.0841 4.14616 14.559 4.18109 14.8715 3.90806C15.1839 3.63504 15.2214 3.15248 14.9527 2.83501C13.4874 1.09845 11.3128 0 8.88516 0C4.46727 0 0.886719 3.63821 0.886719 8.12724V9.39713C0.886719 9.81936 1.22103 10.1591 1.63657 10.1591C2.05212 10.1591 2.38643 9.81936 2.38643 9.39713V8.12724ZM16.7118 6.44783C16.6274 6.03511 16.2275 5.77161 15.8244 5.86051C15.4214 5.9494 15.1589 6.35258 15.2464 6.76212C15.337 7.2034 15.387 7.66056 15.387 8.13042V9.4003C15.387 9.82254 15.7213 10.1622 16.1369 10.1622C16.5524 10.1622 16.8867 9.82254 16.8867 9.4003V8.12724C16.8867 7.55262 16.8274 6.9907 16.7149 6.44783H16.7118ZM8.88516 2.53976C8.29152 2.53976 7.71664 2.635 7.18236 2.81279C6.70746 2.97152 6.5981 3.56519 6.92304 3.95251C7.14487 4.21601 7.51043 4.29538 7.84161 4.20331C8.1728 4.11124 8.52273 4.06362 8.88516 4.06362C11.0941 4.06362 12.8844 5.88273 12.8844 8.12724V8.91775C12.8844 9.71777 12.8375 10.5146 12.7469 11.3083C12.6938 11.7718 13.0406 12.1909 13.503 12.1909C13.8717 12.1909 14.1872 11.9178 14.231 11.5464C14.3341 10.6765 14.3872 9.80031 14.3872 8.92092V8.12724C14.3872 5.04143 11.9252 2.53976 8.88828 2.53976H8.88516ZM5.59517 4.72079C5.31085 4.38427 4.8047 4.35887 4.53601 4.70809C3.81427 5.65097 3.38623 6.83831 3.38623 8.12724V8.91775C3.38623 9.68602 3.305 10.4543 3.14253 11.2004C3.0363 11.6956 3.38936 12.1909 3.88926 12.1909C4.21732 12.1909 4.51101 11.9686 4.58287 11.6416C4.78283 10.7496 4.88594 9.83841 4.88594 8.91775V8.12724C4.88594 7.26372 5.15151 6.4637 5.60142 5.80653C5.82638 5.47637 5.85137 5.02556 5.59517 4.72079ZM8.88516 5.07953C7.22923 5.07953 5.88574 6.44465 5.88574 8.12724V8.91775C5.88574 10.0575 5.74202 11.1877 5.45458 12.2861C5.33585 12.7401 5.66391 13.2068 6.12632 13.2068C6.42314 13.2068 6.68559 13.0099 6.7637 12.7179C7.09176 11.4797 7.26047 10.2035 7.26047 8.91775V8.12724C7.26047 7.2161 7.98846 6.4764 8.88516 6.4764C9.78186 6.4764 10.5098 7.2161 10.5098 8.12724V8.91775C10.5098 10.0702 10.4005 11.2162 10.1849 12.3433C10.1005 12.7845 10.4255 13.2068 10.866 13.2068C11.1847 13.2068 11.4597 12.9845 11.5221 12.6671C11.7627 11.4353 11.8846 10.1813 11.8846 8.91775V8.12724C11.8846 6.44465 10.5411 5.07953 8.88516 5.07953ZM9.63501 8.12724C9.63501 7.70501 9.3007 7.36531 8.88516 7.36531C8.46961 7.36531 8.1353 7.70501 8.1353 8.12724V8.91775C8.1353 10.8194 7.79162 12.7052 7.11988 14.4798L6.93554 14.9656C6.78557 15.3592 6.97928 15.8005 7.3667 15.9497C7.75413 16.0989 8.18842 15.9053 8.33526 15.5116L8.5196 15.0259C9.25696 13.0766 9.63501 11.0067 9.63501 8.91775V8.12724Z" fill="url(#paint0_linear_675_175)"/>
<defs>
<linearGradient id="paint0_linear_675_175" x1="0.886719" y1="4" x2="31.6639" y2="11.6074" gradientUnits="userSpaceOnUse">
<stop stop-color="#2B3A67"/>
<stop offset="1" stop-color="#163FBA"/>
</linearGradient>
</defs>
</svg>
