<svg width="29" height="16" viewBox="0 0 29 16" fill="none" xmlns="http://www.w3.org/2000/svg">
<path d="M14.9007 0.883418L10.7061 4.1504C10.0084 4.69212 9.87405 5.66721 10.4027 6.36311C10.9617 7.10485 12.0494 7.2507 12.7991 6.68814L17.1021 3.47117C17.4054 3.24615 17.8387 3.29615 18.0771 3.58785C18.3154 3.87954 18.2591 4.29625 17.9557 4.52544L17.0501 5.2005L24.7287 12.0012H26.5401C27.6884 12.0012 28.6201 11.1052 28.6201 10.001V4.66712C28.6201 3.56284 27.6884 2.66692 26.5401 2.66692H23.2467H23.0734H23.0431L22.8741 2.56275L19.7281 0.62506C19.0651 0.216687 18.2894 0 17.5007 0C16.5561 0 15.6374 0.31253 14.9007 0.883418ZM15.8887 6.06725L13.6484 7.74241C12.2834 8.76751 10.3031 8.50082 9.28039 7.15069C8.31839 5.87973 8.56105 4.10456 9.83072 3.11697L13.4361 0.31253C12.9334 0.108344 12.3917 0.004167 11.8414 0.004167C11.0267 -6.36465e-08 10.2337 0.233356 9.55339 0.666731L6.43339 2.66692H2.96672C1.81839 2.66692 0.886719 3.56284 0.886719 4.66712V10.001C0.886719 11.1052 1.81839 12.0012 2.96672 12.0012H7.65539L11.6161 15.4765C12.4654 16.2224 13.7784 16.1641 14.5541 15.3473C14.7924 15.0931 14.9527 14.7973 15.0351 14.4889L15.7717 15.139C16.6167 15.8849 17.9341 15.8307 18.7097 15.0181C18.9047 14.8139 19.0477 14.5764 19.1387 14.3305C19.9794 14.8723 21.1234 14.7598 21.8297 14.018C22.6054 13.2054 22.5491 11.9386 21.7041 11.1927L15.8887 6.06725Z" fill="url(#paint0_linear_675_177)"/>
<defs>
<linearGradient id="paint0_linear_675_177" x1="0.886718" y1="4" x2="48.714" y2="24.491" gradientUnits="userSpaceOnUse">
<stop stop-color="#2B3A67"/>
<stop offset="1" stop-color="#163FBA"/>
</linearGradient>
</defs>
</svg>
