<svg width="22" height="16" viewBox="0 0 22 16" fill="none" xmlns="http://www.w3.org/2000/svg">
<path d="M7.44381 11C11.0658 11 14.0006 8.5375 14.0006 5.5C14.0006 2.4625 11.0658 0 7.44381 0C3.82184 0 0.887064 2.4625 0.887064 5.5C0.887064 6.70625 1.35045 7.82187 2.13537 8.73125C2.02504 9.025 1.86112 9.28438 1.68774 9.50313C1.53643 9.69688 1.38197 9.84688 1.26849 9.95C1.21175 10 1.16446 10.0406 1.13294 10.0656C1.11718 10.0781 1.10457 10.0875 1.09827 10.0906L1.09196 10.0969C0.918587 10.225 0.842932 10.45 0.912282 10.6531C0.981632 10.8562 1.17392 11 1.39143 11C2.07863 11 2.77213 10.825 3.34899 10.6094C3.639 10.5 3.9101 10.3781 4.14652 10.2531C5.11427 10.7281 6.23964 11 7.44381 11ZM15.0093 5.5C15.0093 9.00937 11.8854 11.6531 8.18459 11.9688C8.9506 14.2937 11.4913 16 14.5049 16C15.7091 16 16.8345 15.7281 17.8054 15.2531C18.0418 15.3781 18.3097 15.5 18.5997 15.6094C19.1766 15.825 19.8701 16 20.5573 16C20.7748 16 20.9702 15.8594 21.0364 15.6531C21.1026 15.4469 21.0301 15.2219 20.8536 15.0938L20.8473 15.0875C20.841 15.0812 20.8284 15.075 20.8126 15.0625C20.7811 15.0375 20.7338 15 20.6771 14.9469C20.5636 14.8438 20.4091 14.6938 20.2578 14.5C20.0845 14.2812 19.9205 14.0187 19.8102 13.7281C20.5951 12.8219 21.0585 11.7063 21.0585 10.4969C21.0585 7.59687 18.3822 5.21875 14.9872 5.0125C14.9998 5.17188 15.0061 5.33437 15.0061 5.49687L15.0093 5.5Z" fill="url(#paint0_linear_675_176)"/>
<defs>
<linearGradient id="paint0_linear_675_176" x1="0.886719" y1="4" x2="38.4182" y2="15.6969" gradientUnits="userSpaceOnUse">
<stop stop-color="#2B3A67"/>
<stop offset="1" stop-color="#163FBA"/>
</linearGradient>
</defs>
</svg>
