<svg width="17" height="16" viewBox="0 0 17 16" fill="none" xmlns="http://www.w3.org/2000/svg">
<path id="Vector" d="M5.7822 12.0264L4.81662 11.0609C4.55101 10.7953 4.45727 10.4109 4.57601 10.0547C4.66975 9.77662 4.79475 9.41414 4.94474 8.99855H1.63866C1.36993 8.99855 1.11994 8.85481 0.985572 8.62045C0.851204 8.3861 0.854329 8.09862 0.991822 7.86739L2.63236 5.10197C3.03859 4.41765 3.77293 3.99893 4.56664 3.99893H7.13838C7.21337 3.87394 7.28837 3.75832 7.36336 3.64583C9.92261 -0.128879 13.7349 -0.253869 16.0098 0.164849C16.3723 0.230469 16.6535 0.514822 16.7223 0.877295C17.141 3.15525 17.0129 6.96433 13.2412 9.52351C13.1318 9.5985 13.0131 9.6735 12.8881 9.74849V12.3202C12.8881 13.1139 12.4693 13.8513 11.785 14.2544L9.01953 15.8949C8.78829 16.0324 8.50081 16.0355 8.26644 15.9011C8.03208 15.7668 7.88834 15.5199 7.88834 15.2481V11.8983C7.44774 12.0514 7.06338 12.1764 6.77277 12.2702C6.42279 12.3827 6.04156 12.2858 5.77907 12.0264H5.7822ZM12.8881 5.24884C13.2196 5.24884 13.5375 5.11715 13.7719 4.88275C14.0063 4.64834 14.138 4.33043 14.138 3.99893C14.138 3.66744 14.0063 3.34952 13.7719 3.11512C13.5375 2.88071 13.2196 2.74903 12.8881 2.74903C12.5566 2.74903 12.2386 2.88071 12.0042 3.11512C11.7698 3.34952 11.6381 3.66744 11.6381 3.99893C11.6381 4.33043 11.7698 4.64834 12.0042 4.88275C12.2386 5.11715 12.5566 5.24884 12.8881 5.24884Z" fill="url(#paint0_linear_675_158)"/>
<defs>
<linearGradient id="paint0_linear_675_158" x1="0.886719" y1="4" x2="31.6639" y2="11.6074" gradientUnits="userSpaceOnUse">
<stop stop-color="#2B3A67"/>
<stop offset="1" stop-color="#163FBA"/>
</linearGradient>
</defs>
</svg>
