<svg width="17" height="16" viewBox="0 0 17 16" fill="none" xmlns="http://www.w3.org/2000/svg">
<path id="Vector" d="M8.88672 16C11.0085 16 13.0433 15.1571 14.5436 13.6569C16.0439 12.1566 16.8867 10.1217 16.8867 8C16.8867 5.87827 16.0439 3.84344 14.5436 2.34315C13.0433 0.842855 11.0085 0 8.88672 0C6.76499 0 4.73016 0.842855 3.22986 2.34315C1.72957 3.84344 0.886719 5.87827 0.886719 8C0.886719 10.1217 1.72957 12.1566 3.22986 13.6569C4.73016 15.1571 6.76499 16 8.88672 16ZM6.01484 10.1719C6.57422 10.8188 7.53047 11.5 8.88672 11.5C10.243 11.5 11.1992 10.8188 11.7586 10.1719C11.9398 9.9625 12.2555 9.94063 12.4648 10.1219C12.6742 10.3031 12.6961 10.6187 12.5148 10.8281C11.818 11.6281 10.6086 12.5 8.88672 12.5C7.16484 12.5 5.95547 11.6281 5.25859 10.8281C5.07734 10.6187 5.09922 10.3031 5.30859 10.1219C5.51797 9.94063 5.83359 9.9625 6.01484 10.1719ZM5.39922 6.5C5.39922 6.23478 5.50458 5.98043 5.69211 5.79289C5.87965 5.60536 6.134 5.5 6.39922 5.5C6.66443 5.5 6.91879 5.60536 7.10633 5.79289C7.29386 5.98043 7.39922 6.23478 7.39922 6.5C7.39922 6.76522 7.29386 7.01957 7.10633 7.20711C6.91879 7.39464 6.66443 7.5 6.39922 7.5C6.134 7.5 5.87965 7.39464 5.69211 7.20711C5.50458 7.01957 5.39922 6.76522 5.39922 6.5ZM11.3992 5.5C11.6644 5.5 11.9188 5.60536 12.1063 5.79289C12.2939 5.98043 12.3992 6.23478 12.3992 6.5C12.3992 6.76522 12.2939 7.01957 12.1063 7.20711C11.9188 7.39464 11.6644 7.5 11.3992 7.5C11.134 7.5 10.8796 7.39464 10.6921 7.20711C10.5046 7.01957 10.3992 6.76522 10.3992 6.5C10.3992 6.23478 10.5046 5.98043 10.6921 5.79289C10.8796 5.60536 11.134 5.5 11.3992 5.5Z" fill="url(#paint0_linear_804_283)"/>
<defs>
<linearGradient id="paint0_linear_804_283" x1="0.886719" y1="4" x2="31.6639" y2="11.6074" gradientUnits="userSpaceOnUse">
<stop stop-color="#2B3A67"/>
<stop offset="1" stop-color="#163FBA"/>
</linearGradient>
</defs>
</svg>
