<svg width="155" height="90" viewBox="0 0 155 90" fill="none" xmlns="http://www.w3.org/2000/svg">
<path d="M9.09413 82.544C10.4976 82.544 10.8724 82.2201 10.8724 81.176C10.8724 80.3116 10.0114 79.951 8.77666 79.951H3.16165V82.544H9.09413ZM0 77.1424H8.68222C12.2005 77.1424 14.1094 78.6913 14.1094 81.1934C14.1094 83.4083 12.9681 85.1012 9.82451 85.3361L15.0075 89.7477H10.4605L5.31462 85.3361H3.16165V89.7477H0V77.1424ZM19.5174 77.1424H32.1861V79.951H22.6801V82.0403H31.4005V84.8498H22.6801V86.9565H32.1861V89.7477H19.5174V77.1424ZM36.696 77.1424H38.6802L48.2606 84.9571V77.1424H51.4051V89.7477H49.4209L39.8586 81.932V89.7477H36.696V77.1424ZM63.8859 87.1731C66.7683 87.1731 68.5837 85.4976 68.5837 83.4451C68.5837 81.4099 66.7311 79.6996 63.8859 79.6996C61.0418 79.6996 59.1892 81.4099 59.1892 83.4451C59.1892 85.4976 61.0227 87.1731 63.8859 87.1731ZM55.914 83.4451C55.914 82.9945 56.0265 82.2926 56.1571 81.8421C56.9066 78.9784 59.6754 76.9075 63.8859 76.9075C68.1155 76.9075 70.8854 78.9784 71.6338 81.8421C71.7644 82.2926 71.877 82.9945 71.877 83.4451C71.877 83.8588 71.7644 84.5076 71.671 84.9397C70.9416 87.875 68.209 89.9816 63.8859 89.9816C59.582 89.9816 56.8503 87.875 56.12 84.9397C56.0265 84.5076 55.914 83.8588 55.914 83.4451ZM79.0622 85.6774L79.3245 85.894C80.1854 86.6868 82.2249 87.1905 83.6475 87.1905C84.4331 87.1905 85.4247 87.1547 86.2485 86.9749C87.0342 86.7767 87.5395 86.4518 87.5395 85.8398C87.5395 85.426 87.1648 85.2095 86.2294 85.0654C85.2569 84.9214 83.965 84.9214 82.6549 84.8315C80.0358 84.6159 77.1353 84.0213 77.1353 81.0135C77.1353 78.0967 80.297 76.9259 83.7781 76.9259C86.2114 76.9259 89.1299 78.0242 90.7584 79.2307L91.0206 79.4473L88.3442 81.2475L88.1011 80.9961C87.2401 80.2034 85.2378 79.7354 83.7781 79.7354C82.9734 79.7354 82.1315 79.7712 81.4955 79.9694C80.8967 80.1318 80.5039 80.4557 80.5039 81.086C80.5039 81.5723 80.9148 81.8247 81.8321 81.9861C82.8046 82.166 84.0966 82.1843 85.3875 82.2743C87.9886 82.4724 90.9081 83.0313 90.9081 85.9123C90.9081 89.0999 87.2029 90 83.6475 90C81.2333 90 78.2957 88.9017 76.6671 87.6951L76.3858 87.5153L79.0622 85.6774ZM95.5295 77.1424H98.6922V89.7477H95.5295V77.1424ZM109.359 79.951H103.202V77.1424H118.678V79.951H112.521V89.7477H109.359V79.951ZM123.188 77.1424H135.857V79.951H126.35V82.0403H135.071V84.8498H126.35V86.9565H135.857V89.7477H123.188V77.1424ZM143.043 85.6774L143.305 85.894C144.166 86.6868 146.205 87.1905 147.627 87.1905C148.413 87.1905 149.405 87.1547 150.229 86.9749C151.015 86.7767 151.52 86.4518 151.52 85.8398C151.52 85.426 151.145 85.2095 150.21 85.0654C149.236 84.9214 147.945 84.9214 146.635 84.8315C144.016 84.6159 141.115 84.0213 141.115 81.0135C141.115 78.0967 144.277 76.9259 147.758 76.9259C150.191 76.9259 153.11 78.0242 154.738 79.2307L155 79.4473L152.325 81.2475L152.08 80.9961C151.221 80.2034 149.218 79.7354 147.758 79.7354C146.954 79.7354 146.112 79.7712 145.475 79.9694C144.876 80.1318 144.483 80.4557 144.483 81.086C144.483 81.5723 144.895 81.8247 145.812 81.9861C146.785 82.166 148.077 82.1843 149.368 82.2743C151.969 82.4724 154.887 83.0313 154.887 85.9123C154.887 89.0999 151.183 90 147.627 90C145.214 90 142.275 88.9017 140.648 87.6951L140.366 87.5153L143.043 85.6774ZM89.5589 61.9791H104.715L50.2849 10.1022V24.4718C50.2849 26.5582 51.1509 28.5585 52.6921 30.0261L83.8424 59.7158C85.3634 61.166 87.4169 61.9791 89.5589 61.9791ZM50.2849 40.1273V58.574C50.2849 60.4544 51.8683 61.9791 53.8223 61.9791H73.2121L50.2849 40.1273ZM83.8635 29.71C87.2632 32.9507 92.6863 33.1141 96.2961 30.0899C96.921 29.5669 97.3992 29.1395 97.6142 28.9017C107.246 18.2359 99.3532 0 83.2999 0H52.6901L83.8635 29.71Z" fill="white"/>
</svg>
