<svg width="24" height="26" viewBox="0 0 24 26" fill="none" xmlns="http://www.w3.org/2000/svg">
<path id="Vector" d="M23.2273 10.6622C21.02 10.6675 18.8669 9.97015 17.072 8.66852V17.7464C17.0714 19.4278 16.5642 21.0688 15.6181 22.4502C14.672 23.8316 13.3323 24.8874 11.7779 25.4766C10.2236 26.0657 8.52874 26.16 6.92006 25.7469C5.31137 25.3338 3.8655 24.433 2.77579 23.1649C1.68608 21.8969 1.00446 20.3219 0.822075 18.6508C0.639694 16.9796 0.965243 15.2919 1.75519 13.8133C2.54514 12.3346 3.76184 11.1356 5.24259 10.3764C6.72334 9.61725 8.39757 9.33417 10.0414 9.56504V14.1309C9.28919 13.8912 8.48143 13.8984 7.7335 14.1516C6.98557 14.4047 6.33571 14.8908 5.87673 15.5404C5.41774 16.19 5.17311 16.97 5.17775 17.7689C5.1824 18.5677 5.43609 19.3447 5.90259 19.9888C6.3691 20.6329 7.02456 21.1112 7.77538 21.3554C8.52621 21.5996 9.33399 21.5972 10.0834 21.3485C10.8328 21.0998 11.4854 20.6176 11.9482 19.9707C12.4109 19.3238 12.66 18.5454 12.66 17.7464V0H17.072C17.069 0.377471 17.1002 0.754428 17.1653 1.12611C17.3186 1.95582 17.6374 2.74512 18.1021 3.44574C18.5668 4.14635 19.1678 4.74355 19.8681 5.20081C20.8645 5.86829 22.0327 6.22406 23.2273 6.2238V10.6622Z" fill="white"/>
</svg>
