<svg width="16" height="18" viewBox="0 0 16 18" fill="none" xmlns="http://www.w3.org/2000/svg">
<path id="Vector" d="M3.50384 0.615882C3.10994 0.665975 3.03331 0.715759 1.9376 1.63687C0.981487 2.43522 0.906052 2.5071 0.783971 2.71621C0.580686 3.06265 0.523138 3.25232 0.45939 3.76182C0.395367 4.27444 0.405945 4.61774 0.509595 5.22366C1.13378 8.8688 4.91584 13.9261 8.75664 16.2497C9.89588 16.9375 10.7741 17.2724 11.659 17.3536C12.2013 17.4014 12.4805 17.3694 12.8739 17.2188C13.1274 17.1218 13.195 17.068 14.1477 16.2725C15.2126 15.3801 15.275 15.3134 15.4362 14.9098C15.5209 14.6974 15.5572 14.286 15.5109 14.0621C15.4317 13.6782 15.3899 13.6179 14.2621 12.2653C13.6687 11.5503 13.1012 10.8972 13.0049 10.8133C12.4265 10.3195 11.6263 10.3118 11.0625 10.7929C10.8926 10.9381 10.822 11.0261 10.6938 11.2692C10.6042 11.431 10.4908 11.6126 10.4386 11.6708C10.1036 12.0496 9.50763 12.2546 9.02269 12.1616C8.30024 12.0194 7.27072 11.2628 6.42946 10.259C5.41199 9.04482 4.86752 7.70275 5.0924 6.96873C5.19796 6.62625 5.47632 6.28328 5.78321 6.11559C5.85618 6.07176 6.01265 6.00703 6.12897 5.97017C6.4652 5.8616 6.54724 5.82171 6.7115 5.70427C7.26871 5.29793 7.45563 4.46006 7.13151 3.82529C7.03808 3.63802 5.07896 1.2761 4.83501 1.05044C4.64019 0.873077 4.3769 0.724235 4.13453 0.6589C3.90461 0.594665 3.7485 0.584047 3.50384 0.615882Z" fill="black"/>
</svg>
