<svg width="21" height="12" viewBox="0 0 21 12" fill="none" xmlns="http://www.w3.org/2000/svg">
<g id="Group">
<path id="Vector" d="M0.352875 6.99852C0.352875 9.49635 0.364593 10.6404 0.39584 10.7545C0.540361 11.2973 1.09501 11.7413 1.80199 11.8739C2.16915 11.9418 18.4687 11.9418 18.8788 11.8739C19.5897 11.7567 20.1639 11.3065 20.3084 10.7545C20.3592 10.5664 20.3709 3.3967 20.3201 3.4152C20.3045 3.41829 18.4179 4.41125 16.1251 5.62008C13.8323 6.82891 11.8325 7.86813 11.6763 7.92673C11.2466 8.09942 10.8794 8.16417 10.3521 8.16417C9.82483 8.16417 9.45767 8.09942 9.02801 7.92673C8.87178 7.86813 6.87192 6.82891 4.57912 5.62008C2.28633 4.41125 0.399746 3.41829 0.384122 3.4152C0.364593 3.40903 0.352875 5.02183 0.352875 6.99852Z" fill="black"/>
<path id="Vector_2" d="M1.779 0.127892C0.782982 0.319085 0.158029 1.12086 0.40801 1.88254C0.486129 2.11383 0.63065 2.32352 0.825948 2.48388C1.00172 2.62573 9.32141 7.02007 9.62608 7.128C10.0909 7.29452 10.6416 7.28835 11.1182 7.11258C11.4892 6.97381 19.641 2.66582 19.848 2.49929C20.8206 1.71602 20.2894 0.383843 18.8988 0.124809C18.5317 0.0569663 2.13835 0.06005 1.779 0.127892Z" fill="black"/>
</g>
</svg>
