<svg width="663" height="627" viewBox="0 0 663 627" fill="none" xmlns="http://www.w3.org/2000/svg">
<path d="M0.0562511 176V-70.75H118.706C146.706 -70.75 168.29 -63.8667 183.456 -50.1C198.856 -36.5667 206.556 -17.6667 206.556 6.59999C206.556 25.0333 201.89 40.55 192.556 53.15C183.456 65.5167 170.156 74.15 152.656 79.05C165.723 82.55 176.223 91.5333 184.156 106L222.656 176H151.956L109.256 97.6C106.456 92.7 102.84 89.2 98.4063 87.1C94.2063 85 89.3063 83.95 83.7063 83.95H64.4563V176H0.0562511ZM64.4563 38.45H107.156C132.59 38.45 145.306 28.4167 145.306 8.34999C145.306 -11.4833 132.59 -21.4 107.156 -21.4H64.4563V38.45ZM247.175 176V-70.75H421.475V-21.05H308.775V25.85H413.425V75.55H308.775V126.3H421.475V176H247.175ZM462.166 176V-70.75H509.416L622.816 70.65V-70.75H682.316V176H635.416L522.016 34.6V176H462.166ZM227.064 443.85C202.097 443.85 180.164 438.6 161.264 428.1C142.597 417.367 128.014 402.433 117.514 383.3C107.014 364.167 101.764 341.883 101.764 316.45C101.764 290.783 106.897 268.5 117.164 249.6C127.664 230.467 142.364 215.65 161.264 205.15C180.164 194.65 202.097 189.4 227.064 189.4C252.031 189.4 273.847 194.65 292.514 205.15C311.414 215.65 326.114 230.467 336.614 249.6C347.114 268.5 352.364 290.783 352.364 316.45C352.364 341.883 347.114 364.167 336.614 383.3C326.114 402.433 311.414 417.367 292.514 428.1C273.847 438.6 252.031 443.85 227.064 443.85ZM227.064 389.95C245.264 389.95 259.497 383.533 269.764 370.7C280.264 357.633 285.514 339.55 285.514 316.45C285.514 293.35 280.381 275.383 270.114 262.55C259.847 249.717 245.497 243.3 227.064 243.3C208.631 243.3 194.281 249.717 184.014 262.55C173.747 275.383 168.614 293.35 168.614 316.45C168.614 339.55 173.747 357.633 184.014 370.7C194.281 383.533 208.631 389.95 227.064 389.95ZM482.088 443.85C462.722 443.85 444.172 441.517 426.438 436.85C408.705 431.95 394.122 425.533 382.688 417.6L400.538 367.55C411.272 374.783 423.872 380.5 438.338 384.7C452.805 388.9 467.388 391 482.088 391C497.488 391 508.222 389.017 514.288 385.05C520.588 380.85 523.738 375.717 523.738 369.65C523.738 364.283 521.522 359.967 517.088 356.7C512.888 353.433 505.305 350.633 494.338 348.3L453.388 339.55C409.055 329.983 386.888 306.767 386.888 269.9C386.888 253.8 391.205 239.683 399.838 227.55C408.705 215.417 420.955 206.083 436.588 199.55C452.222 192.783 470.422 189.4 491.188 189.4C508.222 189.4 524.322 191.85 539.488 196.75C554.888 201.417 567.372 207.833 576.938 216L559.088 262.9C550.222 256.367 539.955 251.35 528.288 247.85C516.622 244.117 504.022 242.25 490.488 242.25C477.422 242.25 467.388 244.583 460.388 249.25C453.388 253.683 449.888 259.517 449.888 266.75C449.888 271.883 451.988 276.083 456.188 279.35C460.388 282.617 467.855 285.417 478.588 287.75L519.188 296.5C564.222 306.067 586.738 328.7 586.738 364.4C586.738 380.5 582.422 394.5 573.788 406.4C565.155 418.3 553.022 427.517 537.388 434.05C521.755 440.583 503.322 443.85 482.088 443.85ZM618.367 440V193.25H682.767V440H618.367ZM120.705 704V509.75H42.3051V457.25H263.505V509.75H185.105V704H120.705ZM287.849 704V457.25H462.149V506.95H349.449V553.85H454.099V603.55H349.449V654.3H462.149V704H287.849ZM591.121 707.85C571.755 707.85 553.205 705.517 535.471 700.85C517.738 695.95 503.155 689.533 491.721 681.6L509.571 631.55C520.305 638.783 532.905 644.5 547.371 648.7C561.838 652.9 576.421 655 591.121 655C606.521 655 617.255 653.017 623.321 649.05C629.621 644.85 632.771 639.717 632.771 633.65C632.771 628.283 630.555 623.967 626.121 620.7C621.921 617.433 614.338 614.633 603.371 612.3L562.421 603.55C518.088 593.983 495.921 570.767 495.921 533.9C495.921 517.8 500.238 503.683 508.871 491.55C517.738 479.417 529.988 470.083 545.621 463.55C561.255 456.783 579.455 453.4 600.221 453.4C617.255 453.4 633.355 455.85 648.521 460.75C663.921 465.417 676.405 471.833 685.971 480L668.121 526.9C659.255 520.367 648.988 515.35 637.321 511.85C625.655 508.117 613.055 506.25 599.521 506.25C586.455 506.25 576.421 508.583 569.421 513.25C562.421 517.683 558.921 523.517 558.921 530.75C558.921 535.883 561.021 540.083 565.221 543.35C569.421 546.617 576.888 549.417 587.621 551.75L628.221 560.5C673.255 570.067 695.771 592.7 695.771 628.4C695.771 644.5 691.455 658.5 682.821 670.4C674.188 682.3 662.055 691.517 646.421 698.05C630.788 704.583 612.355 707.85 591.121 707.85Z" fill="white"/>
</svg>
