<svg width="187" height="53" viewBox="0 0 187 53" fill="none" xmlns="http://www.w3.org/2000/svg">
<g id="Circles">
<path id="Vector" d="M93.932 52.9997C101.14 52.9997 108.053 50.2567 113.149 45.3742C118.246 40.4917 121.11 33.8696 121.11 26.9647C121.11 20.0598 118.246 13.4377 113.149 8.55516C108.053 3.67265 101.14 0.929688 93.932 0.929688C86.724 0.929688 79.8113 3.67265 74.7145 8.55516C69.6177 13.4377 66.7544 20.0598 66.7544 26.9647C66.7544 33.8696 69.6177 40.4917 74.7145 45.3742C79.8113 50.2567 86.724 52.9997 93.932 52.9997Z" fill="#E89E56"/>
<path id="Vector_2" d="M28.0663 52.9997C35.2742 52.9997 42.1869 50.2567 47.2837 45.3742C52.3805 40.4917 55.2439 33.8696 55.2439 26.9647C55.2439 20.0598 52.3805 13.4377 47.2837 8.55516C42.1869 3.67265 35.2742 0.929688 28.0663 0.929688C20.8583 0.929688 13.9456 3.67265 8.84881 8.55516C3.75202 13.4377 0.888672 20.0598 0.888672 26.9647C0.888672 33.8696 3.75202 40.4917 8.84881 45.3742C13.9456 50.2567 20.8583 52.9997 28.0663 52.9997Z" fill="#FDD566"/>
<path id="Vector_3" d="M159.798 52.9997C167.006 52.9997 173.918 50.2567 179.015 45.3742C184.112 40.4917 186.975 33.8696 186.975 26.9647C186.975 20.0598 184.112 13.4377 179.015 8.55516C173.918 3.67265 167.006 0.929688 159.798 0.929688C152.59 0.929688 145.677 3.67265 140.58 8.55516C135.483 13.4377 132.62 20.0598 132.62 26.9647C132.62 33.8696 135.483 40.4917 140.58 45.3742C145.677 50.2567 152.59 52.9997 159.798 52.9997Z" fill="#C05B0E"/>
</g>
</svg>
