<svg width="120" height="81" viewBox="0 0 120 81" fill="none" xmlns="http://www.w3.org/2000/svg">
<g id="Sqaures">
<path id="Vector" d="M5.93681 0.918438C4.51697 1.5205 2.93329 2.72463 2.11415 3.78982L0.639697 5.64232L0.475868 19.1193C0.31204 33.893 0.475868 35.1434 3.534 37.598C6.70135 40.1452 7.62971 40.2378 34.1699 40.2378C50.2797 40.2378 59.2903 40.0525 60.7101 39.7284C63.8228 38.9874 65.898 37.598 67.0448 35.4213C67.9732 33.7077 68.0824 32.1794 68.0824 19.8603C68.0824 4.53082 68.0278 4.29926 64.0959 1.61313L61.9661 0.177441L35.1529 0.0385017C8.55807 -0.0541229 8.28502 -0.0541229 5.93681 0.918438Z" fill="#FDD566"/>
<path id="Vector_2" d="M84.3643 0.825794C81.7977 1.84467 80.1594 3.55824 79.2856 6.19805C78.4665 8.74524 78.4665 54.5947 79.2856 57.1418C80.0502 59.5038 83.2721 62.2362 86.0572 62.8846C87.3132 63.1625 92.8288 63.394 98.945 63.394C113.198 63.394 115.656 62.792 118.222 58.4386C118.987 57.1418 119.096 54.0389 119.096 31.5773C119.096 3.14142 119.26 4.43818 115.109 1.61311L112.98 0.177422L99.8188 0.0384827C87.8593 -0.054142 86.3848 0.0384827 84.3643 0.825794Z" fill="#C05B0E"/>
<path id="Vector_3" d="M17.2492 49.7319C14.4641 50.5656 11.7336 53.0664 10.9691 55.5673C10.5868 56.7715 10.423 60.6617 10.5322 66.1729C10.6961 74.7407 10.6961 74.8333 12.2251 76.7785C15.1194 80.4835 15.3379 80.5298 39.3114 80.5298C59.5169 80.5298 60.3907 80.4835 62.6843 79.5572C64.3226 78.8625 65.524 77.9363 66.5615 76.4543C67.9814 74.3239 68.036 74.046 68.1998 65.895C68.309 60.4765 68.1452 56.8178 67.763 55.4747C66.9438 52.9275 63.8311 50.2414 60.9368 49.5467C57.4964 48.7594 20.0343 48.8983 17.2492 49.7319Z" fill="#E89E56"/>
</g>
</svg>
