<svg width="167" height="212" viewBox="0 0 167 212" fill="none" xmlns="http://www.w3.org/2000/svg">
<path d="M152.801 192.764C148.906 185.044 145.619 177.089 143.644 168.568C143.342 167.25 143.528 164.615 145.23 164.311C147.012 163.979 147.948 166.432 148.256 167.727C151.387 181.244 158.556 193.327 165.498 205.162C166.515 206.893 166.744 212.645 163.335 211.002C147.847 203.572 132.247 196.211 115.578 191.869C112.648 191.108 112.084 183.385 115.42 184.244C125.604 186.889 135.372 190.654 144.979 194.882C122.135 177.813 101.015 158.484 82.01 137.252C59.9345 112.593 40.6421 85.3562 24.736 56.3109C15.8001 39.9698 7.92151 23.0243 1.17479 5.66015C0.629341 4.2591 0.436927 1.6038 1.89266 0.641753C3.43273 -0.371571 4.74964 1.60008 5.22601 2.79286C16.951 32.9747 32.2397 61.7022 50.5578 88.4147C68.8758 115.127 90.3468 139.711 114.25 161.584C126.46 172.739 139.359 183.128 152.801 192.764Z" fill="#152D45"/>
</svg>
