<svg width="461" height="462" viewBox="0 0 461 462" fill="none" xmlns="http://www.w3.org/2000/svg">
<path d="M230.656 432.829C350.629 432.829 447.886 376.677 447.886 307.41C447.886 238.143 350.629 181.991 230.656 181.991C110.683 181.991 13.4253 238.143 13.4253 307.41C13.4253 376.677 110.683 432.829 230.656 432.829Z" fill="#F0F0F0"/>
<path d="M65.6824 352.069L28.2123 330.435C26.1 329.215 26.1 327.238 28.2123 326.018L246.163 200.184C248.275 198.964 251.701 198.964 253.814 200.184L291.286 221.817C293.398 223.037 293.398 225.015 291.286 226.233L73.3331 352.069C71.2199 353.289 67.7956 353.289 65.6824 352.069Z" fill="#E0E0E0"/>
<path d="M226.747 361.02L136.757 309.064L249.218 244.256L339.102 296.151L226.747 361.02Z" fill="#E0E0E0"/>
<path d="M350.995 384.188C374.492 384.188 393.539 373.19 393.539 359.625C393.539 346.059 374.492 335.062 350.995 335.062C327.499 335.062 308.451 346.059 308.451 359.625C308.451 373.19 327.499 384.188 350.995 384.188Z" fill="#E0E0E0"/>
<path d="M408.077 330.049C412.689 332.712 412.689 337.028 408.077 339.69C403.465 342.353 395.989 342.353 391.377 339.69C386.765 337.027 386.765 332.711 391.377 330.048C395.989 327.386 403.466 327.386 408.077 330.049Z" fill="#E0E0E0"/>
<path d="M200.369 313.513L232.581 294.887C235.901 292.97 237.561 290.458 237.562 287.946C237.562 285.433 237.575 283.465 237.575 283.465L204.154 264.619C202.383 263.596 200.947 261.11 200.947 259.065V219.35L144.684 251.861L144.682 291.576C144.682 293.62 146.118 296.107 147.889 297.13L176.32 313.512C182.962 317.347 193.729 317.347 200.369 313.513Z" fill="#152D45"/>
<g opacity="0.6">
<path d="M200.369 313.513L232.581 294.887C235.901 292.97 237.561 290.458 237.562 287.946C237.562 285.433 237.575 283.465 237.575 283.465L204.154 264.619C202.383 263.596 200.947 261.11 200.947 259.065V219.35L144.684 251.861L144.682 291.576C144.682 293.62 146.118 296.107 147.889 297.13L176.32 313.512C182.962 317.347 193.729 317.347 200.369 313.513Z" fill="black"/>
</g>
<path opacity="0.3" d="M158.192 298.609V303.071L147.881 297.129C146.121 296.111 144.677 293.63 144.677 291.575V251.864L155.397 245.68C155.619 248.402 155.859 251.216 156.082 253.956L148.566 258.307V289.335C148.566 291.39 149.991 293.87 151.769 294.889L158.192 298.609Z" fill="black"/>
<path d="M148.565 289.341C148.565 291.386 150 293.873 151.771 294.896L176.317 309.034C182.958 312.868 193.726 312.87 200.367 309.037L232.596 290.414C239.238 286.581 239.239 280.366 232.597 276.531L208.036 262.383C206.265 261.361 204.83 258.874 204.83 256.829L204.829 225.797L148.565 258.309V289.341Z" fill="#152D45"/>
<path opacity="0.3" d="M148.565 289.341C148.565 291.386 150 293.873 151.771 294.896L176.317 309.034C182.958 312.868 193.726 312.87 200.367 309.037L232.596 290.414C239.238 286.581 239.239 280.366 232.597 276.531L208.036 262.383C206.265 261.361 204.83 258.874 204.83 256.829L204.829 225.797L148.565 258.309V289.341Z" fill="black"/>
<path opacity="0.5" d="M214.567 266.158V266.153L208.035 262.382C206.264 261.36 204.829 258.873 204.829 256.828V225.796L148.564 258.308V289.342C148.564 291.387 149.999 293.873 151.77 294.896L158.188 298.601L214.567 266.158Z" fill="black"/>
<path d="M237.57 283.468C237.57 283.468 237.57 285.43 237.57 287.948C237.57 290.466 235.904 292.965 232.59 294.891L200.373 313.505C197.188 315.357 193.06 316.282 188.895 316.356V311.895C193.06 311.839 197.188 310.877 200.373 309.044L232.59 290.41C235.904 288.504 237.57 285.986 237.57 283.468Z" fill="#152D45"/>
<path opacity="0.5" d="M237.57 283.468C237.57 283.468 237.57 285.43 237.57 287.948C237.57 290.466 235.904 292.965 232.59 294.891L200.373 313.505C197.188 315.357 193.06 316.282 188.895 316.356V311.895C193.06 311.839 197.188 310.877 200.373 309.044L232.59 290.41C235.904 288.504 237.57 285.986 237.57 283.468Z" fill="black"/>
<path d="M58.2254 327.914C60.3017 329.112 63.7804 329.048 65.9941 327.77C93.6551 311.8 255.926 218.114 283.583 202.147C285.797 200.869 287.59 197.761 287.59 195.205V19.1827C287.59 16.6269 285.907 13.5825 283.83 12.3839C281.754 11.1853 278.276 11.2489 276.063 12.5277L58.4762 138.15C56.2624 139.428 54.4682 142.536 54.4682 145.093L54.4655 321.115C54.4655 323.67 56.149 326.715 58.2254 327.914Z" fill="#152D45"/>
<path d="M65.995 327.765L283.583 202.143C285.797 200.865 287.591 197.757 287.591 195.201V19.1779C287.591 16.6221 285.797 15.5858 283.583 16.8637L65.9978 142.486C63.784 143.764 61.9898 146.872 61.9898 149.429L61.9871 325.451C61.9871 328.006 63.7813 329.043 65.995 327.765Z" fill="#152D45"/>
<path opacity="0.5" d="M65.995 327.765L283.583 202.143C285.797 200.865 287.591 197.757 287.591 195.201V19.1779C287.591 16.6221 285.797 15.5858 283.583 16.8637L65.9978 142.486C63.784 143.764 61.9898 146.872 61.9898 149.429L61.9871 325.451C61.9871 328.006 63.7813 329.043 65.995 327.765Z" fill="black"/>
<path d="M65.4049 332.34C63.1838 333.321 60.1108 333.284 58.2216 332.191C56.148 330.988 54.4635 327.952 54.4635 325.379V309.352L61.9796 313.703V329.73C61.9806 332.062 63.4613 333.118 65.4049 332.34Z" fill="#152D45"/>
<path opacity="0.5" d="M65.4049 332.34C63.1838 333.321 60.1108 333.284 58.2216 332.191C56.148 330.988 54.4635 327.952 54.4635 325.379V309.352L61.9796 313.703V329.73C61.9806 332.062 63.4613 333.118 65.4049 332.34Z" fill="black"/>
<path d="M61.9806 313.703L61.987 329.724C61.987 332.28 63.7822 333.316 65.995 332.038L283.583 206.417C285.797 205.139 287.591 202.031 287.591 199.474V183.418L61.9806 313.703Z" fill="#152D45"/>
<path opacity="0.3" d="M61.9871 313.668V329.723C61.9871 332.279 63.7822 333.315 65.995 332.037L283.583 206.416C285.797 205.138 287.591 202.03 287.591 199.473V183.417L61.9871 313.668Z" fill="black"/>
<path d="M69.505 293.595L69.5068 151.925C69.5068 150.391 70.5837 148.526 71.9114 147.759L277.661 28.9696C278.99 28.2025 280.067 28.8249 280.067 30.3581L280.073 172.032C280.073 173.565 278.996 175.43 277.669 176.197L71.9096 294.983C70.5819 295.75 69.505 295.129 69.505 293.595Z" fill="#152D45"/>
<path d="M69.505 293.595L69.5068 151.925C69.5068 150.391 70.5837 148.526 71.9114 147.759L277.661 28.9696C278.99 28.2025 280.067 28.8249 280.067 30.3581L280.073 172.032C280.073 173.565 278.996 175.43 277.669 176.197L71.9096 294.983C70.5819 295.75 69.505 295.129 69.505 293.595Z" fill="#263238"/>
<path opacity="0.7" d="M63.1654 145.463C62.4435 146.722 61.9991 148.147 61.9806 149.425V313.703L54.4645 309.352L54.4691 145.093C54.4691 143.816 54.9273 142.39 55.6492 141.132L63.1654 145.463Z" fill="black"/>
<path opacity="0.3" d="M287.55 18.5197C287.266 16.4535 285.597 15.7048 283.578 16.861L65.9968 142.49C64.8969 143.125 63.902 144.206 63.1626 145.466L55.6455 141.125C56.3757 139.883 57.3706 138.784 58.4797 138.149L276.062 12.5285C278.281 11.2488 281.749 11.1824 283.835 12.3865C285.73 13.4763 287.294 16.1215 287.55 18.5197Z" fill="black"/>
<path d="M86.3058 179.044C85.2722 178.447 84.4332 176.931 84.4332 175.658L84.4304 160.075C84.4304 158.802 85.3266 157.254 86.4293 156.618L291.232 38.362C292.335 37.7258 294.066 37.6935 295.101 38.291C296.135 38.8884 296.974 40.4042 296.97 41.6756L296.972 57.2602C296.975 58.5344 296.081 60.0806 294.979 60.7168L90.1736 178.972C89.0708 179.608 87.3403 179.641 86.3058 179.044Z" fill="#152D45"/>
<path opacity="0.4" d="M296.95 41.3521C296.812 40.3195 295.973 39.9414 294.977 40.5223L90.1734 158.776C89.6294 159.099 89.1315 159.643 88.7627 160.27L85.0194 158.103C85.3882 157.476 85.8769 156.94 86.4301 156.617L291.234 38.3639C292.331 37.7277 294.064 37.6908 295.097 38.2901C296.047 38.8443 296.83 40.1526 296.95 41.3521Z" fill="white"/>
<path d="M90.1735 305.815C90.1458 305.824 89.6663 306.186 88.6051 306.291C87.7836 306.372 86.9271 306.247 86.3093 305.888C85.2675 305.288 84.4377 303.776 84.4377 302.504L84.4285 183.717L88.181 185.884V304.661C88.181 305.565 88.6346 306.088 89.2893 306.088C89.3824 306.087 89.7392 306.058 90.1735 305.815Z" fill="#F0F0F0"/>
<path opacity="0.1" d="M88.7619 160.271C88.4023 160.888 88.181 161.598 88.181 162.235V185.884L84.4285 183.717L84.4303 160.075C84.4303 159.992 84.434 159.918 84.4405 159.835C84.4561 159.647 84.4801 159.505 84.5179 159.339C84.6193 158.925 84.7899 158.484 85.0185 158.104L88.7619 160.271Z" fill="black"/>
<path d="M296.969 41.674L296.971 52.3415L150.094 137.155C148.997 137.792 148.103 137.275 148.103 136.003V131.965C148.103 130.692 147.208 130.176 146.102 130.812L97.6693 158.776C96.5629 159.412 95.6685 160.961 95.6685 162.234V166.272C95.6685 167.544 94.7742 169.093 93.677 169.73L88.1819 172.901V162.234C88.1819 160.961 89.0762 159.412 90.1734 158.776L294.977 40.5215C296.074 39.8862 296.969 40.4016 296.969 41.674Z" fill="#152D45"/>
<path d="M89.2865 305.626C88.7056 305.626 88.6429 304.951 88.6429 304.661V173.168L93.9076 170.13C94.5502 169.757 95.0721 168.097 96.1084 164.398C96.6542 162.448 97.4803 159.502 97.9081 159.172L145.459 131.716C145.865 131.928 146.759 133.501 147.301 134.454C148.463 136.5 149.159 137.657 149.947 137.657C150.081 137.657 150.21 137.623 150.327 137.554L296.511 53.1407V184.102C296.511 185.212 295.704 186.612 294.75 187.161L89.943 305.416C89.7051 305.553 89.4792 305.626 89.2865 305.626Z" fill="#FAFAFA"/>
<path d="M296.049 53.9392V65.324V184.102C296.049 185.05 295.333 186.293 294.517 186.762L89.7106 305.017C89.481 305.151 89.3372 305.165 89.2856 305.165C89.1049 305.165 89.103 304.682 89.103 304.66V173.434L94.139 170.528C94.9356 170.066 95.4335 168.514 96.5519 164.522C97.0507 162.743 97.7984 160.073 98.2022 159.534L145.397 132.284C145.804 132.755 146.474 133.933 146.899 134.681C148.182 136.939 148.9 138.118 149.945 138.118C150.159 138.118 150.37 138.061 150.554 137.954L296.049 53.9392ZM296.971 52.3423L150.094 137.156C150.047 137.183 149.997 137.197 149.946 137.197C148.83 137.197 146.565 131.241 145.442 131.241C145.389 131.241 145.339 131.254 145.292 131.281L97.6702 158.778C96.5638 159.414 94.7752 169.095 93.678 169.731L88.1829 172.903V304.662C88.1829 305.565 88.6337 306.089 89.2874 306.089C89.5548 306.089 89.8563 306.001 90.1753 305.817L294.979 187.563C296.086 186.927 296.972 185.376 296.972 184.103V65.324V52.3423H296.971Z" fill="#E0E0E0"/>
<path d="M123.215 230.51L150.509 214.751C151.244 214.327 151.84 214.671 151.84 215.519V261.478C151.84 262.326 151.244 263.358 150.509 263.783L123.215 279.541C122.48 279.965 121.885 279.621 121.885 278.773V232.815C121.884 231.966 122.48 230.934 123.215 230.51Z" fill="#F0F0F0"/>
<path d="M128.207 233.392L145.516 223.398C146.251 222.974 146.847 223.276 146.847 224.071C146.847 224.867 146.251 225.856 145.516 226.281L128.206 236.275C127.471 236.699 126.875 236.398 126.875 235.602C126.876 234.805 127.472 233.816 128.207 233.392Z" fill="#E0E0E0"/>
<path d="M126.875 240.847V241.886C126.875 242.395 127.233 242.602 127.674 242.347L128.575 241.827C129.015 241.573 129.373 240.954 129.373 240.444V239.405C129.373 238.896 129.015 238.69 128.575 238.944L127.675 239.464C127.233 239.719 126.875 240.338 126.875 240.847Z" fill="#152D45"/>
<path d="M131.869 238.484C131.869 239.28 132.465 239.581 133.199 239.157L145.516 232.046C146.251 231.622 146.847 230.632 146.847 229.837C146.847 229.041 146.251 228.739 145.516 229.164L133.199 236.275C132.465 236.698 131.869 237.687 131.869 238.484Z" fill="#E0E0E0"/>
<path d="M126.875 246.618V247.657C126.875 248.166 127.233 248.372 127.674 248.118L128.575 247.598C129.015 247.344 129.373 246.724 129.373 246.215V245.176C129.373 244.667 129.015 244.46 128.575 244.715L127.675 245.235C127.233 245.49 126.875 246.109 126.875 246.618Z" fill="#152D45"/>
<path d="M131.869 244.255C131.869 245.051 132.465 245.352 133.199 244.928L145.516 237.817C146.251 237.392 146.847 236.403 146.847 235.607C146.847 234.812 146.251 234.51 145.516 234.934L133.199 242.046C132.465 242.47 131.869 243.459 131.869 244.255Z" fill="#E0E0E0"/>
<path d="M126.875 252.38V253.419C126.875 253.928 127.233 254.134 127.674 253.88L128.575 253.36C129.015 253.105 129.373 252.486 129.373 251.977V250.938C129.373 250.429 129.015 250.222 128.575 250.477L127.675 250.997C127.233 251.251 126.875 251.871 126.875 252.38Z" fill="#152D45"/>
<path d="M131.869 250.016C131.869 250.812 132.465 251.114 133.199 250.689L145.516 243.578C146.251 243.154 146.847 242.165 146.847 241.369C146.847 240.573 146.251 240.272 145.516 240.696L133.199 247.807C132.465 248.231 131.869 249.22 131.869 250.016Z" fill="#E0E0E0"/>
<path d="M126.875 258.138V259.177C126.875 259.686 127.233 259.893 127.674 259.638L128.575 259.118C129.015 258.864 129.373 258.245 129.373 257.735V256.696C129.373 256.187 129.015 255.981 128.575 256.235L127.675 256.755C127.233 257.01 126.875 257.629 126.875 258.138Z" fill="#152D45"/>
<path d="M131.869 255.774C131.869 256.57 132.465 256.872 133.199 256.447L145.516 249.336C146.251 248.912 146.847 247.923 146.847 247.127C146.847 246.331 146.251 246.03 145.516 246.454L133.199 253.564C132.465 253.989 131.869 254.979 131.869 255.774Z" fill="#E0E0E0"/>
<path d="M128.102 265.157L145.411 255.164C146.146 254.74 146.742 255.041 146.742 255.837C146.742 256.633 146.146 257.622 145.411 258.047L128.101 268.041C127.366 268.465 126.77 268.163 126.77 267.368C126.77 266.571 127.367 265.582 128.102 265.157Z" fill="#E0E0E0"/>
<path d="M126.77 272.613V273.652C126.77 274.161 127.128 274.367 127.569 274.113L128.47 273.593C128.91 273.338 129.268 272.719 129.268 272.21V271.171C129.268 270.662 128.91 270.455 128.47 270.71L127.57 271.23C127.127 271.485 126.77 272.104 126.77 272.613Z" fill="#152D45"/>
<path d="M131.763 270.25C131.763 271.045 132.359 271.347 133.094 270.923L145.411 263.811C146.145 263.387 146.741 262.398 146.741 261.602C146.741 260.807 146.145 260.505 145.411 260.929L133.094 268.04C132.359 268.465 131.763 269.454 131.763 270.25Z" fill="#E0E0E0"/>
<path d="M287.61 48.3639C288.997 47.5626 290.121 48.2126 290.121 49.8142C290.121 51.4157 288.996 53.3639 287.61 54.1651C286.222 54.9663 285.098 54.3172 285.098 52.7148C285.098 51.1133 286.223 49.1651 287.61 48.3639Z" fill="white"/>
<path d="M278.567 53.5787C279.954 52.7775 281.078 53.4275 281.078 55.029C281.078 56.6305 279.953 58.5787 278.567 59.3799C277.179 60.1811 276.055 59.5311 276.055 57.9296C276.055 56.3272 277.179 54.379 278.567 53.5787Z" fill="white"/>
<path d="M269.523 58.7926C270.91 57.9913 272.034 58.6414 272.034 60.2429C272.034 61.8444 270.909 63.7926 269.523 64.5938C268.135 65.395 267.011 64.745 267.011 63.1435C267.011 61.541 268.136 59.5929 269.523 58.7926Z" fill="white"/>
<path d="M296.971 52.3423V65.324L88.182 185.884V172.902L92.2858 170.525C93.383 169.889 93.7518 168.922 94.2773 167.068L95.6686 162.235C96.1075 160.556 96.563 159.413 97.6694 158.777L145.292 131.28C146.398 130.644 147.261 130.574 148.103 131.965L149.81 135.064C150.436 136.147 150.75 136.783 151.847 136.147L296.971 52.3423Z" fill="#E6E6E6"/>
<path d="M88.182 172.902V185.884L84.4294 183.716V170.745L88.182 172.902Z" fill="#E0E0E0"/>
<path opacity="0.5" d="M97.3383 173.838L94.2045 175.647L95.3994 173.349C95.5045 173.147 95.5146 172.897 95.4234 172.788C95.3321 172.678 95.1726 172.755 95.0684 172.956L93.3682 176.227C93.3664 176.231 93.3654 176.235 93.3636 176.24C93.3452 176.278 93.3304 176.319 93.3184 176.361C93.3138 176.374 93.3074 176.386 93.3046 176.4C93.2908 176.456 93.2825 176.514 93.2825 176.569C93.2825 176.625 93.2908 176.672 93.3046 176.713C93.3083 176.723 93.3147 176.727 93.3184 176.737C93.3313 176.764 93.3452 176.789 93.3636 176.805C93.3654 176.807 93.3664 176.81 93.3682 176.812L95.0684 178.119C95.1163 178.156 95.1753 178.153 95.2343 178.119C95.3044 178.078 95.3745 177.993 95.4243 177.876C95.5165 177.661 95.5054 177.423 95.4003 177.342L94.2054 176.424L97.3393 174.615C97.4785 174.535 97.591 174.296 97.591 174.081C97.591 173.867 97.4776 173.757 97.3383 173.838Z" fill="#455A64"/>
<path opacity="0.5" d="M99.9559 172.326L103.09 170.517L101.895 169.599C101.79 169.518 101.779 169.279 101.871 169.065C101.962 168.85 102.122 168.743 102.226 168.822L103.926 170.13C103.928 170.132 103.929 170.135 103.931 170.137C103.949 170.153 103.964 170.178 103.976 170.205C103.98 170.214 103.986 170.219 103.99 170.229C104.003 170.269 104.012 170.317 104.012 170.373C104.012 170.429 104.003 170.486 103.99 170.542C103.986 170.556 103.979 170.569 103.976 170.581C103.963 170.624 103.949 170.664 103.931 170.702C103.929 170.706 103.928 170.711 103.926 170.715L102.226 173.985C102.178 174.078 102.119 174.143 102.06 174.177C101.99 174.218 101.92 174.213 101.87 174.154C101.778 174.045 101.789 173.795 101.894 173.593L103.089 171.295L99.955 173.104C99.8157 173.184 99.7032 173.075 99.7032 172.862C99.7032 172.646 99.8167 172.407 99.9559 172.326Z" fill="#455A64"/>
<path opacity="0.5" d="M110.236 163.302C110.217 163.113 110.053 163.137 109.969 163.342L109.539 164.391C108.807 164.312 107.92 165.026 107.322 166.294C106.545 167.937 106.545 169.882 107.322 170.628C107.71 171.002 108.22 171.006 108.73 170.711C109.24 170.417 109.748 169.824 110.137 169.003C110.235 168.795 110.235 168.548 110.137 168.454C110.038 168.359 109.878 168.452 109.78 168.66C109.2 169.885 108.258 170.431 107.678 169.873C107.098 169.316 107.098 167.863 107.678 166.637C108.09 165.764 108.684 165.248 109.201 165.216L108.877 166.007C108.793 166.213 108.87 166.404 109.002 166.318L110.28 165.484C110.369 165.426 110.435 165.262 110.422 165.133L110.236 163.302Z" fill="#455A64"/>
<path opacity="0.5" d="M143.917 137.206L145.059 134.788C145.194 134.502 145.194 134.165 145.059 134.035C144.924 133.905 144.705 134.032 144.571 134.317L143.428 136.736L142.286 135.637C142.151 135.507 141.932 135.633 141.797 135.919C141.663 136.205 141.663 136.541 141.797 136.671L142.94 137.77L141.797 140.189C141.663 140.475 141.663 140.811 141.797 140.941C141.865 141.006 141.953 141.007 142.042 140.956C142.13 140.905 142.219 140.802 142.286 140.659L143.428 138.241L144.571 139.34C144.638 139.404 144.726 139.405 144.815 139.354C144.903 139.304 144.992 139.2 145.059 139.057C145.194 138.772 145.194 138.435 145.059 138.305L143.917 137.206Z" fill="#455A64"/>
<path d="M114.394 166.275V162.235C114.394 160.962 115.288 159.414 116.391 158.778L283.742 62.1929C284.845 61.5568 285.738 62.0722 285.738 63.3454V67.3847C285.738 68.658 284.845 70.206 283.742 70.8422L116.391 167.427C115.288 168.064 114.394 167.548 114.394 166.275Z" fill="#FAFAFA"/>
<path d="M282.577 64.3274L283.102 65.4412C283.135 65.5112 283.199 65.5361 283.273 65.5085L284.445 65.0585C284.632 64.9875 284.705 65.2494 284.571 65.502L283.722 67.0943C283.669 67.1948 283.644 67.3091 283.657 67.3995L283.857 68.8406C283.889 69.0692 283.694 69.3707 283.528 69.3495L282.48 69.2195C282.413 69.2112 282.335 69.2573 282.268 69.3412L281.22 70.6818C281.053 70.8948 280.859 70.8183 280.891 70.5527L281.091 68.8802C281.104 68.7751 281.079 68.6885 281.026 68.6497L280.177 68.0366C280.043 67.9398 280.117 67.5913 280.304 67.4474L281.476 66.5439C281.549 66.4867 281.614 66.3881 281.647 66.2793L282.172 64.5597C282.254 64.2896 282.494 64.1504 282.577 64.3274Z" stroke="#E0E0E0" stroke-width="0.75" stroke-miterlimit="10"/>
<g opacity="0.5">
<path d="M288.092 61.7006C287.852 61.7006 287.62 61.5771 287.493 61.3549C287.302 61.0239 287.415 60.6016 287.745 60.4108L293.363 57.1672C293.695 56.9763 294.116 57.0897 294.308 57.4198C294.499 57.7508 294.385 58.1731 294.054 58.3648L288.437 61.6084C288.327 61.6702 288.209 61.7006 288.092 61.7006Z" fill="#455A64"/>
<path d="M288.092 64.9451C287.852 64.9451 287.62 64.8216 287.493 64.5994C287.302 64.2684 287.415 63.8461 287.745 63.6552L293.363 60.4116C293.695 60.2189 294.116 60.3342 294.308 60.6643C294.499 60.9952 294.385 61.4175 294.054 61.6084L288.437 64.852C288.327 64.9147 288.209 64.9451 288.092 64.9451Z" fill="#455A64"/>
<path d="M288.092 68.1896C287.852 68.1896 287.62 68.0661 287.493 67.8439C287.302 67.5129 287.415 67.0906 287.745 66.8997L293.363 63.6561C293.695 63.4634 294.116 63.5787 294.308 63.9088C294.499 64.2398 294.385 64.662 294.054 64.8529L288.437 68.0965C288.327 68.1592 288.209 68.1896 288.092 68.1896Z" fill="#455A64"/>
</g>
<path d="M88.1819 185.884L88.1736 198.847L296.947 78.3123L296.971 65.3241L88.1819 185.884Z" fill="#455A64"/>
<path d="M111.568 177.616V180.123C111.568 180.636 111.932 180.845 112.375 180.589L143.743 162.466V158.096L112.375 176.219C111.932 176.475 111.568 177.105 111.568 177.616Z" fill="#FAFAFA"/>
<path d="M147.984 155.648C148.429 155.391 148.79 155.599 148.79 156.113V158.62C148.79 159.135 148.429 159.761 147.984 160.018L143.744 162.466V158.096L147.984 155.648Z" fill="#152D45"/>
<path d="M147.67 159.085L147.197 158.938C147.246 158.737 147.273 158.53 147.273 158.328C147.273 157.844 147.116 157.476 146.842 157.319C146.638 157.201 146.393 157.212 146.153 157.352C145.622 157.658 145.208 158.521 145.208 159.318C145.208 159.802 145.364 160.17 145.639 160.328C145.732 160.381 145.834 160.408 145.939 160.408C146.065 160.408 146.197 160.37 146.328 160.295C146.646 160.11 146.922 159.724 147.091 159.272L147.565 159.42C147.583 159.425 147.6 159.428 147.618 159.428C147.692 159.428 147.761 159.38 147.785 159.305C147.814 159.212 147.762 159.115 147.67 159.085ZM146.153 159.991C146.022 160.067 145.907 160.079 145.814 160.025C145.657 159.933 145.559 159.663 145.559 159.318C145.559 158.658 145.911 157.897 146.329 157.655C146.406 157.611 146.477 157.589 146.541 157.589C146.586 157.589 146.628 157.6 146.667 157.622C146.825 157.713 146.922 157.983 146.922 158.328C146.922 158.989 146.569 159.751 146.153 159.991Z" fill="#FAFAFA"/>
<path d="M106.096 179.858L103.953 181.095C103.512 181.349 103.154 181.969 103.154 182.478V184.958C103.154 185.467 103.512 185.674 103.953 185.419L106.096 184.182C106.537 183.927 106.895 183.308 106.895 182.799V180.318C106.895 179.809 106.537 179.603 106.096 179.858Z" fill="#FAFAFA"/>
<path d="M180.434 135.88C178.854 136.793 177.573 139.011 177.573 140.837C177.573 142.661 178.855 143.402 180.435 142.489C182.016 141.576 183.298 139.358 183.296 137.532C183.294 135.708 182.014 134.967 180.434 135.88Z" fill="#152D45"/>
<path d="M180.101 138.791C180.009 138.791 179.924 138.769 179.847 138.725C179.669 138.622 179.571 138.418 179.571 138.152C179.571 137.664 179.902 137.091 180.325 136.847C180.554 136.715 180.779 136.697 180.958 136.799C181.136 136.903 181.234 137.106 181.234 137.372C181.234 137.86 180.903 138.433 180.48 138.677C180.35 138.752 180.221 138.791 180.101 138.791Z" fill="white"/>
<path d="M181.565 138.981C181.284 138.818 180.926 138.845 180.558 139.058L180.142 139.297C179.42 139.715 178.855 140.695 178.855 141.528V141.822C179.263 142.049 179.819 142.011 180.435 141.656C181.05 141.302 181.608 140.696 182.016 140.001V139.93C182.015 139.491 181.851 139.146 181.565 138.981Z" fill="white"/>
<path d="M186.981 133.661L206.578 122.346C207.371 121.888 208.015 122.235 208.015 123.122C208.015 124.009 207.371 125.1 206.578 125.558L186.981 136.873C186.188 137.331 185.544 136.984 185.544 136.097C185.544 135.21 186.187 134.119 186.981 133.661Z" fill="#E0E0E0"/>
<path d="M216.893 116.417L229.049 109.33C229.842 108.872 230.486 109.22 230.486 110.107C230.486 110.994 229.843 112.084 229.05 112.542L216.894 119.629C216.1 120.087 215.457 119.74 215.457 118.853C215.457 117.966 216.099 116.875 216.893 116.417Z" fill="#E0E0E0"/>
<path d="M239.389 103.491L247.774 98.6202C248.568 98.162 249.212 98.5096 249.212 99.3966C249.212 100.284 248.569 101.374 247.775 101.832L239.39 106.703C238.596 107.162 237.952 106.814 237.952 105.927C237.952 105.039 238.595 103.949 239.389 103.491Z" fill="#E0E0E0"/>
<path d="M211.761 123.523C211.57 123.523 211.415 123.368 211.415 123.177V118.853C211.415 118.662 211.57 118.507 211.761 118.507C211.952 118.507 212.107 118.662 212.107 118.853V123.177C212.107 123.368 211.952 123.523 211.761 123.523Z" fill="#263238"/>
<path d="M234.232 110.549C234.041 110.549 233.886 110.394 233.886 110.203V105.879C233.886 105.688 234.041 105.533 234.232 105.533C234.423 105.533 234.578 105.688 234.578 105.879V110.203C234.578 110.394 234.423 110.549 234.232 110.549Z" fill="#263238"/>
<path d="M252.958 99.7377C252.767 99.7377 252.612 99.5828 252.612 99.392V95.0678C252.612 94.8769 252.767 94.722 252.958 94.722C253.149 94.722 253.304 94.8769 253.304 95.0678V99.392C253.304 99.5828 253.149 99.7377 252.958 99.7377Z" fill="#263238"/>
<path d="M260.161 93.068V92.2733C260.161 91.366 259.61 90.9493 258.93 91.3421C258.249 91.7348 257.698 92.7887 257.698 93.6959V94.4068C257.698 94.854 257.543 95.362 257.283 95.7944L257.281 95.7972C257.219 95.9087 257.181 96.0396 257.181 96.1604C257.181 96.3891 257.32 96.4942 257.491 96.3946L260.369 94.7332C260.54 94.6345 260.68 94.369 260.68 94.1403C260.68 94.026 260.645 93.943 260.588 93.9006C260.587 93.8997 260.586 93.8988 260.584 93.8978C260.329 93.7826 260.161 93.4959 260.161 93.068Z" fill="#152D45"/>
<path d="M259.521 95.4689C259.521 95.9041 259.256 96.4102 258.929 96.5992C258.602 96.7873 258.337 96.5873 258.337 96.1521L259.521 95.4689Z" fill="#152D45"/>
<path d="M265.425 89.5828C265.322 89.5828 265.226 89.5579 265.138 89.5081C264.937 89.392 264.828 89.1624 264.828 88.8618C264.828 88.3114 265.201 87.6641 265.678 87.3894C265.937 87.2391 266.19 87.2206 266.392 87.3359C266.593 87.4521 266.704 87.6816 266.704 87.9822C266.704 88.5327 266.331 89.1799 265.854 89.4547C265.706 89.5395 265.561 89.5828 265.425 89.5828Z" fill="#152D45"/>
<path d="M267.078 89.7977C266.761 89.6142 266.357 89.6446 265.942 89.8852L265.472 90.1545C264.658 90.6256 264.019 91.732 264.019 92.6724V93.0044C264.479 93.2598 265.107 93.2164 265.802 92.8154C266.497 92.4161 267.125 91.7329 267.585 90.9474V90.8672C267.585 90.373 267.402 89.9839 267.078 89.7977Z" fill="#152D45"/>
<path d="M267.709 87.4484C267.606 87.4484 267.51 87.4235 267.422 87.3737C267.221 87.2576 267.112 87.028 267.112 86.7274C267.112 86.177 267.485 85.5297 267.962 85.255C268.221 85.1047 268.474 85.0862 268.676 85.2015C268.877 85.3177 268.988 85.5472 268.988 85.8478C268.988 86.3982 268.614 87.0455 268.138 87.3202C267.99 87.4051 267.845 87.4484 267.709 87.4484Z" fill="#152D45"/>
<path d="M269.364 87.6642C269.041 87.4798 268.645 87.5075 268.221 87.7472L267.76 88.0238C267.253 88.3096 266.819 88.8444 266.57 89.4252C266.939 89.25 267.299 89.2408 267.575 89.4068C267.898 89.5912 268.082 89.9784 268.082 90.4763V90.5501V90.6791C268.783 90.2827 269.41 89.6004 269.871 88.8167V88.7337C269.871 88.2358 269.687 87.8486 269.364 87.6642Z" fill="#152D45"/>
<path d="M275.057 81.7624C273.762 82.5102 272.713 84.3339 272.713 85.8368C272.713 86.4822 272.915 86.9505 273.238 87.2299L272.944 88.6203C272.906 88.7982 273.025 88.8711 273.138 88.7401L274.192 87.5065C274.461 87.4751 274.751 87.3802 275.057 87.2041C276.352 86.4563 277.402 84.6326 277.402 83.1298C277.402 81.6269 276.352 81.0156 275.057 81.7624Z" fill="#152D45"/>
<path d="M286.333 75.1978C286.538 75.0789 286.732 75.0107 286.913 74.9941C287.096 74.9765 287.254 75.007 287.388 75.0853C287.522 75.1637 287.627 75.2863 287.704 75.4541C287.781 75.6219 287.82 75.8322 287.82 76.0866C287.82 76.2895 287.798 76.4803 287.754 76.6592C287.71 76.8371 287.654 77.0077 287.587 77.1709C287.519 77.335 287.445 77.489 287.364 77.6347C287.284 77.7803 287.206 77.9232 287.13 78.0625C287.054 78.2017 286.986 78.3418 286.927 78.4811C286.866 78.6203 286.824 78.7586 286.803 78.896C286.792 78.9642 286.774 79.0287 286.75 79.0877C286.726 79.1467 286.694 79.1873 286.654 79.2104L285.982 79.5985C285.941 79.6225 285.906 79.6197 285.877 79.5921C285.848 79.5635 285.833 79.5183 285.833 79.4565C285.833 79.2703 285.858 79.0887 285.907 78.9135C285.956 78.7374 286.018 78.5687 286.091 78.4045C286.165 78.2404 286.245 78.0828 286.332 77.9315C286.417 77.7794 286.498 77.6365 286.57 77.5C286.644 77.3645 286.706 77.2345 286.756 77.1091C286.805 76.9837 286.829 76.8657 286.829 76.7523C286.829 76.5882 286.789 76.4831 286.708 76.4361C286.628 76.389 286.503 76.4149 286.333 76.5126C286.168 76.6085 286.05 76.7145 285.978 76.8325C285.907 76.9496 285.854 77.0639 285.822 77.1727C285.789 77.2825 285.76 77.382 285.736 77.4724C285.712 77.5627 285.665 77.6273 285.596 77.6679L284.923 78.056C284.891 78.0754 284.862 78.0745 284.838 78.0542C284.814 78.0339 284.802 77.9961 284.802 77.9389C284.806 77.7388 284.843 77.5102 284.912 77.252C284.983 76.9939 285.081 76.7357 285.211 76.4766C285.343 76.2175 285.502 75.9741 285.688 75.7482C285.876 75.5205 286.09 75.338 286.333 75.1978ZM286.812 80.7123C286.812 80.7741 286.797 80.8368 286.768 80.8985C286.739 80.9603 286.703 81.0037 286.664 81.0267L285.969 81.4278C285.929 81.4508 285.894 81.4481 285.865 81.4204C285.836 81.3927 285.821 81.3476 285.821 81.2849V80.4283C285.821 80.3665 285.836 80.3039 285.865 80.2412C285.894 80.1794 285.929 80.137 285.969 80.113L286.664 79.7119C286.703 79.6889 286.739 79.6907 286.768 79.7193C286.798 79.7479 286.812 79.7931 286.812 79.8548V80.7123Z" fill="#152D45"/>
<path d="M121.881 186.029V224.653C121.881 225.926 122.774 226.442 123.877 225.806L261.274 146.461C262.377 145.825 263.271 144.277 263.271 143.004V104.378C263.271 103.105 262.377 102.589 261.274 103.226L123.878 182.571C122.775 183.207 121.881 184.755 121.881 186.029Z" fill="#152D45"/>
<path opacity="0.7" d="M121.881 186.029V224.653C121.881 225.926 122.774 226.442 123.877 225.806L261.274 146.461C262.377 145.825 263.271 144.277 263.271 143.004V104.378C263.271 103.105 262.377 102.589 261.274 103.226L123.878 182.571C122.775 183.207 121.881 184.755 121.881 186.029Z" fill="white"/>
<path d="M133.115 191.653C128.979 194.043 125.624 199.85 125.624 204.628C125.625 209.405 128.979 211.341 133.116 208.953C137.253 206.564 140.61 200.756 140.606 195.978C140.602 191.201 137.248 189.265 133.115 191.653Z" fill="#152D45"/>
<path d="M132.241 199.272C132.001 199.272 131.778 199.215 131.576 199.099C131.11 198.83 130.854 198.298 130.854 197.601C130.854 196.325 131.72 194.824 132.826 194.185C133.427 193.836 134.015 193.791 134.484 194.06C134.949 194.329 135.206 194.861 135.206 195.559C135.206 196.835 134.34 198.336 133.234 198.975C132.892 199.172 132.554 199.272 132.241 199.272Z" fill="white"/>
<path d="M136.074 199.769C135.339 199.343 134.403 199.415 133.437 199.972L132.349 200.598C130.46 201.692 128.979 204.258 128.979 206.438V207.208C130.046 207.801 131.503 207.699 133.116 206.77C134.724 205.843 136.185 204.258 137.252 202.437V202.251C137.252 201.104 136.825 200.202 136.074 199.769Z" fill="white"/>
<path d="M145.789 190.077L161.654 180.917C162.448 180.459 163.092 180.747 163.092 181.561C163.092 182.374 162.448 183.406 161.654 183.864L145.788 193.027C144.995 193.485 144.351 193.196 144.351 192.381C144.352 191.567 144.996 190.535 145.789 190.077Z" fill="#455A64"/>
<path d="M145.197 196.21L154.524 190.824C154.991 190.555 155.37 190.724 155.37 191.203C155.37 191.681 154.992 192.288 154.525 192.557L145.197 197.945C144.73 198.214 144.351 198.044 144.352 197.566C144.352 197.086 144.73 196.479 145.197 196.21Z" fill="#455A64"/>
<path d="M123.877 225.859L261.274 146.514C262.377 145.878 263.271 144.33 263.271 143.057V136.729L121.881 218.36V224.706C121.881 225.98 122.774 226.496 123.877 225.859Z" fill="#F5F5F5"/>
<path d="M159.332 203.518C159.141 203.518 158.986 203.363 158.986 203.172V198.847C158.986 198.656 159.141 198.501 159.332 198.501C159.523 198.501 159.677 198.656 159.677 198.847V203.172C159.677 203.363 159.523 203.518 159.332 203.518Z" fill="#EBEBEB"/>
<path d="M142.576 209.213L154.732 202.127C155.526 201.668 156.169 202.016 156.169 202.903C156.169 203.79 155.527 204.881 154.732 205.339L142.576 212.425C141.782 212.884 141.139 212.536 141.139 211.649C141.14 210.762 141.782 209.671 142.576 209.213Z" fill="#E0E0E0"/>
<path d="M181.284 190.762C181.093 190.762 180.938 190.607 180.938 190.416V186.092C180.938 185.901 181.093 185.746 181.284 185.746C181.474 185.746 181.629 185.901 181.629 186.092V190.416C181.629 190.607 181.474 190.762 181.284 190.762Z" fill="#EBEBEB"/>
<path d="M164.528 196.457L176.684 189.371C177.478 188.913 178.121 189.26 178.121 190.147C178.121 191.034 177.478 192.125 176.684 192.583L164.528 199.67C163.734 200.128 163.091 199.78 163.091 198.893C163.092 198.006 163.734 196.916 164.528 196.457Z" fill="#E0E0E0"/>
<path d="M203.236 178.005C203.045 178.005 202.89 177.85 202.89 177.66V173.335C202.89 173.145 203.045 172.99 203.236 172.99C203.426 172.99 203.581 173.145 203.581 173.335V177.66C203.581 177.85 203.426 178.005 203.236 178.005Z" fill="#EBEBEB"/>
<path d="M186.48 183.701L198.636 176.614C199.429 176.156 200.073 176.503 200.073 177.39C200.073 178.277 199.429 179.368 198.636 179.826L186.48 186.913C185.686 187.371 185.043 187.023 185.043 186.136C185.043 185.25 185.686 184.16 186.48 183.701Z" fill="#E0E0E0"/>
<path d="M225.187 165.249C224.997 165.249 224.842 165.095 224.842 164.904V160.58C224.842 160.389 224.997 160.234 225.187 160.234C225.378 160.234 225.533 160.389 225.533 160.58V164.904C225.533 165.095 225.378 165.249 225.187 165.249Z" fill="#EBEBEB"/>
<path d="M208.432 170.945L220.587 163.858C221.381 163.4 222.025 163.748 222.025 164.634C222.025 165.521 221.381 166.612 220.588 167.07L208.433 174.157C207.639 174.615 206.995 174.268 206.995 173.381C206.994 172.494 207.638 171.403 208.432 170.945Z" fill="#E0E0E0"/>
<path d="M230.384 158.189L242.539 151.102C243.333 150.644 243.977 150.992 243.977 151.879C243.977 152.766 243.334 153.856 242.54 154.315L230.385 161.401C229.591 161.859 228.947 161.512 228.947 160.625C228.946 159.738 229.59 158.647 230.384 158.189Z" fill="#E0E0E0"/>
<path d="M117.054 355.278L129.312 348.217C129.312 348.217 136.917 325.832 134.991 305.216C132.598 279.595 120.502 270.592 113.391 273.45C106.281 276.308 107.753 286.516 115.284 300.204C121.257 311.058 121.271 336.065 117.054 355.278Z" fill="#152D45"/>
<path opacity="0.1" d="M117.054 355.278L129.312 348.217C129.312 348.217 136.917 325.832 134.991 305.216C132.598 279.595 120.502 270.592 113.391 273.45C106.281 276.308 107.753 286.516 115.284 300.204C121.257 311.058 121.271 336.065 117.054 355.278Z" fill="black"/>
<path d="M122.945 352.469C123.178 352.469 123.397 352.32 123.473 352.085C131.366 327.92 131.695 293.982 116.76 278.682C116.546 278.462 116.195 278.457 115.975 278.673C115.755 278.887 115.751 279.239 115.965 279.459C130.064 293.902 130.316 327.552 122.416 351.74C122.321 352.032 122.48 352.346 122.772 352.441C122.83 352.46 122.889 352.469 122.945 352.469Z" fill="white"/>
<path d="M95.037 367.988C93.7683 368.716 91.1526 367.123 90.1504 366.451C88.4354 365.3 87.046 363.67 86.1221 361.827C85.048 359.682 84.7769 357.383 85.1135 355.011C85.2877 353.78 85.6326 352.581 85.9755 351.387C86.313 350.214 86.6495 349.041 86.987 347.868C87.3198 346.711 87.6554 345.514 87.5033 344.319C87.1954 341.913 85.0591 340.228 83.1173 338.774C80.97 337.166 78.7342 335.043 78.7461 332.146C78.7554 329.911 79.9134 327.835 81.2982 326.081C82.6831 324.327 84.327 322.777 85.5791 320.926C86.4799 319.592 87.1834 318.027 87.0368 316.424C86.9455 315.429 86.5334 314.491 86.0567 313.612C85.0342 311.726 83.6844 309.998 82.979 307.971C82.2737 305.945 82.3742 303.425 83.9554 301.975C85.2536 300.784 87.1824 300.618 88.9398 300.735C90.5653 300.843 92.1539 301.575 93.5756 302.367C98.1745 304.924 100.799 310.37 105.68 312.339C107.562 313.098 109.625 313.265 111.587 313.783C113.549 314.302 115.55 315.304 116.459 317.119C118.25 320.697 114.925 325.107 116.185 328.904C117.3 332.266 120.565 333.552 122.4 336.581C123.202 337.906 123.388 339.437 123.258 340.981C123.039 343.594 122.656 345.511 121.403 348.417C120.367 350.818 117.323 355.115 117.323 355.115C117.246 355.19 95.2315 367.877 95.037 367.988Z" fill="#152D45"/>
<path d="M108.184 360.887C108.43 360.887 108.644 360.703 108.675 360.453C111.045 341.678 102.083 316.353 88.6983 303.999C88.4973 303.815 88.1838 303.825 87.9975 304.028C87.8122 304.229 87.8242 304.543 88.0261 304.729C101.203 316.891 110.025 341.833 107.691 360.329C107.657 360.6 107.849 360.848 108.121 360.882C108.142 360.886 108.164 360.887 108.184 360.887Z" fill="white"/>
<path d="M105.894 336.862C106.046 336.862 106.195 336.794 106.292 336.663C106.457 336.444 106.412 336.133 106.193 335.97C98.807 330.429 87.5199 331.394 87.0432 331.437C86.7703 331.463 86.5702 331.704 86.5951 331.977C86.62 332.25 86.8689 332.445 87.1345 332.425C87.2479 332.413 98.5203 331.452 105.598 336.762C105.686 336.829 105.791 336.862 105.894 336.862Z" fill="white"/>
<path d="M104.782 332.258C105.047 332.258 105.267 332.048 105.277 331.781C105.612 323.181 112.11 317.984 112.175 317.933C112.391 317.764 112.428 317.452 112.259 317.237C112.089 317.022 111.779 316.984 111.563 317.152C111.281 317.373 104.639 322.671 104.286 331.742C104.275 332.016 104.488 332.247 104.761 332.257C104.769 332.257 104.775 332.258 104.782 332.258Z" fill="white"/>
<path d="M226.747 352.37C210.181 342.806 198.872 326.217 196.023 307.301L189.487 263.905C186.969 247.19 177.824 232.193 164.117 222.301L155.587 216.146L155.587 221.012L160.212 224.349C173.891 234.218 183.029 249.17 185.571 265.845L192.233 309.542C195.111 328.413 206.408 344.954 222.94 354.498L226.747 356.696L226.747 352.37Z" fill="#EBEBEB"/>
<path d="M226.747 351.838C210.336 342.273 199.31 326.03 196.478 307.234L189.942 263.838C187.421 247.107 178.107 231.831 164.386 221.929L156.433 216.189L260.424 156.15L268.711 162.131C282.232 171.889 291.412 186.942 293.895 203.431L300.432 246.826C303.278 265.726 314.29 282.083 330.694 291.825L226.747 351.838Z" fill="#FAFAFA"/>
<path d="M260.397 156.699L268.443 162.506C281.865 172.191 290.976 187.133 293.44 203.5L299.976 246.895C302.805 265.674 313.637 281.959 329.787 291.816L226.748 351.306C210.585 341.792 199.73 325.734 196.934 307.165L190.398 263.769C187.858 246.915 178.476 231.529 164.655 221.554L157.28 216.233L260.397 156.699ZM260.453 155.602L155.587 216.146L164.117 222.301C177.824 232.193 186.969 247.19 189.487 263.905L196.023 307.301C198.872 326.217 210.18 342.806 226.747 352.37L331.612 291.826C315.046 282.262 303.737 265.673 300.888 246.757L294.352 203.361C291.834 186.646 282.69 171.649 268.982 161.757L260.453 155.602Z" fill="#E0E0E0"/>
<path d="M226.747 352.37L331.613 291.827L331.612 296.151L226.747 356.695V352.37Z" fill="#F5F5F5"/>
<path d="M175.186 212.889C171.53 214.446 171.138 217.644 174.314 220.034C177.491 222.424 183.031 223.101 186.688 221.544C190.346 219.989 190.741 216.789 187.559 214.4C184.379 212.011 178.838 211.335 175.186 212.889Z" fill="#152D45"/>
<path d="M179.143 216.777C178.839 216.799 178.519 216.789 178.185 216.749C177.416 216.655 176.737 216.411 176.273 216.062C175.424 215.423 175.525 214.597 176.503 214.181L176.502 214.18C177.033 213.953 177.75 213.881 178.522 213.974C179.291 214.068 179.971 214.312 180.434 214.661C181.283 215.3 181.181 216.126 180.205 216.541C179.902 216.671 179.54 216.751 179.143 216.777Z" fill="white"/>
<path d="M184.334 216.693C183.118 216.543 181.98 216.661 181.126 217.024L180.162 217.431C178.495 218.143 178.322 219.555 179.772 220.647L180.284 221.032C182.031 221.236 184.055 221.179 185.499 220.618C187.078 220.006 188.05 219.305 188.192 218.301L187.477 217.831C186.714 217.258 185.574 216.843 184.334 216.693Z" fill="white"/>
<path d="M192.206 206.086L223.001 188.306C224.104 187.67 225.861 187.721 226.864 188.505C226.957 188.578 227.051 188.653 227.146 188.727C228.142 189.519 228.03 190.712 226.928 191.35L196.161 209.172C195.059 209.81 193.398 209.638 192.402 208.845C192.294 208.76 192.185 208.674 192.077 208.589C191.073 207.809 191.103 206.723 192.206 206.086Z" fill="#455A64"/>
<path d="M198.977 213.259L214.389 204.361C214.94 204.043 215.014 203.429 214.553 202.989L214.273 202.722C213.813 202.282 212.994 202.186 212.444 202.508L197.115 211.472C196.566 211.794 196.493 212.411 196.952 212.852L197.146 213.038C197.607 213.478 198.425 213.577 198.977 213.259Z" fill="#455A64"/>
<path opacity="0.2" d="M188.901 230.158L272.019 182.168C273.121 181.532 274.631 181.845 275.35 182.895C275.407 182.978 275.463 183.061 275.519 183.144C276.234 184.198 275.883 185.593 274.78 186.23L191.643 234.255C190.541 234.892 189.11 234.527 188.404 233.467C188.345 233.377 188.285 233.288 188.225 233.199C187.514 232.144 187.798 230.795 188.901 230.158Z" fill="black"/>
<path opacity="0.2" d="M193.943 238.351L277.127 190.323C278.23 189.686 279.608 190.08 280.156 191.23C280.199 191.32 280.242 191.41 280.284 191.501C280.826 192.652 280.338 194.118 279.236 194.755L196.037 242.828C194.936 243.465 193.647 243.026 193.109 241.872C193.062 241.772 193.015 241.671 192.967 241.571C192.423 240.42 192.84 238.988 193.943 238.351Z" fill="black"/>
<path opacity="0.2" d="M197.687 247.245L280.939 199.185C282.042 198.549 283.278 199.007 283.639 200.228C283.679 200.362 283.719 200.498 283.759 200.635C284.113 201.858 283.478 203.373 282.375 204.01L199.103 252.109C198 252.747 196.863 252.26 196.514 251.035C196.472 250.888 196.429 250.74 196.387 250.594C196.029 249.373 196.585 247.881 197.687 247.245Z" fill="black"/>
<path opacity="0.2" d="M200.095 256.946L248.485 229.004C249.587 228.368 250.637 228.871 250.83 230.13L250.929 230.775C251.122 232.034 250.385 233.57 249.283 234.207L200.887 262.18C199.785 262.818 198.738 262.314 198.548 261.056C198.514 260.83 198.48 260.605 198.446 260.379C198.256 259.118 198.992 257.582 200.095 256.946Z" fill="black"/>
<path d="M300.151 283.242L220.96 328.973C218.756 330.246 215.668 329.669 214.276 327.537C209.267 319.866 205.923 310.308 204.244 298.869L201.077 277.852C200.698 275.334 202.178 272.261 204.383 270.988L283.711 225.183C285.916 223.91 288.012 224.92 288.391 227.437L291.558 248.464C292.826 259.315 296.132 268.888 301.491 277.167C302.876 279.305 302.356 281.97 300.151 283.242Z" fill="#152D45"/>
<path opacity="0.7" d="M300.151 283.242L220.96 328.973C218.756 330.246 215.668 329.669 214.276 327.537C209.267 319.866 205.923 310.308 204.244 298.869L201.077 277.852C200.698 275.334 202.178 272.261 204.383 270.988L283.711 225.183C285.916 223.91 288.012 224.92 288.391 227.437L291.558 248.464C292.826 259.315 296.132 268.888 301.491 277.167C302.876 279.305 302.356 281.97 300.151 283.242Z" fill="white"/>
<path d="M220.96 328.974L300.151 283.243C302.355 281.97 302.875 279.306 301.491 277.168C298.917 273.194 296.831 268.912 295.202 264.342L270.637 257.406L259.728 281.609L271.573 291.138L230.235 269.38L209.088 317.443C210.555 321.104 212.277 324.479 214.276 327.54C215.668 329.67 218.756 330.246 220.96 328.974Z" fill="#152D45"/>
<path d="M254.169 252.273C257.081 250.591 259.858 251.985 260.371 255.386C260.884 258.787 258.937 262.909 256.024 264.59C253.11 266.272 250.334 264.878 249.821 261.477C249.309 258.075 251.255 253.954 254.169 252.273Z" fill="#152D45"/>
<path d="M278.217 310.34C277.964 310.358 277.695 310.35 277.417 310.316C276.774 310.238 276.207 310.034 275.82 309.743C275.111 309.209 275.195 308.518 276.012 308.171H276.011C276.454 307.981 277.053 307.92 277.699 307.998C278.342 308.077 278.909 308.28 279.296 308.573C280.005 309.107 279.921 309.797 279.104 310.144C278.852 310.252 278.55 310.318 278.217 310.34Z" fill="#152D45"/>
<path d="M282.556 310.269C281.54 310.145 280.589 310.242 279.875 310.546L279.07 310.887C277.676 311.482 277.532 312.662 278.744 313.574L279.171 313.895C280.631 314.066 282.322 314.018 283.529 313.55C284.849 313.038 285.66 312.452 285.779 311.613L285.181 311.221C284.544 310.741 283.591 310.396 282.556 310.269Z" fill="#152D45"/>
<path d="M284.073 306.797L281.11 306.943L280.302 307.64C280.166 307.757 280.172 307.968 280.312 308.078L281.119 308.711L284.131 308.592L284.073 306.797ZM280.909 308.05C280.789 308.05 280.692 307.953 280.692 307.833C280.692 307.713 280.789 307.617 280.909 307.617C281.028 307.617 281.125 307.713 281.125 307.833C281.125 307.953 281.028 308.05 280.909 308.05Z" fill="#152D45"/>
<path d="M299.447 301.545C299.411 301.994 298.868 302.374 298.548 302.56C297.977 302.892 297.248 303.124 296.461 303.232C295.74 302.412 297.084 300.936 299.447 301.545Z" fill="#152D45"/>
<path d="M299.562 298.636C297.386 296.841 293.975 296.175 291.571 297.55C289.168 298.926 288.707 301.825 290.908 303.629C293.109 305.433 297.053 305.461 299.431 304.077C301.809 302.693 301.738 300.431 299.562 298.636ZM295.913 298.254C296.296 298.041 296.834 298.14 297.147 298.445C297.459 298.751 297.421 299.158 297.039 299.378C296.657 299.599 296.069 299.55 295.756 299.236C295.443 298.922 295.53 298.467 295.913 298.254ZM291.542 301.605C291.229 301.292 291.317 300.836 291.7 300.623C292.082 300.41 292.621 300.51 292.933 300.815C293.246 301.12 293.207 301.528 292.825 301.748C292.443 301.968 291.854 301.919 291.542 301.605ZM298.777 302.953C297.901 303.463 296.689 303.755 295.453 303.755C294.37 303.755 293.355 303.537 292.546 303.14L298.735 299.639C299.525 300.29 299.95 300.998 299.902 301.583C299.85 302.204 299.262 302.671 298.777 302.953Z" fill="#152D45"/>
<path d="M312.563 290.537C312.372 290.221 312.101 289.911 311.746 289.618C310.224 288.363 307.84 287.898 306.16 288.859C304.48 289.821 304.158 291.848 305.696 293.108C305.883 293.254 306.093 293.387 306.313 293.515C306.321 293.519 306.33 293.524 306.339 293.528C309.09 295.102 314.134 295.301 314.134 295.301C314.134 295.301 314.152 292.691 312.563 290.537ZM310.165 292.275C309.371 292.738 308.051 292.729 307.315 292.126C306.58 291.523 306.734 290.553 307.538 290.094C308.342 289.634 309.481 289.857 310.21 290.457C310.937 291.057 310.96 291.813 310.165 292.275Z" fill="#152D45"/>
<path d="M412.734 300.269L400.875 334.87C400.531 335.876 399.106 335.871 398.768 334.863L387.063 299.987L412.734 300.269Z" fill="#FFA8A7"/>
<path d="M398.768 334.863C399.106 335.872 400.531 335.876 400.875 334.87L403.191 328.114C401.156 329.206 398.682 329.069 396.781 327.758L396.264 327.403L398.768 334.863Z" fill="#263238"/>
<path d="M387.511 145.692L387.504 149.078L387.477 153.163L387.059 299.983C389.772 303.086 393.792 304.66 397.869 305.07C404.077 305.715 410.442 303.681 412.717 300.266L413.13 153.535L413.151 145.725C412.858 150.781 387.285 150.767 387.511 145.692Z" fill="#152D45"/>
<path d="M387.434 158.581L387.425 166.141C387.35 168.333 392.019 169.748 397.408 170.244C404.564 170.922 412.99 168.983 413.095 166.078L413.11 160.506L413.081 158.513C412.977 161.418 404.55 163.362 397.393 162.684C392.23 162.202 387.711 160.861 387.453 158.817L387.452 158.795C387.428 158.727 387.425 158.66 387.434 158.581Z" fill="#EBEBEB"/>
<path d="M387.448 160.467C387.264 165.556 412.917 165.492 413.101 160.402L413.133 152.835C412.949 157.924 387.299 157.988 387.483 152.898L387.448 160.467Z" fill="#152D45"/>
<path d="M387.511 145.692L387.477 153.163C387.259 158.158 412.013 158.305 413.131 153.535C413.161 153.455 413.168 153.354 413.176 153.251L413.151 145.726C412.858 150.781 387.285 150.767 387.511 145.692Z" fill="#EBEBEB"/>
<path d="M413.273 113.68C413.273 113.627 413.273 113.417 413.273 113.363C413.273 109.717 407.53 106.762 400.448 106.762C393.365 106.762 387.623 109.717 387.623 113.363V116.8L387.511 145.692C387.412 147.862 392.025 149.291 397.37 149.811C404.527 150.51 412.99 148.621 413.152 145.726C413.163 145.714 413.163 145.714 413.162 145.692L413.274 113.888C413.274 113.841 413.273 113.704 413.273 113.68Z" fill="#F28F8F"/>
<path opacity="0.2" d="M400.448 119.965C407.53 119.965 413.272 117.009 413.272 113.364C413.272 109.718 407.53 106.763 400.448 106.763C393.365 106.763 387.623 109.718 387.623 113.364C387.623 117.009 393.365 119.965 400.448 119.965Z" fill="white"/>
<path opacity="0.1" d="M413.131 153.535L413.272 113.68C413.098 116.803 407.782 119.754 401.975 119.964L401.561 305.189L400.875 334.869L412.733 300.268H412.716L412.717 300.267L413.131 153.535Z" fill="black"/>
<path d="M371.65 184.401C376.523 183.693 382.54 187.361 386.725 193.245C390.911 199.128 405.498 213.445 407.095 218.001C408.26 221.325 407.576 227.56 400.709 224.635C394.058 221.801 372.869 201.008 372.869 201.008L371.65 184.401Z" fill="#D99496"/>
<path d="M369.317 184.401C369.317 184.401 372.407 183.756 374.091 183.868C375.776 183.982 379.567 184.982 383.466 188.78C387.365 192.578 397.489 204.854 397.489 204.854C397.489 204.854 397.942 208.297 394.549 212.142C391.156 215.986 387.989 215.986 387.989 215.986L372.949 203.535L369.317 184.401Z" fill="#37474F"/>
<path d="M402.356 211.245L413.012 195.719L413.044 184.314C413.044 184.314 415.405 185.104 416.344 188.78C417.281 192.456 418.454 196.734 417.986 199.872C417.516 203.009 410.111 221.952 406.127 224.634C402.128 227.324 402.356 211.245 402.356 211.245Z" fill="#D99496"/>
<path d="M354.228 179.251L356.308 192.375L369.317 191.68L367.451 176.428L354.228 179.251Z" fill="#D99496"/>
<path d="M345.477 163.149C345.477 163.149 342.376 167.855 342.729 168.317C343.083 168.779 345.365 169.197 345.365 169.197L345.477 163.149Z" fill="#D99496"/>
<path d="M354.088 150.131C347.813 151.455 346.001 154.214 345.41 164.183C344.792 174.599 345.855 177.873 347.223 179.277C348.147 180.223 353.281 180.394 355.871 179.681C359.112 178.787 366.437 176.191 369.868 170.951C373.902 164.787 374.963 156.431 370.643 153.004C364.563 148.18 356.642 149.593 354.088 150.131Z" fill="#D99496"/>
<path d="M354.342 179.971C354.342 179.971 356.098 179.661 357.647 179.137C357.647 179.137 356.739 180.367 354.497 180.953L354.342 179.971Z" fill="#9A4A4D"/>
<path d="M345.012 153.293C345.828 153.777 346.761 154.126 347.743 154.41C349.274 154.852 349.042 155.428 349.257 156.827C349.448 158.073 350.045 159.287 350.982 160.139C351.577 160.678 352.022 160.728 352.221 161.558C352.422 162.391 352.248 163.321 352.257 164.167C352.277 165.896 353.38 167.212 353.919 164.894C353.919 164.894 354.911 161.043 358.156 161.527C361.423 162.015 361.688 165.669 360.14 168.539C359.198 170.285 356.677 169.828 356.677 169.828C356.677 169.828 356.105 174.627 360.066 178.559C360.066 178.559 363.297 180.954 368.324 178.468C371.257 174.644 372.411 172.622 374.092 169.699C376.345 165.784 378.284 160.977 377.518 156.371C377.237 154.678 376.537 153.047 375.336 151.801C374.463 150.897 374.528 150.724 374.29 149.496C374.09 148.471 373.537 147.508 372.722 146.85C371.463 145.834 369.63 145.585 368.146 146.23C368.143 144.624 366.785 143.24 365.234 142.824C363.683 142.407 362.015 142.792 360.557 143.468C359.721 141.964 358.089 140.935 356.372 140.827C354.656 140.719 352.907 141.537 351.89 142.926C351.461 142.17 350.584 141.749 349.718 141.671C348.852 141.594 347.987 141.812 347.159 142.078C346.472 142.298 345.791 142.554 345.17 142.921C342.881 144.276 341.666 147.223 342.337 149.797C342.773 151.468 343.751 152.544 345.012 153.293Z" fill="#263238"/>
<path d="M374.394 152.254L378.149 150.04C377.538 149.003 376.202 148.658 375.165 149.269C374.128 149.881 373.783 151.217 374.394 152.254Z" fill="#263238"/>
<path d="M377.899 347.154C377.927 347.435 377.954 347.716 377.982 347.997C378.091 349.109 378.201 350.232 378.067 351.342C377.975 352.113 377.752 353.156 377.036 353.579C376.305 354.011 375.411 354.339 374.585 354.538C372.709 354.99 370.649 354.828 368.905 353.981C367.431 353.265 366.276 352.144 364.677 351.696C363.041 351.239 361.345 351.061 359.663 350.869C358.915 350.784 358.162 350.695 357.445 350.463C356.89 350.282 356.366 350.017 355.849 349.745C354.11 348.828 352.392 347.782 351.112 346.288C350.287 345.325 349.663 344.159 349.419 342.909C349.274 342.168 348.973 340.038 350.205 340.093C356.241 340.364 362.219 341.658 368.261 341.587C368.652 341.582 369.047 341.572 369.434 341.635C370.186 341.757 370.851 342.146 371.462 342.583C372.174 343.093 372.432 343.11 373.314 343.036C374.37 342.948 375.403 342.811 376.447 343.082C376.884 343.196 377.356 343.395 377.527 343.812C377.586 343.957 377.601 344.115 377.617 344.27C377.71 345.231 377.805 346.192 377.899 347.154Z" fill="#263238"/>
<path d="M377.28 339.922L376.969 344.473C376.675 346.205 370.771 347.265 369.555 344.2L368.977 339.04L377.28 339.922Z" fill="#D99496"/>
<path d="M354.814 357.919C354.814 357.919 355.537 360.287 355.908 362.351C356.203 363.992 356.618 366.734 356.017 367.95C355.417 369.166 353.168 369.909 349.709 369.805C347.469 369.737 343.942 371.18 341.521 372.461C339.02 373.783 333.872 374.216 331.266 373.851C328.196 373.421 325.046 371.564 324.578 370.278C324.11 368.991 324.8 367.683 332.125 364.755C332.192 364.728 342.284 361.696 345.882 357.901L354.814 357.919Z" fill="#263238"/>
<path d="M354.88 354.997C354.88 354.997 354.824 357.003 354.809 358.149C354.793 359.295 353.401 360.972 349.9 360.768C347.441 360.624 345.738 359.924 345.881 357.9L345.946 354.979L354.88 354.997Z" fill="#D99496"/>
<path d="M379.662 304.976C378.624 296.117 377.847 291.042 377.847 291.042C377.847 291.042 378.026 278.707 378.748 267.204C379.528 254.779 379.354 239.135 379.66 236.039C379.66 236.039 339.744 227.513 339.42 241.906C339.044 258.632 340.158 293.235 340.394 297.74C340.726 304.067 340.74 310.644 341.814 320.91C342.874 331.042 345.946 354.98 345.946 354.98C350.474 357.561 354.879 354.998 354.879 354.998C354.879 354.998 358.351 326.317 358.218 319.023C358.057 310.117 356.703 303.255 356.703 303.255L359.848 270.789C359.848 270.789 361.082 280.827 361.414 287.153C361.746 293.479 362.614 297.34 364.177 309.111C365.533 319.323 368.976 340.878 368.976 340.878C373.504 343.459 377.464 340.538 377.464 340.538C377.464 340.538 380.7 313.834 379.662 304.976Z" fill="#152D45"/>
<path opacity="0.3" d="M379.662 304.976C378.624 296.117 377.847 291.042 377.847 291.042C377.847 291.042 378.026 278.707 378.748 267.204C379.528 254.779 379.354 239.135 379.66 236.039C379.66 236.039 339.744 227.513 339.42 241.906C339.044 258.632 340.158 293.235 340.394 297.74C340.726 304.067 340.74 310.644 341.814 320.91C342.874 331.042 345.946 354.98 345.946 354.98C350.474 357.561 354.879 354.998 354.879 354.998C354.879 354.998 358.351 326.317 358.218 319.023C358.057 310.117 356.703 303.255 356.703 303.255L359.848 270.789C359.848 270.789 361.082 280.827 361.414 287.153C361.746 293.479 362.614 297.34 364.177 309.111C365.533 319.323 368.976 340.878 368.976 340.878C373.504 343.459 377.464 340.538 377.464 340.538C377.464 340.538 380.7 313.834 379.662 304.976Z" fill="black"/>
<path opacity="0.15" d="M375.031 255.689C375.031 255.689 372.263 260.252 363.874 263.596L361.539 271.434L361.284 285.207C360.964 280.769 360.473 275.921 359.849 270.788L360.794 262.712C360.794 262.712 370.06 259.905 375.031 255.689Z" fill="black"/>
<path d="M381.197 192.892C379.594 187.187 375.827 184.667 371.65 184.4C370.586 184.333 368.429 184.424 368.429 184.424C368.725 186.841 361.277 188.547 355.484 187.183C353.738 187.641 350.847 188.297 349.393 188.78C345.23 190.162 340.237 195.368 339.589 208.946C339.589 208.946 338.928 238.132 339.134 246.61C349.413 250.948 359.336 251.489 365.327 250.321C377.8 247.888 379.849 242.544 379.849 242.544C379.849 242.544 379.731 235.127 379.266 223.3C381.382 206.481 381.892 195.366 381.197 192.892Z" fill="#455A64"/>
<path d="M332.567 241.263C334.966 242.965 336.019 244.797 336.211 247.756C336.382 250.406 336.38 253.285 337.624 255.688C337.83 256.085 338.914 256.978 339.343 256.854L339.352 253.462C340.042 252.585 341.929 250.949 342.419 249.947C343.236 248.273 342.282 246.223 342.774 244.427C342.989 243.644 343.39 243.031 343.399 242.194C343.421 240.22 342.867 238.346 341.323 237.082C339.514 235.6 337.856 233.758 336.206 232.098C334.069 229.947 331.1 226.786 328.962 224.634L343.32 210.864C344.971 209.28 346.358 207.447 347.413 205.416C349.758 200.901 352.976 192.981 349.394 188.781C344.276 188.781 341.367 189.564 336.143 195.66C331.635 200.919 317.238 218.161 315.388 221.085C313.539 224.009 312.475 226.006 316.025 229.251C318.5 231.515 322.001 233.956 325.08 236.17C327.493 237.905 330.14 239.541 332.567 241.263Z" fill="#D99496"/>
<path d="M328.962 224.634C328.962 224.634 326.996 226.598 324.56 227.65C324.56 227.65 327.898 227.224 329.957 225.644L328.962 224.634Z" fill="#9A4A4D"/>
<path d="M350.995 188.315C350.995 188.315 347.905 188.105 344.798 188.78C341.692 189.455 339.604 191.034 334.214 197.123C328.824 203.211 325.052 208.205 325.052 208.205C325.052 208.205 323.498 211.643 327.825 215.525C332.152 219.408 336.035 218.742 336.035 218.742L348.127 206.983C348.127 206.983 356.748 197.938 350.995 188.315Z" fill="#37474F"/>
</svg>
