<svg width="2154" height="300" viewBox="0 0 2154 300" fill="none" xmlns="http://www.w3.org/2000/svg">
<mask id="path-1-outside-1_773_1999" maskUnits="userSpaceOnUse" x="1" y="63" width="2141" height="163" fill="black">
<rect fill="white" x="1" y="63" width="2141" height="163"/>
<path d="M58.339 222L2.67903 66.9H44.039L76.379 164.14L111.359 66.9H139.959L173.399 166.12L207.279 66.9H246.219L190.119 222H157.779L124.559 128.72L90.679 222H58.339ZM271.284 222V66.9H380.844V98.14H310.004V127.62H375.784V158.86H310.004V190.76H380.844V222H271.284ZM415.22 222V66.9H490.02C506.74 66.9 519.647 70.5667 528.74 77.9C537.98 85.0867 542.6 94.7667 542.6 106.94C542.6 115.007 540.547 122.047 536.44 128.06C532.48 134.073 526.907 138.547 519.72 141.48C528.374 144.12 535.047 148.593 539.74 154.9C544.434 161.06 546.78 168.76 546.78 178C546.78 191.64 541.867 202.42 532.04 210.34C522.36 218.113 509.087 222 492.22 222H415.22ZM453.94 128.5H482.76C490.094 128.5 495.447 127.18 498.82 124.54C502.34 121.9 504.1 117.867 504.1 112.44C504.1 107.013 502.34 103.053 498.82 100.56C495.447 97.92 490.094 96.6 482.76 96.6H453.94V128.5ZM453.94 192.3H486.72C494.2 192.3 499.627 190.907 503 188.12C506.52 185.187 508.28 180.86 508.28 175.14C508.28 169.42 506.52 165.167 503 162.38C499.627 159.593 494.2 158.2 486.72 158.2H453.94V192.3ZM728.562 224.42C711.402 224.42 696.662 221.12 684.342 214.52C672.022 207.92 662.562 198.607 655.962 186.58C649.509 174.553 646.282 160.473 646.282 144.34C646.282 128.207 649.509 114.2 655.962 102.32C662.562 90.2933 672.022 80.98 684.342 74.38C696.662 67.78 711.402 64.48 728.562 64.48C738.829 64.48 748.729 66.0933 758.262 69.32C767.796 72.4 775.496 76.5067 781.362 81.64L769.262 113.54C762.809 108.847 756.356 105.4 749.902 103.2C743.449 100.853 736.849 99.68 730.102 99.68C716.462 99.68 706.196 103.567 699.302 111.34C692.409 118.967 688.962 129.967 688.962 144.34C688.962 158.86 692.409 170.007 699.302 177.78C706.196 185.407 716.462 189.22 730.102 189.22C736.849 189.22 743.449 188.12 749.902 185.92C756.356 183.573 762.809 180.053 769.262 175.36L781.362 207.26C775.496 212.393 767.796 216.573 758.262 219.8C748.729 222.88 738.829 224.42 728.562 224.42ZM879.506 224.42C863.813 224.42 850.026 221.12 838.146 214.52C826.413 207.773 817.246 198.387 810.646 186.36C804.046 174.333 800.746 160.327 800.746 144.34C800.746 128.207 803.973 114.2 810.426 102.32C817.026 90.2933 826.266 80.98 838.146 74.38C850.026 67.78 863.813 64.48 879.506 64.48C895.2 64.48 908.913 67.78 920.646 74.38C932.526 80.98 941.766 90.2933 948.366 102.32C954.966 114.2 958.266 128.207 958.266 144.34C958.266 160.327 954.966 174.333 948.366 186.36C941.766 198.387 932.526 207.773 920.646 214.52C908.913 221.12 895.2 224.42 879.506 224.42ZM879.506 190.54C890.946 190.54 899.893 186.507 906.346 178.44C912.946 170.227 916.246 158.86 916.246 144.34C916.246 129.82 913.02 118.527 906.566 110.46C900.113 102.393 891.093 98.36 879.506 98.36C867.92 98.36 858.9 102.393 852.446 110.46C845.993 118.527 842.766 129.82 842.766 144.34C842.766 158.86 845.993 170.227 852.446 178.44C858.9 186.507 867.92 190.54 879.506 190.54ZM990.967 222V66.9H1020.67L1091.95 155.78V66.9H1129.35V222H1099.87L1028.59 133.12V222H990.967ZM1224.13 224.42C1211.95 224.42 1200.29 222.953 1189.15 220.02C1178 216.94 1168.83 212.907 1161.65 207.92L1172.87 176.46C1179.61 181.007 1187.53 184.6 1196.63 187.24C1205.72 189.88 1214.89 191.2 1224.13 191.2C1233.81 191.2 1240.55 189.953 1244.37 187.46C1248.33 184.82 1250.31 181.593 1250.31 177.78C1250.31 174.407 1248.91 171.693 1246.13 169.64C1243.49 167.587 1238.72 165.827 1231.83 164.36L1206.09 158.86C1178.22 152.847 1164.29 138.253 1164.29 115.08C1164.29 104.96 1167 96.0867 1172.43 88.46C1178 80.8333 1185.7 74.9667 1195.53 70.86C1205.35 66.6067 1216.79 64.48 1229.85 64.48C1240.55 64.48 1250.67 66.02 1260.21 69.1C1269.89 72.0333 1277.73 76.0667 1283.75 81.2L1272.53 110.68C1266.95 106.573 1260.5 103.42 1253.17 101.22C1245.83 98.8733 1237.91 97.7 1229.41 97.7C1221.19 97.7 1214.89 99.1667 1210.49 102.1C1206.09 104.887 1203.89 108.553 1203.89 113.1C1203.89 116.327 1205.21 118.967 1207.85 121.02C1210.49 123.073 1215.18 124.833 1221.93 126.3L1247.45 131.8C1275.75 137.813 1289.91 152.04 1289.91 174.48C1289.91 184.6 1287.19 193.4 1281.77 200.88C1276.34 208.36 1268.71 214.153 1258.89 218.26C1249.06 222.367 1237.47 224.42 1224.13 224.42ZM1387.23 224.42C1364.64 224.42 1347.33 218.7 1335.31 207.26C1323.43 195.82 1317.49 178.733 1317.49 156V66.9H1357.97V156.44C1357.97 167.733 1360.46 176.24 1365.45 181.96C1370.43 187.68 1377.69 190.54 1387.23 190.54C1396.61 190.54 1403.8 187.68 1408.79 181.96C1413.77 176.24 1416.27 167.733 1416.27 156.44V66.9H1456.09V156C1456.09 178.733 1450.22 195.82 1438.49 207.26C1426.9 218.7 1409.81 224.42 1387.23 224.42ZM1491.96 222V66.9H1532.44V188.34H1601.52V222H1491.96ZM1636.75 222V99.9H1587.47V66.9H1726.51V99.9H1677.23V222H1636.75ZM1750.61 222V66.9H1791.09V222H1750.61ZM1827.95 222V66.9H1857.65L1928.93 155.78V66.9H1966.33V222H1936.85L1865.57 133.12V222H1827.95ZM2082.67 224.42C2064.92 224.42 2049.81 221.12 2037.35 214.52C2025.03 207.92 2015.64 198.68 2009.19 186.8C2002.73 174.92 1999.51 161.06 1999.51 145.22C1999.51 128.793 2002.88 114.567 2009.63 102.54C2016.52 90.3667 2026.35 80.98 2039.11 74.38C2051.87 67.78 2067.27 64.48 2085.31 64.48C2096.16 64.48 2106.5 65.9467 2116.33 68.88C2126.15 71.6667 2134.15 75.48 2140.31 80.32L2127.99 111.56C2121.24 107.16 2114.42 104.007 2107.53 102.1C2100.63 100.047 2093.3 99.02 2085.53 99.02C2070.71 99.02 2059.64 102.98 2052.31 110.9C2045.12 118.82 2041.53 130.26 2041.53 145.22C2041.53 160.18 2045.19 171.473 2052.53 179.1C2059.86 186.727 2070.71 190.54 2085.09 190.54C2091.83 190.54 2099.39 189.513 2107.75 187.46V163.04H2076.73V134.66H2140.75V212.54C2132.53 216.353 2123.37 219.287 2113.25 221.34C2103.13 223.393 2092.93 224.42 2082.67 224.42Z"/>
</mask>
<path d="M58.339 222L57.3978 222.338L57.6355 223H58.339V222ZM2.67903 66.9V65.9H1.25773L1.73781 67.2378L2.67903 66.9ZM44.039 66.9L44.9879 66.5844L44.7603 65.9H44.039V66.9ZM76.379 164.14L75.4301 164.456L76.342 167.197L77.32 164.478L76.379 164.14ZM111.359 66.9V65.9H110.656L110.418 66.5615L111.359 66.9ZM139.959 66.9L140.907 66.5806L140.677 65.9H139.959V66.9ZM173.399 166.12L172.451 166.439L173.393 169.233L174.345 166.443L173.399 166.12ZM207.279 66.9V65.9H206.564L206.333 66.5768L207.279 66.9ZM246.219 66.9L247.159 67.2401L247.644 65.9H246.219V66.9ZM190.119 222V223H190.821L191.059 222.34L190.119 222ZM157.779 222L156.837 222.335L157.074 223H157.779V222ZM124.559 128.72L125.501 128.385L124.568 125.765L123.619 128.379L124.559 128.72ZM90.679 222V223H91.3797L91.619 222.341L90.679 222ZM59.2803 221.662L3.62026 66.5622L1.73781 67.2378L57.3978 222.338L59.2803 221.662ZM2.67903 67.9H44.039V65.9H2.67903V67.9ZM43.0901 67.2156L75.4301 164.456L77.3279 163.824L44.9879 66.5844L43.0901 67.2156ZM77.32 164.478L112.3 67.2385L110.418 66.5615L75.4381 163.801L77.32 164.478ZM111.359 67.9H139.959V65.9H111.359V67.9ZM139.011 67.2194L172.451 166.439L174.347 165.801L140.907 66.5806L139.011 67.2194ZM174.345 166.443L208.225 67.2231L206.333 66.5768L172.453 165.797L174.345 166.443ZM207.279 67.9H246.219V65.9H207.279V67.9ZM245.279 66.5599L189.179 221.66L191.059 222.34L247.159 67.2401L245.279 66.5599ZM190.119 221H157.779V223H190.119V221ZM158.721 221.665L125.501 128.385L123.617 129.055L156.837 222.335L158.721 221.665ZM123.619 128.379L89.7391 221.659L91.619 222.341L125.499 129.061L123.619 128.379ZM90.679 221H58.339V223H90.679V221ZM271.284 222H270.284V223H271.284V222ZM271.284 66.9V65.9H270.284V66.9H271.284ZM380.844 66.9H381.844V65.9H380.844V66.9ZM380.844 98.14V99.14H381.844V98.14H380.844ZM310.004 98.14V97.14H309.004V98.14H310.004ZM310.004 127.62H309.004V128.62H310.004V127.62ZM375.784 127.62H376.784V126.62H375.784V127.62ZM375.784 158.86V159.86H376.784V158.86H375.784ZM310.004 158.86V157.86H309.004V158.86H310.004ZM310.004 190.76H309.004V191.76H310.004V190.76ZM380.844 190.76H381.844V189.76H380.844V190.76ZM380.844 222V223H381.844V222H380.844ZM272.284 222V66.9H270.284V222H272.284ZM271.284 67.9H380.844V65.9H271.284V67.9ZM379.844 66.9V98.14H381.844V66.9H379.844ZM380.844 97.14H310.004V99.14H380.844V97.14ZM309.004 98.14V127.62H311.004V98.14H309.004ZM310.004 128.62H375.784V126.62H310.004V128.62ZM374.784 127.62V158.86H376.784V127.62H374.784ZM375.784 157.86H310.004V159.86H375.784V157.86ZM309.004 158.86V190.76H311.004V158.86H309.004ZM310.004 191.76H380.844V189.76H310.004V191.76ZM379.844 190.76V222H381.844V190.76H379.844ZM380.844 221H271.284V223H380.844V221ZM415.22 222H414.22V223H415.22V222ZM415.22 66.9V65.9H414.22V66.9H415.22ZM528.74 77.9L528.113 78.6784L528.119 78.6839L528.126 78.6893L528.74 77.9ZM536.44 128.06L535.615 127.496L535.61 127.503L535.605 127.51L536.44 128.06ZM519.72 141.48L519.342 140.554L516.74 141.616L519.428 142.436L519.72 141.48ZM539.74 154.9L538.938 155.497L538.945 155.506L539.74 154.9ZM532.04 210.34L532.666 211.12L532.668 211.119L532.04 210.34ZM453.94 128.5H452.94V129.5H453.94V128.5ZM498.82 124.54L498.22 123.74L498.212 123.746L498.204 123.752L498.82 124.54ZM498.82 100.56L498.204 101.347L498.223 101.362L498.242 101.376L498.82 100.56ZM453.94 96.6V95.6H452.94V96.6H453.94ZM453.94 192.3H452.94V193.3H453.94V192.3ZM503 188.12L503.637 188.891L503.64 188.888L503 188.12ZM503 162.38L502.363 163.151L502.371 163.158L502.38 163.164L503 162.38ZM453.94 158.2V157.2H452.94V158.2H453.94ZM416.22 222V66.9H414.22V222H416.22ZM415.22 67.9H490.02V65.9H415.22V67.9ZM490.02 67.9C506.608 67.9 519.26 71.539 528.113 78.6784L529.368 77.1216C520.034 69.5943 506.873 65.9 490.02 65.9V67.9ZM528.126 78.6893C537.112 85.6779 541.6 95.0609 541.6 106.94H543.6C543.6 94.4724 538.849 84.4954 529.354 77.1106L528.126 78.6893ZM541.6 106.94C541.6 114.828 539.596 121.667 535.615 127.496L537.266 128.624C541.498 122.427 543.6 115.185 543.6 106.94H541.6ZM535.605 127.51C531.765 133.341 526.358 137.691 519.342 140.554L520.098 142.406C527.456 139.402 533.196 134.805 537.275 128.61L535.605 127.51ZM519.428 142.436C527.91 145.024 534.391 149.387 538.938 155.497L540.543 154.303C535.703 147.8 528.838 143.216 520.012 140.524L519.428 142.436ZM538.945 155.506C543.481 161.46 545.78 168.935 545.78 178H547.78C547.78 168.585 545.386 160.66 540.536 154.294L538.945 155.506ZM545.78 178C545.78 191.365 540.983 201.848 531.413 209.561L532.668 211.119C542.751 202.992 547.78 191.915 547.78 178H545.78ZM531.414 209.56C521.966 217.147 508.94 221 492.22 221V223C509.233 223 522.755 219.079 532.666 211.12L531.414 209.56ZM492.22 221H415.22V223H492.22V221ZM453.94 129.5H482.76V127.5H453.94V129.5ZM482.76 129.5C490.173 129.5 495.8 128.173 499.437 125.327L498.204 123.752C495.094 126.187 490.014 127.5 482.76 127.5V129.5ZM499.42 125.34C503.251 122.467 505.1 118.1 505.1 112.44H503.1C503.1 117.634 501.43 121.333 498.22 123.74L499.42 125.34ZM505.1 112.44C505.1 106.783 503.251 102.473 499.398 99.744L498.242 101.376C501.429 103.634 503.1 107.244 503.1 112.44H505.1ZM499.437 99.7725C495.8 96.9267 490.173 95.6 482.76 95.6V97.6C490.014 97.6 495.094 98.9133 498.204 101.347L499.437 99.7725ZM482.76 95.6H453.94V97.6H482.76V95.6ZM452.94 96.6V128.5H454.94V96.6H452.94ZM453.94 193.3H486.72V191.3H453.94V193.3ZM486.72 193.3C494.283 193.3 499.996 191.899 503.637 188.891L502.363 187.349C499.258 189.914 494.118 191.3 486.72 191.3V193.3ZM503.64 188.888C507.444 185.719 509.28 181.077 509.28 175.14H507.28C507.28 180.643 505.597 184.654 502.36 187.352L503.64 188.888ZM509.28 175.14C509.28 169.206 507.444 164.623 503.621 161.596L502.38 163.164C505.596 165.711 507.28 169.634 507.28 175.14H509.28ZM503.637 161.609C499.996 158.601 494.283 157.2 486.72 157.2V159.2C494.118 159.2 499.258 160.586 502.363 163.151L503.637 161.609ZM486.72 157.2H453.94V159.2H486.72V157.2ZM452.94 158.2V192.3H454.94V158.2H452.94ZM684.342 214.52L684.814 213.639L684.342 214.52ZM655.962 186.58L655.081 187.053L655.086 187.061L655.962 186.58ZM655.962 102.32L655.086 101.839L655.083 101.843L655.962 102.32ZM684.342 74.38L684.814 75.2615L684.342 74.38ZM758.262 69.32L757.942 70.2673L757.955 70.2716L758.262 69.32ZM781.362 81.64L782.297 81.9947L782.544 81.345L782.021 80.8874L781.362 81.64ZM769.262 113.54L768.674 114.349L769.733 115.119L770.197 113.895L769.262 113.54ZM749.902 103.2L749.56 104.14L749.57 104.143L749.58 104.147L749.902 103.2ZM699.302 111.34L700.044 112.011L700.05 112.003L699.302 111.34ZM699.302 177.78L698.554 178.444L698.56 178.451L699.302 177.78ZM749.902 185.92L750.225 186.867L750.234 186.863L750.244 186.86L749.902 185.92ZM769.262 175.36L770.197 175.005L769.733 173.781L768.674 174.551L769.262 175.36ZM781.362 207.26L782.021 208.013L782.544 207.555L782.297 206.905L781.362 207.26ZM758.262 219.8L758.57 220.752L758.583 220.747L758.262 219.8ZM728.562 223.42C711.53 223.42 696.96 220.145 684.814 213.639L683.87 215.401C696.365 222.095 711.274 225.42 728.562 225.42V223.42ZM684.814 213.639C672.662 207.128 663.344 197.952 656.839 186.099L655.086 187.061C661.781 199.261 671.383 208.712 683.87 215.401L684.814 213.639ZM656.843 186.107C650.481 174.25 647.282 160.338 647.282 144.34H645.282C645.282 160.608 648.537 174.856 655.081 187.053L656.843 186.107ZM647.282 144.34C647.282 128.341 650.481 114.505 656.841 102.797L655.083 101.843C648.536 113.895 645.282 128.072 645.282 144.34H647.282ZM656.839 102.801C663.344 90.9476 672.662 81.7718 684.814 75.2615L683.87 73.4985C671.383 80.1882 661.781 89.6391 655.086 101.839L656.839 102.801ZM684.814 75.2615C696.96 68.7551 711.53 65.48 728.562 65.48V63.48C711.274 63.48 696.365 66.8049 683.87 73.4985L684.814 75.2615ZM728.562 65.48C738.722 65.48 748.514 67.0762 757.942 70.2672L758.583 68.3728C748.944 65.1105 738.936 63.48 728.562 63.48V65.48ZM757.955 70.2716C767.394 73.3212 774.964 77.3703 780.704 82.3926L782.021 80.8874C776.027 75.643 768.197 71.4788 758.57 68.3684L757.955 70.2716ZM780.427 81.2853L768.327 113.185L770.197 113.895L782.297 81.9947L780.427 81.2853ZM769.85 112.731C763.329 107.989 756.788 104.491 750.225 102.253L749.58 104.147C755.923 106.309 762.288 109.705 768.674 114.349L769.85 112.731ZM750.244 102.26C743.683 99.8744 736.967 98.68 730.102 98.68V100.68C736.73 100.68 743.215 101.832 749.56 104.14L750.244 102.26ZM730.102 98.68C716.271 98.68 705.692 102.627 698.554 110.677L700.05 112.003C706.699 104.506 716.653 100.68 730.102 100.68V98.68ZM698.56 110.669C691.445 118.542 687.962 129.818 687.962 144.34H689.962C689.962 130.116 693.373 119.391 700.044 112.011L698.56 110.669ZM687.962 144.34C687.962 159.008 691.444 170.426 698.554 178.443L700.05 177.117C693.374 169.588 689.962 158.712 689.962 144.34H687.962ZM698.56 178.451C705.7 186.35 716.277 190.22 730.102 190.22V188.22C716.648 188.22 706.691 184.464 700.044 177.109L698.56 178.451ZM730.102 190.22C736.96 190.22 743.669 189.102 750.225 186.867L749.58 184.973C743.229 187.138 736.738 188.22 730.102 188.22V190.22ZM750.244 186.86C756.798 184.477 763.333 180.908 769.85 176.169L768.674 174.551C762.284 179.198 755.913 182.67 749.56 184.98L750.244 186.86ZM768.327 175.715L780.427 207.615L782.297 206.905L770.197 175.005L768.327 175.715ZM780.704 206.507C774.96 211.533 767.385 215.656 757.942 218.853L758.583 220.747C768.206 217.49 776.031 213.254 782.021 208.013L780.704 206.507ZM757.955 218.848C748.523 221.896 738.727 223.42 728.562 223.42V225.42C738.931 225.42 748.935 223.864 758.57 220.752L757.955 218.848ZM838.146 214.52L837.648 215.387L837.654 215.391L837.661 215.394L838.146 214.52ZM810.646 186.36L809.77 186.841L810.646 186.36ZM810.426 102.32L809.55 101.839L809.547 101.843L810.426 102.32ZM838.146 74.38L838.632 75.2542L838.146 74.38ZM920.646 74.38L920.156 75.2516L920.161 75.2542L920.646 74.38ZM948.366 102.32L947.49 102.801L947.492 102.806L948.366 102.32ZM948.366 186.36L947.49 185.879L948.366 186.36ZM920.646 214.52L921.136 215.392L921.14 215.39L920.646 214.52ZM906.346 178.44L905.567 177.814L905.565 177.815L906.346 178.44ZM906.566 110.46L905.785 111.085L906.566 110.46ZM852.446 110.46L851.665 109.835L852.446 110.46ZM852.446 178.44L851.66 179.058L851.665 179.065L852.446 178.44ZM879.506 223.42C863.956 223.42 850.342 220.151 838.632 213.646L837.661 215.394C849.711 222.089 863.669 225.42 879.506 225.42V223.42ZM838.645 213.653C827.073 206.999 818.036 197.747 811.523 185.879L809.77 186.841C816.457 199.026 825.753 208.547 837.648 215.387L838.645 213.653ZM811.523 185.879C805.016 174.022 801.746 160.186 801.746 144.34H799.746C799.746 160.467 803.076 174.644 809.77 186.841L811.523 185.879ZM801.746 144.34C801.746 128.341 804.945 114.505 811.305 102.797L809.547 101.843C803.001 113.895 799.746 128.072 799.746 144.34H801.746ZM811.303 102.801C817.813 90.938 826.918 81.7617 838.632 75.2542L837.661 73.5058C825.614 80.1983 816.239 89.6486 809.55 101.839L811.303 102.801ZM838.632 75.2542C850.342 68.7487 863.956 65.48 879.506 65.48V63.48C863.669 63.48 849.711 66.8113 837.661 73.5058L838.632 75.2542ZM879.506 65.48C895.057 65.48 908.595 68.7488 920.156 75.2516L921.136 73.5084C909.23 66.8112 895.343 63.48 879.506 63.48V65.48ZM920.161 75.2542C931.874 81.7617 940.979 90.938 947.49 102.801L949.243 101.839C942.553 89.6486 933.178 80.1983 921.132 73.5058L920.161 75.2542ZM947.492 102.806C953.995 114.512 957.266 128.345 957.266 144.34H959.266C959.266 128.069 955.937 113.888 949.24 101.834L947.492 102.806ZM957.266 144.34C957.266 160.186 953.996 174.022 947.49 185.879L949.243 186.841C955.936 174.644 959.266 160.467 959.266 144.34H957.266ZM947.49 185.879C940.978 197.744 931.871 206.996 920.152 213.65L921.14 215.39C933.182 208.551 942.554 199.03 949.243 186.841L947.49 185.879ZM920.156 213.648C908.595 220.151 895.057 223.42 879.506 223.42V225.42C895.343 225.42 909.23 222.089 921.136 215.392L920.156 213.648ZM879.506 191.54C891.213 191.54 900.462 187.396 907.127 179.065L905.565 177.815C899.324 185.617 890.68 189.54 879.506 189.54V191.54ZM907.126 179.066C913.914 170.619 917.246 159.003 917.246 144.34H915.246C915.246 158.717 911.978 169.835 905.567 177.814L907.126 179.066ZM917.246 144.34C917.246 129.683 913.99 118.139 907.347 109.835L905.785 111.085C912.049 118.914 915.246 129.957 915.246 144.34H917.246ZM907.347 109.835C900.679 101.501 891.355 97.36 879.506 97.36V99.36C890.831 99.36 899.547 103.286 905.785 111.085L907.347 109.835ZM879.506 97.36C867.658 97.36 858.333 101.501 851.665 109.835L853.227 111.085C859.466 103.286 868.181 99.36 879.506 99.36V97.36ZM851.665 109.835C845.022 118.139 841.766 129.683 841.766 144.34H843.766C843.766 129.957 846.963 118.914 853.227 111.085L851.665 109.835ZM841.766 144.34C841.766 158.998 845.023 170.611 851.66 179.058L853.233 177.822C846.963 169.842 843.766 158.722 843.766 144.34H841.766ZM851.665 179.065C858.333 187.399 867.658 191.54 879.506 191.54V189.54C868.181 189.54 859.466 185.614 853.227 177.815L851.665 179.065ZM990.967 222H989.967V223H990.967V222ZM990.967 66.9V65.9H989.967V66.9H990.967ZM1020.67 66.9L1021.45 66.2744L1021.15 65.9H1020.67V66.9ZM1091.95 155.78L1091.17 156.406L1092.95 158.625V155.78H1091.95ZM1091.95 66.9V65.9H1090.95V66.9H1091.95ZM1129.35 66.9H1130.35V65.9H1129.35V66.9ZM1129.35 222V223H1130.35V222H1129.35ZM1099.87 222L1099.09 222.626L1099.39 223H1099.87V222ZM1028.59 133.12L1029.37 132.494L1027.59 130.275V133.12H1028.59ZM1028.59 222V223H1029.59V222H1028.59ZM991.967 222V66.9H989.967V222H991.967ZM990.967 67.9H1020.67V65.9H990.967V67.9ZM1019.89 67.5256L1091.17 156.406L1092.73 155.154L1021.45 66.2744L1019.89 67.5256ZM1092.95 155.78V66.9H1090.95V155.78H1092.95ZM1091.95 67.9H1129.35V65.9H1091.95V67.9ZM1128.35 66.9V222H1130.35V66.9H1128.35ZM1129.35 221H1099.87V223H1129.35V221ZM1100.65 221.374L1029.37 132.494L1027.81 133.746L1099.09 222.626L1100.65 221.374ZM1027.59 133.12V222H1029.59V133.12H1027.59ZM1028.59 221H990.967V223H1028.59V221ZM1189.15 220.02L1188.88 220.984L1188.89 220.987L1189.15 220.02ZM1161.65 207.92L1160.7 207.584L1160.45 208.305L1161.08 208.742L1161.65 207.92ZM1172.87 176.46L1173.42 175.631L1172.36 174.911L1171.92 176.124L1172.87 176.46ZM1196.63 187.24L1196.35 188.2L1196.63 187.24ZM1244.37 187.46L1244.91 188.297L1244.92 188.292L1244.37 187.46ZM1246.13 169.64L1245.51 170.429L1245.52 170.437L1245.53 170.445L1246.13 169.64ZM1231.83 164.36L1231.62 165.338L1231.62 165.338L1231.83 164.36ZM1206.09 158.86L1205.88 159.838L1205.88 159.838L1206.09 158.86ZM1172.43 88.46L1171.62 87.8699L1171.61 87.8802L1172.43 88.46ZM1195.53 70.86L1195.91 71.7827L1195.92 71.7777L1195.53 70.86ZM1260.21 69.1L1259.9 70.0516L1259.91 70.0544L1259.92 70.057L1260.21 69.1ZM1283.75 81.2L1284.68 81.5557L1284.93 80.897L1284.4 80.4394L1283.75 81.2ZM1272.53 110.68L1271.93 111.485L1272.99 112.266L1273.46 111.036L1272.53 110.68ZM1253.17 101.22L1252.86 102.172L1252.87 102.175L1252.88 102.178L1253.17 101.22ZM1210.49 102.1L1211.02 102.945L1211.03 102.939L1211.04 102.932L1210.49 102.1ZM1207.85 121.02L1207.23 121.809L1207.85 121.02ZM1221.93 126.3L1221.71 127.277L1221.72 127.278L1221.93 126.3ZM1247.45 131.8L1247.24 132.778L1247.24 132.778L1247.45 131.8ZM1258.89 218.26L1259.27 219.183L1258.89 218.26ZM1224.13 223.42C1212.03 223.42 1200.46 221.963 1189.4 219.053L1188.89 220.987C1200.13 223.943 1211.87 225.42 1224.13 225.42V223.42ZM1189.41 219.056C1178.34 215.997 1169.29 212.004 1162.22 207.098L1161.08 208.742C1168.38 213.809 1177.66 217.883 1188.88 220.984L1189.41 219.056ZM1162.59 208.256L1173.81 176.796L1171.92 176.124L1160.7 207.584L1162.59 208.256ZM1172.31 177.289C1179.15 181.902 1187.17 185.536 1196.35 188.2L1196.9 186.28C1187.9 183.664 1180.07 180.111 1173.42 175.631L1172.31 177.289ZM1196.35 188.2C1205.53 190.866 1214.79 192.2 1224.13 192.2V190.2C1214.98 190.2 1205.91 188.894 1196.9 186.28L1196.35 188.2ZM1224.13 192.2C1233.83 192.2 1240.84 190.963 1244.91 188.297L1243.82 186.623C1240.27 188.943 1233.79 190.2 1224.13 190.2V192.2ZM1244.92 188.292C1249.08 185.519 1251.31 182.012 1251.31 177.78H1249.31C1249.31 181.175 1247.57 184.121 1243.81 186.628L1244.92 188.292ZM1251.31 177.78C1251.31 174.079 1249.75 171.071 1246.72 168.835L1245.53 170.445C1248.07 172.316 1249.31 174.734 1249.31 177.78H1251.31ZM1246.74 168.851C1243.91 166.648 1238.95 164.853 1232.03 163.382L1231.62 165.338C1238.49 166.801 1243.06 168.525 1245.51 170.429L1246.74 168.851ZM1232.03 163.382L1206.29 157.882L1205.88 159.838L1231.62 165.338L1232.03 163.382ZM1206.3 157.882C1192.48 154.901 1182.24 149.818 1175.46 142.714C1168.7 135.632 1165.29 126.451 1165.29 115.08H1163.29C1163.29 126.883 1166.84 136.585 1174.01 144.096C1181.16 151.585 1191.82 156.805 1205.88 159.837L1206.3 157.882ZM1165.29 115.08C1165.29 105.15 1167.94 96.4832 1173.24 89.0397L1171.61 87.8802C1166.05 95.6902 1163.29 104.77 1163.29 115.08H1165.29ZM1173.23 89.05C1178.69 81.5887 1186.23 75.8282 1195.91 71.7827L1195.14 69.9373C1185.17 74.1051 1177.31 80.0779 1171.62 87.87L1173.23 89.05ZM1195.92 71.7777C1205.6 67.5892 1216.9 65.48 1229.85 65.48V63.48C1216.69 63.48 1205.1 65.6242 1195.13 69.9423L1195.92 71.7777ZM1229.85 65.48C1240.46 65.48 1250.47 67.0058 1259.9 70.0516L1260.51 68.1484C1250.87 65.0342 1240.65 63.48 1229.85 63.48V65.48ZM1259.92 70.057C1269.5 72.9611 1277.21 76.9381 1283.1 81.9606L1284.4 80.4394C1278.25 75.1953 1270.27 71.1056 1260.5 68.143L1259.92 70.057ZM1282.81 80.8443L1271.59 110.324L1273.46 111.036L1284.68 81.5557L1282.81 80.8443ZM1273.12 109.875C1267.44 105.693 1260.88 102.492 1253.45 100.262L1252.88 102.178C1260.11 104.348 1266.46 107.453 1271.93 111.485L1273.12 109.875ZM1253.47 100.268C1246.03 97.8863 1238.01 96.7 1229.41 96.7V98.7C1237.82 98.7 1245.64 99.8604 1252.86 102.172L1253.47 100.268ZM1229.41 96.7C1221.1 96.7 1214.56 98.18 1209.93 101.268L1211.04 102.932C1215.21 100.153 1221.29 98.7 1229.41 98.7V96.7ZM1209.95 101.255C1205.31 104.194 1202.89 108.156 1202.89 113.1H1204.89C1204.89 108.951 1206.86 105.58 1211.02 102.945L1209.95 101.255ZM1202.89 113.1C1202.89 116.648 1204.36 119.575 1207.23 121.809L1208.46 120.231C1206.05 118.359 1204.89 116.005 1204.89 113.1H1202.89ZM1207.23 121.809C1210.06 124.009 1214.94 125.806 1221.71 127.277L1222.14 125.323C1215.41 123.861 1210.91 122.138 1208.46 120.231L1207.23 121.809ZM1221.72 127.278L1247.24 132.778L1247.66 130.822L1222.14 125.322L1221.72 127.278ZM1247.24 132.778C1261.28 135.761 1271.69 140.758 1278.58 147.685C1285.45 154.588 1288.91 163.49 1288.91 174.48H1290.91C1290.91 163.03 1287.29 153.598 1280 146.275C1272.74 138.975 1261.92 133.852 1247.65 130.822L1247.24 132.778ZM1288.91 174.48C1288.91 184.41 1286.25 193 1280.96 200.293L1282.58 201.467C1288.14 193.8 1290.91 184.79 1290.91 174.48H1288.91ZM1280.96 200.293C1275.65 207.603 1268.18 213.29 1258.5 217.337L1259.27 219.183C1269.24 215.016 1277.03 209.117 1282.58 201.467L1280.96 200.293ZM1258.5 217.337C1248.82 221.382 1237.37 223.42 1224.13 223.42V225.42C1237.57 225.42 1249.3 223.352 1259.27 219.183L1258.5 217.337ZM1335.31 207.26L1334.61 207.98L1334.62 207.985L1335.31 207.26ZM1317.49 66.9V65.9H1316.49V66.9H1317.49ZM1357.97 66.9H1358.97V65.9H1357.97V66.9ZM1365.45 181.96L1364.69 182.617L1365.45 181.96ZM1408.79 181.96L1409.54 182.617L1408.79 181.96ZM1416.27 66.9V65.9H1415.27V66.9H1416.27ZM1456.09 66.9H1457.09V65.9H1456.09V66.9ZM1438.49 207.26L1437.79 206.544L1437.78 206.548L1438.49 207.26ZM1387.23 223.42C1364.8 223.42 1347.78 217.743 1336 206.535L1334.62 207.985C1346.89 219.657 1364.48 225.42 1387.23 225.42V223.42ZM1336 206.54C1324.38 195.351 1318.49 178.567 1318.49 156H1316.49C1316.49 178.9 1322.47 196.289 1334.61 207.98L1336 206.54ZM1318.49 156V66.9H1316.49V156H1318.49ZM1317.49 67.9H1357.97V65.9H1317.49V67.9ZM1356.97 66.9V156.44H1358.97V66.9H1356.97ZM1356.97 156.44C1356.97 167.86 1359.49 176.644 1364.69 182.617L1366.2 181.303C1361.43 175.836 1358.97 167.606 1358.97 156.44H1356.97ZM1364.69 182.617C1369.92 188.609 1377.48 191.54 1387.23 191.54V189.54C1377.9 189.54 1370.95 186.751 1366.2 181.303L1364.69 182.617ZM1387.23 191.54C1396.83 191.54 1404.32 188.605 1409.54 182.617L1408.03 181.303C1403.28 186.755 1396.4 189.54 1387.23 189.54V191.54ZM1409.54 182.617C1414.75 176.644 1417.27 167.86 1417.27 156.44H1415.27C1415.27 167.606 1412.8 175.836 1408.03 181.303L1409.54 182.617ZM1417.27 156.44V66.9H1415.27V156.44H1417.27ZM1416.27 67.9H1456.09V65.9H1416.27V67.9ZM1455.09 66.9V156H1457.09V66.9H1455.09ZM1455.09 156C1455.09 178.57 1449.26 195.356 1437.79 206.544L1439.18 207.976C1451.18 196.284 1457.09 178.896 1457.09 156H1455.09ZM1437.78 206.548C1426.45 217.742 1409.65 223.42 1387.23 223.42V225.42C1409.97 225.42 1427.35 219.658 1439.19 207.972L1437.78 206.548ZM1491.96 222H1490.96V223H1491.96V222ZM1491.96 66.9V65.9H1490.96V66.9H1491.96ZM1532.44 66.9H1533.44V65.9H1532.44V66.9ZM1532.44 188.34H1531.44V189.34H1532.44V188.34ZM1601.52 188.34H1602.52V187.34H1601.52V188.34ZM1601.52 222V223H1602.52V222H1601.52ZM1492.96 222V66.9H1490.96V222H1492.96ZM1491.96 67.9H1532.44V65.9H1491.96V67.9ZM1531.44 66.9V188.34H1533.44V66.9H1531.44ZM1532.44 189.34H1601.52V187.34H1532.44V189.34ZM1600.52 188.34V222H1602.52V188.34H1600.52ZM1601.52 221H1491.96V223H1601.52V221ZM1636.75 222H1635.75V223H1636.75V222ZM1636.75 99.9H1637.75V98.9H1636.75V99.9ZM1587.47 99.9H1586.47V100.9H1587.47V99.9ZM1587.47 66.9V65.9H1586.47V66.9H1587.47ZM1726.51 66.9H1727.51V65.9H1726.51V66.9ZM1726.51 99.9V100.9H1727.51V99.9H1726.51ZM1677.23 99.9V98.9H1676.23V99.9H1677.23ZM1677.23 222V223H1678.23V222H1677.23ZM1637.75 222V99.9H1635.75V222H1637.75ZM1636.75 98.9H1587.47V100.9H1636.75V98.9ZM1588.47 99.9V66.9H1586.47V99.9H1588.47ZM1587.47 67.9H1726.51V65.9H1587.47V67.9ZM1725.51 66.9V99.9H1727.51V66.9H1725.51ZM1726.51 98.9H1677.23V100.9H1726.51V98.9ZM1676.23 99.9V222H1678.23V99.9H1676.23ZM1677.23 221H1636.75V223H1677.23V221ZM1750.61 222H1749.61V223H1750.61V222ZM1750.61 66.9V65.9H1749.61V66.9H1750.61ZM1791.09 66.9H1792.09V65.9H1791.09V66.9ZM1791.09 222V223H1792.09V222H1791.09ZM1751.61 222V66.9H1749.61V222H1751.61ZM1750.61 67.9H1791.09V65.9H1750.61V67.9ZM1790.09 66.9V222H1792.09V66.9H1790.09ZM1791.09 221H1750.61V223H1791.09V221ZM1827.95 222H1826.95V223H1827.95V222ZM1827.95 66.9V65.9H1826.95V66.9H1827.95ZM1857.65 66.9L1858.43 66.2744L1858.13 65.9H1857.65V66.9ZM1928.93 155.78L1928.15 156.406L1929.93 158.625V155.78H1928.93ZM1928.93 66.9V65.9H1927.93V66.9H1928.93ZM1966.33 66.9H1967.33V65.9H1966.33V66.9ZM1966.33 222V223H1967.33V222H1966.33ZM1936.85 222L1936.07 222.626L1936.37 223H1936.85V222ZM1865.57 133.12L1866.35 132.494L1864.57 130.275V133.12H1865.57ZM1865.57 222V223H1866.57V222H1865.57ZM1828.95 222V66.9H1826.95V222H1828.95ZM1827.95 67.9H1857.65V65.9H1827.95V67.9ZM1856.87 67.5256L1928.15 156.406L1929.71 155.154L1858.43 66.2744L1856.87 67.5256ZM1929.93 155.78V66.9H1927.93V155.78H1929.93ZM1928.93 67.9H1966.33V65.9H1928.93V67.9ZM1965.33 66.9V222H1967.33V66.9H1965.33ZM1966.33 221H1936.85V223H1966.33V221ZM1937.63 221.374L1866.35 132.494L1864.79 133.746L1936.07 222.626L1937.63 221.374ZM1864.57 133.12V222H1866.57V133.12H1864.57ZM1865.57 221H1827.95V223H1865.57V221ZM2037.35 214.52L2036.87 215.401L2036.88 215.404L2037.35 214.52ZM2009.19 186.8L2010.06 186.323L2009.19 186.8ZM2009.63 102.54L2008.76 102.047L2008.75 102.051L2009.63 102.54ZM2039.11 74.38L2039.57 75.2682L2039.11 74.38ZM2116.33 68.88L2116.04 69.8383L2116.05 69.8421L2116.33 68.88ZM2140.31 80.32L2141.24 80.6869L2141.51 79.9939L2140.92 79.5337L2140.31 80.32ZM2127.99 111.56L2127.44 112.398L2128.47 113.067L2128.92 111.927L2127.99 111.56ZM2107.53 102.1L2107.24 103.058L2107.25 103.061L2107.26 103.064L2107.53 102.1ZM2052.31 110.9L2051.57 110.221L2051.56 110.228L2052.31 110.9ZM2052.53 179.1L2051.8 179.793L2052.53 179.1ZM2107.75 187.46L2107.98 188.431L2108.75 188.244V187.46H2107.75ZM2107.75 163.04H2108.75V162.04H2107.75V163.04ZM2076.73 163.04H2075.73V164.04H2076.73V163.04ZM2076.73 134.66V133.66H2075.73V134.66H2076.73ZM2140.75 134.66H2141.75V133.66H2140.75V134.66ZM2140.75 212.54L2141.17 213.447L2141.75 213.178V212.54H2140.75ZM2082.67 223.42C2065.04 223.42 2050.1 220.143 2037.81 213.636L2036.88 215.404C2049.52 222.097 2064.8 225.42 2082.67 225.42V223.42ZM2037.82 213.639C2025.66 207.127 2016.42 198.025 2010.06 186.323L2008.31 187.277C2014.86 199.335 2024.39 208.713 2036.87 215.401L2037.82 213.639ZM2010.06 186.323C2003.7 174.612 2000.51 160.922 2000.51 145.22H1998.51C1998.51 161.198 2001.76 175.228 2008.31 187.277L2010.06 186.323ZM2000.51 145.22C2000.51 128.932 2003.85 114.88 2010.5 103.029L2008.75 102.051C2001.91 114.253 1998.51 128.655 1998.51 145.22H2000.51ZM2010.5 103.033C2017.29 91.033 2026.97 81.7816 2039.57 75.2682L2038.65 73.4918C2025.72 80.1784 2015.75 89.7003 2008.76 102.047L2010.5 103.033ZM2039.57 75.2682C2052.15 68.7581 2067.39 65.48 2085.31 65.48V63.48C2067.15 63.48 2051.58 66.8019 2038.65 73.4918L2039.57 75.2682ZM2085.31 65.48C2096.07 65.48 2106.31 66.9342 2116.04 69.8382L2116.61 67.9218C2106.69 64.9592 2096.25 63.48 2085.31 63.48V65.48ZM2116.05 69.8421C2125.79 72.6035 2133.66 76.3672 2139.69 81.1063L2140.92 79.5337C2134.64 74.5928 2126.51 70.7299 2116.6 67.9179L2116.05 69.8421ZM2139.38 79.9531L2127.06 111.193L2128.92 111.927L2141.24 80.6869L2139.38 79.9531ZM2128.53 110.722C2121.71 106.273 2114.8 103.074 2107.79 101.136L2107.26 103.064C2114.04 104.94 2120.77 108.047 2127.44 112.398L2128.53 110.722ZM2107.81 101.142C2100.82 99.0585 2093.39 98.02 2085.53 98.02V100.02C2093.21 100.02 2100.45 101.035 2107.24 103.058L2107.81 101.142ZM2085.53 98.02C2070.54 98.02 2059.16 102.029 2051.57 110.221L2053.04 111.579C2060.12 103.931 2070.88 100.02 2085.53 100.02V98.02ZM2051.56 110.228C2044.16 118.394 2040.53 130.111 2040.53 145.22H2042.53C2042.53 130.409 2046.08 119.246 2053.05 111.572L2051.56 110.228ZM2040.53 145.22C2040.53 160.331 2044.23 171.915 2051.8 179.793L2053.25 178.407C2046.16 171.032 2042.53 160.029 2042.53 145.22H2040.53ZM2051.8 179.793C2059.39 187.678 2070.54 191.54 2085.09 191.54V189.54C2070.88 189.54 2060.33 185.775 2053.25 178.407L2051.8 179.793ZM2085.09 191.54C2091.93 191.54 2099.57 190.499 2107.98 188.431L2107.51 186.489C2099.2 188.528 2091.73 189.54 2085.09 189.54V191.54ZM2108.75 187.46V163.04H2106.75V187.46H2108.75ZM2107.75 162.04H2076.73V164.04H2107.75V162.04ZM2077.73 163.04V134.66H2075.73V163.04H2077.73ZM2076.73 135.66H2140.75V133.66H2076.73V135.66ZM2139.75 134.66V212.54H2141.75V134.66H2139.75ZM2140.32 211.633C2132.19 215.409 2123.1 218.32 2113.05 220.36L2113.44 222.32C2123.63 220.253 2132.87 217.298 2141.17 213.447L2140.32 211.633ZM2113.05 220.36C2102.99 222.4 2092.87 223.42 2082.67 223.42V225.42C2093 225.42 2103.26 224.387 2113.44 222.32L2113.05 220.36Z" fill="#FDD566" fill-opacity="0.3" mask="url(#path-1-outside-1_773_1999)"/>
</svg>
