<svg width="2196" height="273" viewBox="0 0 2196 273" fill="none" xmlns="http://www.w3.org/2000/svg">
<mask id="path-1-outside-1_754_589" maskUnits="userSpaceOnUse" x="1" y="57" width="2195" height="149" fill="black">
<rect fill="white" x="1" y="57" width="2195" height="149"/>
<path d="M53.1008 202L2.50078 61H40.1008L69.5008 149.4L101.301 61H127.301L157.701 151.2L188.501 61H223.901L172.901 202H143.501L113.301 117.2L82.5008 202H53.1008ZM246.687 202V61H346.287V89.4H281.887V116.2H341.687V144.6H281.887V173.6H346.287V202H246.687ZM377.538 202V61H445.538C460.738 61 472.472 64.3333 480.738 71C489.138 77.5333 493.338 86.3333 493.338 97.4C493.338 104.733 491.472 111.133 487.738 116.6C484.138 122.067 479.072 126.133 472.538 128.8C480.405 131.2 486.472 135.267 490.738 141C495.005 146.6 497.138 153.6 497.138 162C497.138 174.4 492.672 184.2 483.738 191.4C474.938 198.467 462.872 202 447.538 202H377.538ZM412.738 117H438.938C445.605 117 450.472 115.8 453.538 113.4C456.738 111 458.338 107.333 458.338 102.4C458.338 97.4667 456.738 93.8667 453.538 91.6C450.472 89.2 445.605 88 438.938 88H412.738V117ZM412.738 175H442.538C449.338 175 454.272 173.733 457.338 171.2C460.538 168.533 462.138 164.6 462.138 159.4C462.138 154.2 460.538 150.333 457.338 147.8C454.272 145.267 449.338 144 442.538 144H412.738V175ZM591.195 202V61H649.595C673.995 61 692.928 67.1333 706.395 79.4C719.861 91.6667 726.595 109 726.595 131.4C726.595 153.8 719.861 171.2 706.395 183.6C692.928 195.867 673.995 202 649.595 202H591.195ZM627.995 172.2H647.195C661.195 172.2 671.528 168.867 678.195 162.2C684.995 155.4 688.395 145.133 688.395 131.4C688.395 117.667 684.995 107.467 678.195 100.8C671.395 94.1333 661.061 90.8 647.195 90.8H627.995V172.2ZM756.421 202V61H856.021V89.4H791.621V116.2H851.421V144.6H791.621V173.6H856.021V202H756.421ZM934.463 202L870.263 61H909.463L949.863 154.8L990.263 61H1028.06L963.663 202H934.463ZM1044.1 202V61H1143.7V89.4H1079.3V116.2H1139.1V144.6H1079.3V173.6H1143.7V202H1044.1ZM1174.95 202V61H1211.75V171.4H1274.55V202H1174.95ZM1360.13 204.2C1345.87 204.2 1333.33 201.2 1322.53 195.2C1311.87 189.067 1303.53 180.533 1297.53 169.6C1291.53 158.667 1288.53 145.933 1288.53 131.4C1288.53 116.733 1291.47 104 1297.33 93.2C1303.33 82.2667 1311.73 73.8 1322.53 67.8C1333.33 61.8 1345.87 58.8 1360.13 58.8C1374.4 58.8 1386.87 61.8 1397.53 67.8C1408.33 73.8 1416.73 82.2667 1422.73 93.2C1428.73 104 1431.73 116.733 1431.73 131.4C1431.73 145.933 1428.73 158.667 1422.73 169.6C1416.73 180.533 1408.33 189.067 1397.53 195.2C1386.87 201.2 1374.4 204.2 1360.13 204.2ZM1360.13 173.4C1370.53 173.4 1378.67 169.733 1384.53 162.4C1390.53 154.933 1393.53 144.6 1393.53 131.4C1393.53 118.2 1390.6 107.933 1384.73 100.6C1378.87 93.2667 1370.67 89.6 1360.13 89.6C1349.6 89.6 1341.4 93.2667 1335.53 100.6C1329.67 107.933 1326.73 118.2 1326.73 131.4C1326.73 144.6 1329.67 154.933 1335.53 162.4C1341.4 169.733 1349.6 173.4 1360.13 173.4ZM1461.46 202V61H1529.26C1545.26 61 1557.59 65.1333 1566.26 73.4C1575.06 81.5333 1579.46 92.8 1579.46 107.2C1579.46 121.6 1575.06 132.933 1566.26 141.2C1557.59 149.333 1545.26 153.4 1529.26 153.4H1498.26V202H1461.46ZM1498.26 125.2H1522.86C1537.26 125.2 1544.46 119.2 1544.46 107.2C1544.46 95.2 1537.26 89.2 1522.86 89.2H1498.26V125.2ZM1605.02 202V61H1635.62L1680.62 141.8L1725.62 61H1755.42V202H1722.22V125.4L1690.02 181.2H1670.02L1638.22 126.2V202H1605.02ZM1789.37 202V61H1888.97V89.4H1824.57V116.2H1884.37V144.6H1824.57V173.6H1888.97V202H1789.37ZM1920.23 202V61H1947.23L2012.03 141.8V61H2046.03V202H2019.23L1954.43 121.2V202H1920.23ZM2112.99 202V91H2068.19V61H2194.59V91H2149.79V202H2112.99Z"/>
</mask>
<path d="M53.1008 202L52.1596 202.338L52.3972 203H53.1008V202ZM2.50078 61V60H1.07947L1.55955 61.3378L2.50078 61ZM40.1008 61L41.0497 60.6844L40.8221 60H40.1008V61ZM69.5008 149.4L68.5519 149.716L69.4637 152.457L70.4417 149.738L69.5008 149.4ZM101.301 61V60H100.598L100.36 60.6615L101.301 61ZM127.301 61L128.248 60.6806L128.019 60H127.301V61ZM157.701 151.2L156.753 151.519L157.695 154.313L158.647 151.523L157.701 151.2ZM188.501 61V60H187.786L187.554 60.6768L188.501 61ZM223.901 61L224.841 61.3401L225.326 60H223.901V61ZM172.901 202V203H173.602L173.841 202.34L172.901 202ZM143.501 202L142.559 202.335L142.795 203H143.501V202ZM113.301 117.2L114.243 116.865L113.31 114.245L112.361 116.859L113.301 117.2ZM82.5008 202V203H83.2015L83.4407 202.341L82.5008 202ZM54.042 201.662L3.44201 60.6622L1.55955 61.3378L52.1596 202.338L54.042 201.662ZM2.50078 62H40.1008V60H2.50078V62ZM39.1519 61.3156L68.5519 149.716L70.4497 149.084L41.0497 60.6844L39.1519 61.3156ZM70.4417 149.738L102.242 61.3385L100.36 60.6615L68.5598 149.062L70.4417 149.738ZM101.301 62H127.301V60H101.301V62ZM126.353 61.3194L156.753 151.519L158.648 150.881L128.248 60.6806L126.353 61.3194ZM158.647 151.523L189.447 61.3231L187.554 60.6768L156.754 150.877L158.647 151.523ZM188.501 62H223.901V60H188.501V62ZM222.96 60.6599L171.96 201.66L173.841 202.34L224.841 61.3401L222.96 60.6599ZM172.901 201H143.501V203H172.901V201ZM144.443 201.665L114.243 116.865L112.359 117.535L142.559 202.335L144.443 201.665ZM112.361 116.859L81.5609 201.659L83.4407 202.341L114.241 117.541L112.361 116.859ZM82.5008 201H53.1008V203H82.5008V201ZM246.687 202H245.687V203H246.687V202ZM246.687 61V60H245.687V61H246.687ZM346.287 61H347.287V60H346.287V61ZM346.287 89.4V90.4H347.287V89.4H346.287ZM281.887 89.4V88.4H280.887V89.4H281.887ZM281.887 116.2H280.887V117.2H281.887V116.2ZM341.687 116.2H342.687V115.2H341.687V116.2ZM341.687 144.6V145.6H342.687V144.6H341.687ZM281.887 144.6V143.6H280.887V144.6H281.887ZM281.887 173.6H280.887V174.6H281.887V173.6ZM346.287 173.6H347.287V172.6H346.287V173.6ZM346.287 202V203H347.287V202H346.287ZM247.687 202V61H245.687V202H247.687ZM246.687 62H346.287V60H246.687V62ZM345.287 61V89.4H347.287V61H345.287ZM346.287 88.4H281.887V90.4H346.287V88.4ZM280.887 89.4V116.2H282.887V89.4H280.887ZM281.887 117.2H341.687V115.2H281.887V117.2ZM340.687 116.2V144.6H342.687V116.2H340.687ZM341.687 143.6H281.887V145.6H341.687V143.6ZM280.887 144.6V173.6H282.887V144.6H280.887ZM281.887 174.6H346.287V172.6H281.887V174.6ZM345.287 173.6V202H347.287V173.6H345.287ZM346.287 201H246.687V203H346.287V201ZM377.538 202H376.538V203H377.538V202ZM377.538 61V60H376.538V61H377.538ZM480.738 71L480.111 71.7784L480.117 71.7839L480.124 71.7893L480.738 71ZM487.738 116.6L486.912 116.036L486.908 116.043L486.903 116.05L487.738 116.6ZM472.538 128.8L472.16 127.874L469.558 128.936L472.246 129.756L472.538 128.8ZM490.738 141L489.936 141.597L489.943 141.606L490.738 141ZM483.738 191.4L484.364 192.18L484.366 192.179L483.738 191.4ZM412.738 117H411.738V118H412.738V117ZM453.538 113.4L452.938 112.6L452.93 112.606L452.922 112.612L453.538 113.4ZM453.538 91.6L452.922 92.3875L452.941 92.4022L452.96 92.416L453.538 91.6ZM412.738 88V87H411.738V88H412.738ZM412.738 175H411.738V176H412.738V175ZM457.338 171.2L457.975 171.971L457.978 171.968L457.338 171.2ZM457.338 147.8L456.701 148.571L456.709 148.578L456.718 148.584L457.338 147.8ZM412.738 144V143H411.738V144H412.738ZM378.538 202V61H376.538V202H378.538ZM377.538 62H445.538V60H377.538V62ZM445.538 62C460.606 62 472.084 65.3057 480.111 71.7784L481.366 70.2216C472.859 63.361 460.871 60 445.538 60V62ZM480.124 71.7893C488.27 78.1246 492.338 86.6276 492.338 97.4H494.338C494.338 86.0391 490.007 76.9421 481.352 70.2106L480.124 71.7893ZM492.338 97.4C492.338 104.555 490.52 110.753 486.912 116.036L488.564 117.164C492.423 111.513 494.338 104.912 494.338 97.4H492.338ZM486.903 116.05C483.423 121.335 478.522 125.277 472.16 127.874L472.916 129.726C479.621 126.989 484.854 122.799 488.573 117.15L486.903 116.05ZM472.246 129.756C479.941 132.104 485.815 136.06 489.936 141.597L491.541 140.403C487.128 134.473 480.869 130.296 472.83 127.844L472.246 129.756ZM489.943 141.606C494.053 147 496.138 153.775 496.138 162H498.138C498.138 153.425 495.957 146.2 491.534 140.394L489.943 141.606ZM496.138 162C496.138 174.125 491.788 183.628 483.111 190.621L484.366 192.179C493.556 184.772 498.138 174.675 498.138 162H496.138ZM483.112 190.62C474.544 197.501 462.725 201 447.538 201V203C463.018 203 475.332 199.433 484.364 192.18L483.112 190.62ZM447.538 201H377.538V203H447.538V201ZM412.738 118H438.938V116H412.738V118ZM438.938 118C445.685 118 450.825 116.793 454.155 114.188L452.922 112.612C450.118 114.807 445.525 116 438.938 116V118ZM454.138 114.2C457.649 111.567 459.338 107.566 459.338 102.4H457.338C457.338 107.1 455.828 110.433 452.938 112.6L454.138 114.2ZM459.338 102.4C459.338 97.2359 457.649 93.2864 454.116 90.784L452.96 92.416C455.827 94.4469 457.338 97.6974 457.338 102.4H459.338ZM454.155 90.8125C450.825 88.2067 445.685 87 438.938 87V89C445.525 89 450.118 90.1933 452.922 92.3875L454.155 90.8125ZM438.938 87H412.738V89H438.938V87ZM411.738 88V117H413.738V88H411.738ZM412.738 176H442.538V174H412.738V176ZM442.538 176C449.421 176 454.64 174.726 457.975 171.971L456.701 170.429C453.903 172.741 449.256 174 442.538 174V176ZM457.978 171.968C461.462 169.066 463.138 164.816 463.138 159.4H461.138C461.138 164.383 459.615 168.001 456.698 170.432L457.978 171.968ZM463.138 159.4C463.138 153.986 461.462 149.789 457.959 147.016L456.718 148.584C459.614 150.877 461.138 154.414 461.138 159.4H463.138ZM457.975 147.029C454.64 144.274 449.421 143 442.538 143V145C449.256 145 453.903 146.259 456.701 148.571L457.975 147.029ZM442.538 143H412.738V145H442.538V143ZM411.738 144V175H413.738V144H411.738ZM591.195 202H590.195V203H591.195V202ZM591.195 61V60H590.195V61H591.195ZM706.395 79.4L707.068 78.6607L706.395 79.4ZM706.395 183.6L707.068 184.339L707.072 184.336L706.395 183.6ZM627.995 172.2H626.995V173.2H627.995V172.2ZM678.195 162.2L677.487 161.493L678.195 162.2ZM627.995 90.8V89.8H626.995V90.8H627.995ZM592.195 202V61H590.195V202H592.195ZM591.195 62H649.595V60H591.195V62ZM649.595 62C673.831 62 692.494 68.0904 705.721 80.1393L707.068 78.6607C693.362 66.1762 674.158 60 649.595 60V62ZM705.721 80.1393C718.933 92.1741 725.595 109.212 725.595 131.4H727.595C727.595 108.788 720.789 91.1592 707.068 78.6607L705.721 80.1393ZM725.595 131.4C725.595 153.588 718.933 170.695 705.717 182.864L707.072 184.336C720.789 171.705 727.595 154.012 727.595 131.4H725.595ZM705.721 182.861C692.494 194.91 673.831 201 649.595 201V203C674.158 203 693.362 196.824 707.068 184.339L705.721 182.861ZM649.595 201H591.195V203H649.595V201ZM627.995 173.2H647.195V171.2H627.995V173.2ZM647.195 173.2C661.332 173.2 671.973 169.836 678.902 162.907L677.487 161.493C671.083 167.898 661.057 171.2 647.195 171.2V173.2ZM678.902 162.907C685.957 155.852 689.395 145.284 689.395 131.4H687.395C687.395 144.982 684.032 154.948 677.487 161.493L678.902 162.907ZM689.395 131.4C689.395 117.518 685.958 107.01 678.895 100.086L677.494 101.514C684.031 107.923 687.395 117.816 687.395 131.4H689.395ZM678.895 100.086C671.837 93.1668 661.204 89.8 647.195 89.8V91.8C660.918 91.8 670.952 95.0999 677.494 101.514L678.895 100.086ZM647.195 89.8H627.995V91.8H647.195V89.8ZM626.995 90.8V172.2H628.995V90.8H626.995ZM756.421 202H755.421V203H756.421V202ZM756.421 61V60H755.421V61H756.421ZM856.021 61H857.021V60H856.021V61ZM856.021 89.4V90.4H857.021V89.4H856.021ZM791.621 89.4V88.4H790.621V89.4H791.621ZM791.621 116.2H790.621V117.2H791.621V116.2ZM851.421 116.2H852.421V115.2H851.421V116.2ZM851.421 144.6V145.6H852.421V144.6H851.421ZM791.621 144.6V143.6H790.621V144.6H791.621ZM791.621 173.6H790.621V174.6H791.621V173.6ZM856.021 173.6H857.021V172.6H856.021V173.6ZM856.021 202V203H857.021V202H856.021ZM757.421 202V61H755.421V202H757.421ZM756.421 62H856.021V60H756.421V62ZM855.021 61V89.4H857.021V61H855.021ZM856.021 88.4H791.621V90.4H856.021V88.4ZM790.621 89.4V116.2H792.621V89.4H790.621ZM791.621 117.2H851.421V115.2H791.621V117.2ZM850.421 116.2V144.6H852.421V116.2H850.421ZM851.421 143.6H791.621V145.6H851.421V143.6ZM790.621 144.6V173.6H792.621V144.6H790.621ZM791.621 174.6H856.021V172.6H791.621V174.6ZM855.021 173.6V202H857.021V173.6H855.021ZM856.021 201H756.421V203H856.021V201ZM934.463 202L933.553 202.414L933.82 203H934.463V202ZM870.263 61V60H868.709L869.353 61.4144L870.263 61ZM909.463 61L910.382 60.6044L910.121 60H909.463V61ZM949.863 154.8L948.945 155.196L949.863 157.328L950.782 155.196L949.863 154.8ZM990.263 61V60H989.605L989.345 60.6044L990.263 61ZM1028.06 61L1028.97 61.4154L1029.62 60H1028.06V61ZM963.663 202V203H964.306L964.573 202.415L963.663 202ZM935.373 201.586L871.173 60.5856L869.353 61.4144L933.553 202.414L935.373 201.586ZM870.263 62H909.463V60H870.263V62ZM908.545 61.3956L948.945 155.196L950.782 154.404L910.382 60.6044L908.545 61.3956ZM950.782 155.196L991.182 61.3956L989.345 60.6044L948.945 154.404L950.782 155.196ZM990.263 62H1028.06V60H990.263V62ZM1027.15 60.5845L962.754 201.585L964.573 202.415L1028.97 61.4154L1027.15 60.5845ZM963.663 201H934.463V203H963.663V201ZM1044.1 202H1043.1V203H1044.1V202ZM1044.1 61V60H1043.1V61H1044.1ZM1143.7 61H1144.7V60H1143.7V61ZM1143.7 89.4V90.4H1144.7V89.4H1143.7ZM1079.3 89.4V88.4H1078.3V89.4H1079.3ZM1079.3 116.2H1078.3V117.2H1079.3V116.2ZM1139.1 116.2H1140.1V115.2H1139.1V116.2ZM1139.1 144.6V145.6H1140.1V144.6H1139.1ZM1079.3 144.6V143.6H1078.3V144.6H1079.3ZM1079.3 173.6H1078.3V174.6H1079.3V173.6ZM1143.7 173.6H1144.7V172.6H1143.7V173.6ZM1143.7 202V203H1144.7V202H1143.7ZM1045.1 202V61H1043.1V202H1045.1ZM1044.1 62H1143.7V60H1044.1V62ZM1142.7 61V89.4H1144.7V61H1142.7ZM1143.7 88.4H1079.3V90.4H1143.7V88.4ZM1078.3 89.4V116.2H1080.3V89.4H1078.3ZM1079.3 117.2H1139.1V115.2H1079.3V117.2ZM1138.1 116.2V144.6H1140.1V116.2H1138.1ZM1139.1 143.6H1079.3V145.6H1139.1V143.6ZM1078.3 144.6V173.6H1080.3V144.6H1078.3ZM1079.3 174.6H1143.7V172.6H1079.3V174.6ZM1142.7 173.6V202H1144.7V173.6H1142.7ZM1143.7 201H1044.1V203H1143.7V201ZM1174.95 202H1173.95V203H1174.95V202ZM1174.95 61V60H1173.95V61H1174.95ZM1211.75 61H1212.75V60H1211.75V61ZM1211.75 171.4H1210.75V172.4H1211.75V171.4ZM1274.55 171.4H1275.55V170.4H1274.55V171.4ZM1274.55 202V203H1275.55V202H1274.55ZM1175.95 202V61H1173.95V202H1175.95ZM1174.95 62H1211.75V60H1174.95V62ZM1210.75 61V171.4H1212.75V61H1210.75ZM1211.75 172.4H1274.55V170.4H1211.75V172.4ZM1273.55 171.4V202H1275.55V171.4H1273.55ZM1274.55 201H1174.95V203H1274.55V201ZM1322.53 195.2L1322.03 196.067L1322.04 196.071L1322.05 196.074L1322.53 195.2ZM1297.53 169.6L1296.66 170.081L1297.53 169.6ZM1297.33 93.2L1296.46 92.7189L1296.45 92.7227L1297.33 93.2ZM1322.53 67.8L1323.02 68.6742L1322.53 67.8ZM1397.53 67.8L1397.04 68.6716L1397.05 68.6742L1397.53 67.8ZM1422.73 93.2L1421.86 93.6811L1421.86 93.6856L1422.73 93.2ZM1422.73 169.6L1421.86 169.119L1422.73 169.6ZM1397.53 195.2L1398.02 196.072L1398.03 196.07L1397.53 195.2ZM1384.53 162.4L1383.75 161.774L1383.75 161.775L1384.53 162.4ZM1384.73 100.6L1383.95 101.225L1384.73 100.6ZM1335.53 100.6L1334.75 99.9753L1335.53 100.6ZM1335.53 162.4L1334.75 163.018L1334.75 163.025L1335.53 162.4ZM1360.13 203.2C1346.01 203.2 1333.65 200.231 1323.02 194.326L1322.05 196.074C1333.02 202.169 1345.72 205.2 1360.13 205.2V203.2ZM1323.03 194.333C1312.53 188.293 1304.32 179.894 1298.41 169.119L1296.66 170.081C1302.74 181.173 1311.21 189.841 1322.03 196.067L1323.03 194.333ZM1298.41 169.119C1292.5 158.356 1289.53 145.793 1289.53 131.4H1287.53C1287.53 146.074 1290.56 158.978 1296.66 170.081L1298.41 169.119ZM1289.53 131.4C1289.53 116.868 1292.44 104.305 1298.21 93.6773L1296.45 92.7227C1290.49 103.695 1287.53 116.599 1287.53 131.4H1289.53ZM1298.21 93.6811C1304.12 82.9114 1312.38 74.5817 1323.02 68.6742L1322.05 66.9258C1311.08 73.0183 1302.55 81.622 1296.46 92.7189L1298.21 93.6811ZM1323.02 68.6742C1333.65 62.7687 1346.01 59.8 1360.13 59.8V57.8C1345.72 57.8 1333.02 60.8313 1322.05 66.9258L1323.02 68.6742ZM1360.13 59.8C1374.26 59.8 1386.55 62.7688 1397.04 68.6716L1398.02 66.9284C1387.18 60.8312 1374.54 57.8 1360.13 57.8V59.8ZM1397.05 68.6742C1407.68 74.5817 1415.95 82.9114 1421.86 93.6811L1423.61 92.7189C1417.52 81.622 1408.98 73.0183 1398.02 66.9258L1397.05 68.6742ZM1421.86 93.6856C1427.76 104.312 1430.73 116.871 1430.73 131.4H1432.73C1432.73 116.595 1429.7 103.688 1423.61 92.7143L1421.86 93.6856ZM1430.73 131.4C1430.73 145.793 1427.76 158.356 1421.86 169.119L1423.61 170.081C1429.7 158.978 1432.73 146.074 1432.73 131.4H1430.73ZM1421.86 169.119C1415.94 179.89 1407.68 188.289 1397.04 194.33L1398.03 196.07C1408.99 189.844 1417.52 181.176 1423.61 170.081L1421.86 169.119ZM1397.04 194.328C1386.55 200.231 1374.26 203.2 1360.13 203.2V205.2C1374.54 205.2 1387.18 202.169 1398.02 196.072L1397.04 194.328ZM1360.13 174.4C1370.8 174.4 1379.23 170.623 1385.31 163.025L1383.75 161.775C1378.1 168.844 1370.27 172.4 1360.13 172.4V174.4ZM1385.31 163.026C1391.5 155.325 1394.53 144.743 1394.53 131.4H1392.53C1392.53 144.457 1389.56 154.541 1383.75 161.774L1385.31 163.026ZM1394.53 131.4C1394.53 118.063 1391.57 107.546 1385.51 99.9753L1383.95 101.225C1389.63 108.321 1392.53 118.337 1392.53 131.4H1394.53ZM1385.51 99.9753C1379.43 92.3738 1370.93 88.6 1360.13 88.6V90.6C1370.4 90.6 1378.3 94.1595 1383.95 101.225L1385.51 99.9753ZM1360.13 88.6C1349.34 88.6 1340.83 92.3738 1334.75 99.9753L1336.31 101.225C1341.97 94.1595 1349.86 90.6 1360.13 90.6V88.6ZM1334.75 99.9753C1328.69 107.546 1325.73 118.063 1325.73 131.4H1327.73C1327.73 118.337 1330.64 108.321 1336.31 101.225L1334.75 99.9753ZM1325.73 131.4C1325.73 144.738 1328.7 155.318 1334.75 163.018L1336.32 161.782C1330.64 154.549 1327.73 144.462 1327.73 131.4H1325.73ZM1334.75 163.025C1340.83 170.626 1349.34 174.4 1360.13 174.4V172.4C1349.86 172.4 1341.97 168.841 1336.31 161.775L1334.75 163.025ZM1461.46 202H1460.46V203H1461.46V202ZM1461.46 61V60H1460.46V61H1461.46ZM1566.26 73.4L1565.57 74.1236L1565.58 74.129L1565.58 74.1344L1566.26 73.4ZM1566.26 141.2L1566.94 141.929L1566.94 141.929L1566.26 141.2ZM1498.26 153.4V152.4H1497.26V153.4H1498.26ZM1498.26 202V203H1499.26V202H1498.26ZM1498.26 125.2H1497.26V126.2H1498.26V125.2ZM1498.26 89.2V88.2H1497.26V89.2H1498.26ZM1462.46 202V61H1460.46V202H1462.46ZM1461.46 62H1529.26V60H1461.46V62ZM1529.26 62C1545.09 62 1557.14 66.0872 1565.57 74.1236L1566.95 72.6764C1558.04 64.1794 1545.43 60 1529.26 60V62ZM1565.58 74.1344C1574.14 82.0407 1578.46 93.0179 1578.46 107.2H1580.46C1580.46 92.5821 1575.98 81.026 1566.94 72.6656L1565.58 74.1344ZM1578.46 107.2C1578.46 121.382 1574.14 132.43 1565.58 140.471L1566.94 141.929C1575.98 133.437 1580.46 121.818 1580.46 107.2H1578.46ZM1565.58 140.471C1557.15 148.377 1545.1 152.4 1529.26 152.4V154.4C1545.42 154.4 1558.04 150.289 1566.94 141.929L1565.58 140.471ZM1529.26 152.4H1498.26V154.4H1529.26V152.4ZM1497.26 153.4V202H1499.26V153.4H1497.26ZM1498.26 201H1461.46V203H1498.26V201ZM1498.26 126.2H1522.86V124.2H1498.26V126.2ZM1522.86 126.2C1530.17 126.2 1535.85 124.68 1539.7 121.468C1543.59 118.227 1545.46 113.407 1545.46 107.2H1543.46C1543.46 112.993 1541.73 117.173 1538.42 119.932C1535.07 122.72 1529.95 124.2 1522.86 124.2V126.2ZM1545.46 107.2C1545.46 100.993 1543.59 96.1726 1539.7 92.9318C1535.85 89.72 1530.17 88.2 1522.86 88.2V90.2C1529.95 90.2 1535.07 91.68 1538.42 94.4682C1541.73 97.2274 1543.46 101.407 1543.46 107.2H1545.46ZM1522.86 88.2H1498.26V90.2H1522.86V88.2ZM1497.26 89.2V125.2H1499.26V89.2H1497.26ZM1605.02 202H1604.02V203H1605.02V202ZM1605.02 61V60H1604.02V61H1605.02ZM1635.62 61L1636.49 60.5134L1636.2 60H1635.62V61ZM1680.62 141.8L1679.74 142.287L1680.62 143.855L1681.49 142.287L1680.62 141.8ZM1725.62 61V60H1725.03L1724.74 60.5134L1725.62 61ZM1755.42 61H1756.42V60H1755.42V61ZM1755.42 202V203H1756.42V202H1755.42ZM1722.22 202H1721.22V203H1722.22V202ZM1722.22 125.4H1723.22V121.666L1721.35 124.9L1722.22 125.4ZM1690.02 181.2V182.2H1690.59L1690.88 181.7L1690.02 181.2ZM1670.02 181.2L1669.15 181.701L1669.44 182.2H1670.02V181.2ZM1638.22 126.2L1639.08 125.699L1637.22 122.473V126.2H1638.22ZM1638.22 202V203H1639.22V202H1638.22ZM1606.02 202V61H1604.02V202H1606.02ZM1605.02 62H1635.62V60H1605.02V62ZM1634.74 61.4866L1679.74 142.287L1681.49 141.313L1636.49 60.5134L1634.74 61.4866ZM1681.49 142.287L1726.49 61.4866L1724.74 60.5134L1679.74 141.313L1681.49 142.287ZM1725.62 62H1755.42V60H1725.62V62ZM1754.42 61V202H1756.42V61H1754.42ZM1755.42 201H1722.22V203H1755.42V201ZM1723.22 202V125.4H1721.22V202H1723.22ZM1721.35 124.9L1689.15 180.7L1690.88 181.7L1723.08 125.9L1721.35 124.9ZM1690.02 180.2H1670.02V182.2H1690.02V180.2ZM1670.88 180.699L1639.08 125.699L1637.35 126.701L1669.15 181.701L1670.88 180.699ZM1637.22 126.2V202H1639.22V126.2H1637.22ZM1638.22 201H1605.02V203H1638.22V201ZM1789.37 202H1788.37V203H1789.37V202ZM1789.37 61V60H1788.37V61H1789.37ZM1888.97 61H1889.97V60H1888.97V61ZM1888.97 89.4V90.4H1889.97V89.4H1888.97ZM1824.57 89.4V88.4H1823.57V89.4H1824.57ZM1824.57 116.2H1823.57V117.2H1824.57V116.2ZM1884.37 116.2H1885.37V115.2H1884.37V116.2ZM1884.37 144.6V145.6H1885.37V144.6H1884.37ZM1824.57 144.6V143.6H1823.57V144.6H1824.57ZM1824.57 173.6H1823.57V174.6H1824.57V173.6ZM1888.97 173.6H1889.97V172.6H1888.97V173.6ZM1888.97 202V203H1889.97V202H1888.97ZM1790.37 202V61H1788.37V202H1790.37ZM1789.37 62H1888.97V60H1789.37V62ZM1887.97 61V89.4H1889.97V61H1887.97ZM1888.97 88.4H1824.57V90.4H1888.97V88.4ZM1823.57 89.4V116.2H1825.57V89.4H1823.57ZM1824.57 117.2H1884.37V115.2H1824.57V117.2ZM1883.37 116.2V144.6H1885.37V116.2H1883.37ZM1884.37 143.6H1824.57V145.6H1884.37V143.6ZM1823.57 144.6V173.6H1825.57V144.6H1823.57ZM1824.57 174.6H1888.97V172.6H1824.57V174.6ZM1887.97 173.6V202H1889.97V173.6H1887.97ZM1888.97 201H1789.37V203H1888.97V201ZM1920.23 202H1919.23V203H1920.23V202ZM1920.23 61V60H1919.23V61H1920.23ZM1947.23 61L1948.01 60.3744L1947.71 60H1947.23V61ZM2012.03 141.8L2011.25 142.426L2013.03 144.645V141.8H2012.03ZM2012.03 61V60H2011.03V61H2012.03ZM2046.03 61H2047.03V60H2046.03V61ZM2046.03 202V203H2047.03V202H2046.03ZM2019.23 202L2018.45 202.626L2018.75 203H2019.23V202ZM1954.43 121.2L1955.21 120.574L1953.43 118.355V121.2H1954.43ZM1954.43 202V203H1955.43V202H1954.43ZM1921.23 202V61H1919.23V202H1921.23ZM1920.23 62H1947.23V60H1920.23V62ZM1946.45 61.6256L2011.25 142.426L2012.81 141.174L1948.01 60.3744L1946.45 61.6256ZM2013.03 141.8V61H2011.03V141.8H2013.03ZM2012.03 62H2046.03V60H2012.03V62ZM2045.03 61V202H2047.03V61H2045.03ZM2046.03 201H2019.23V203H2046.03V201ZM2020.01 201.374L1955.21 120.574L1953.65 121.826L2018.45 202.626L2020.01 201.374ZM1953.43 121.2V202H1955.43V121.2H1953.43ZM1954.43 201H1920.23V203H1954.43V201ZM2112.99 202H2111.99V203H2112.99V202ZM2112.99 91H2113.99V90H2112.99V91ZM2068.19 91H2067.19V92H2068.19V91ZM2068.19 61V60H2067.19V61H2068.19ZM2194.59 61H2195.59V60H2194.59V61ZM2194.59 91V92H2195.59V91H2194.59ZM2149.79 91V90H2148.79V91H2149.79ZM2149.79 202V203H2150.79V202H2149.79ZM2113.99 202V91H2111.99V202H2113.99ZM2112.99 90H2068.19V92H2112.99V90ZM2069.19 91V61H2067.19V91H2069.19ZM2068.19 62H2194.59V60H2068.19V62ZM2193.59 61V91H2195.59V61H2193.59ZM2194.59 90H2149.79V92H2194.59V90ZM2148.79 91V202H2150.79V91H2148.79ZM2149.79 201H2112.99V203H2149.79V201Z" fill="#67B7A5" fill-opacity="0.3" mask="url(#path-1-outside-1_754_589)"/>
</svg>
