<svg width="1490" height="131" viewBox="0 0 1490 131" fill="none" xmlns="http://www.w3.org/2000/svg">
<mask id="path-1-outside-1_751_575" maskUnits="userSpaceOnUse" x="-2" y="-1" width="1493" height="133" fill="black">
<rect fill="white" x="-2" y="-1" width="1493" height="133"/>
<path d="M45.5939 129L0.0538527 2.09999H33.8939L60.3539 81.66L88.9739 2.09999H112.374L139.734 83.28L167.454 2.09999H199.314L153.414 129H126.954L99.7739 52.68L72.0539 129H45.5939ZM219.821 129V2.09999H309.461V27.66H251.501V51.78H305.321V77.34H251.501V103.44H309.461V129H219.821ZM337.588 129V2.09999H398.788C412.468 2.09999 423.028 5.09999 430.468 11.1C438.028 16.98 441.808 24.9 441.808 34.86C441.808 41.46 440.128 47.22 436.768 52.14C433.528 57.06 428.968 60.72 423.088 63.12C430.168 65.28 435.628 68.94 439.468 74.1C443.308 79.14 445.228 85.44 445.228 93C445.228 104.16 441.208 112.98 433.168 119.46C425.248 125.82 414.388 129 400.588 129H337.588ZM369.268 52.5H392.848C398.848 52.5 403.228 51.42 405.988 49.26C408.868 47.1 410.308 43.8 410.308 39.36C410.308 34.92 408.868 31.68 405.988 29.64C403.228 27.48 398.848 26.4 392.848 26.4H369.268V52.5ZM369.268 104.7H396.088C402.208 104.7 406.648 103.56 409.408 101.28C412.288 98.88 413.728 95.34 413.728 90.66C413.728 85.98 412.288 82.5 409.408 80.22C406.648 77.94 402.208 76.8 396.088 76.8H369.268V104.7ZM529.878 129V2.09999H590.898C605.298 2.09999 616.398 5.63999 624.198 12.72C632.118 19.68 636.078 29.4 636.078 41.88C636.078 51.36 633.678 59.34 628.878 65.82C624.198 72.18 617.358 76.62 608.358 79.14C615.078 80.94 620.478 85.56 624.558 93L644.358 129H607.998L586.038 88.68C584.598 86.16 582.738 84.36 580.458 83.28C578.298 82.2 575.778 81.66 572.898 81.66H562.998V129H529.878ZM562.998 58.26H584.958C598.038 58.26 604.578 53.1 604.578 42.78C604.578 32.58 598.038 27.48 584.958 27.48H562.998V58.26ZM664.168 129V2.09999H753.808V27.66H695.848V51.78H749.668V77.34H695.848V103.44H753.808V129H664.168ZM781.934 129V2.09999H834.494C856.454 2.09999 873.494 7.61999 885.614 18.66C897.734 29.7 903.794 45.3 903.794 65.46C903.794 85.62 897.734 101.28 885.614 112.44C873.494 123.48 856.454 129 834.494 129H781.934ZM815.054 102.18H832.334C844.934 102.18 854.234 99.18 860.234 93.18C866.354 87.06 869.414 77.82 869.414 65.46C869.414 53.1 866.354 43.92 860.234 37.92C854.114 31.92 844.814 28.92 832.334 28.92H815.054V102.18ZM930.638 129V2.09999H1020.28V27.66H962.318V51.78H1016.14V77.34H962.318V103.44H1020.28V129H930.638ZM1093.81 130.98C1083.85 130.98 1074.31 129.78 1065.19 127.38C1056.07 124.86 1048.57 121.56 1042.69 117.48L1051.87 91.74C1057.39 95.46 1063.87 98.4 1071.31 100.56C1078.75 102.72 1086.25 103.8 1093.81 103.8C1101.73 103.8 1107.25 102.78 1110.37 100.74C1113.61 98.58 1115.23 95.94 1115.23 92.82C1115.23 90.06 1114.09 87.84 1111.81 86.16C1109.65 84.48 1105.75 83.04 1100.11 81.84L1079.05 77.34C1056.25 72.42 1044.85 60.48 1044.85 41.52C1044.85 33.24 1047.07 25.98 1051.51 19.74C1056.07 13.5 1062.37 8.69999 1070.41 5.33999C1078.45 1.86 1087.81 0.119996 1098.49 0.119996C1107.25 0.119996 1115.53 1.37999 1123.33 3.89999C1131.25 6.3 1137.67 9.6 1142.59 13.8L1133.41 37.92C1128.85 34.56 1123.57 31.98 1117.57 30.18C1111.57 28.26 1105.09 27.3 1098.13 27.3C1091.41 27.3 1086.25 28.5 1082.65 30.9C1079.05 33.18 1077.25 36.18 1077.25 39.9C1077.25 42.54 1078.33 44.7 1080.49 46.38C1082.65 48.06 1086.49 49.5 1092.01 50.7L1112.89 55.2C1136.05 60.12 1147.63 71.76 1147.63 90.12C1147.63 98.4 1145.41 105.6 1140.97 111.72C1136.53 117.84 1130.29 122.58 1122.25 125.94C1114.21 129.3 1104.73 130.98 1093.81 130.98ZM1171.09 129V2.09999H1204.21V129H1171.09ZM1299.17 130.98C1284.65 130.98 1272.29 128.28 1262.09 122.88C1252.01 117.48 1244.33 109.92 1239.05 100.2C1233.77 90.48 1231.13 79.14 1231.13 66.18C1231.13 52.74 1233.89 41.1 1239.41 31.26C1245.05 21.3 1253.09 13.62 1263.53 8.22C1273.97 2.82 1286.57 0.119996 1301.33 0.119996C1310.21 0.119996 1318.67 1.32 1326.71 3.71999C1334.75 5.99999 1341.29 9.11999 1346.33 13.08L1336.25 38.64C1330.73 35.04 1325.15 32.46 1319.51 30.9C1313.87 29.22 1307.87 28.38 1301.51 28.38C1289.39 28.38 1280.33 31.62 1274.33 38.1C1268.45 44.58 1265.51 53.94 1265.51 66.18C1265.51 78.42 1268.51 87.66 1274.51 93.9C1280.51 100.14 1289.39 103.26 1301.15 103.26C1306.67 103.26 1312.85 102.42 1319.69 100.74V80.76H1294.31V57.54H1346.69V121.26C1339.97 124.38 1332.47 126.78 1324.19 128.46C1315.91 130.14 1307.57 130.98 1299.17 130.98ZM1376.04 129V2.09999H1400.34L1458.66 74.82V2.09999H1489.26V129H1465.14L1406.82 56.28V129H1376.04Z"/>
</mask>
<path d="M45.5939 129L44.6526 129.338L44.8903 130H45.5939V129ZM0.0538528 2.09999V1.09999H-1.36746L-0.887375 2.43777L0.0538528 2.09999ZM33.8939 2.09999L34.8428 1.78441L34.6151 1.09999H33.8939V2.09999ZM60.3539 81.66L59.405 81.9756L60.3168 84.7173L61.2948 81.9985L60.3539 81.66ZM88.9739 2.09999V1.09999H88.2708L88.0329 1.7615L88.9739 2.09999ZM112.374 2.09999L113.321 1.78061L113.092 1.09999H112.374V2.09999ZM139.734 83.28L138.786 83.5994L139.728 86.3927L140.68 83.6031L139.734 83.28ZM167.454 2.09999V1.09999H166.739L166.508 1.77685L167.454 2.09999ZM199.314 2.09999L200.254 2.44013L200.739 1.09999H199.314V2.09999ZM153.414 129V130H154.116L154.354 129.34L153.414 129ZM126.954 129L126.012 129.335L126.248 130H126.954V129ZM99.7738 52.68L100.716 52.3445L99.7831 49.7253L98.8339 52.3386L99.7738 52.68ZM72.0539 129V130H72.7546L72.9938 129.341L72.0539 129ZM46.5351 128.662L0.99508 1.76222L-0.887375 2.43777L44.6526 129.338L46.5351 128.662ZM0.0538528 3.09999H33.8939V1.09999H0.0538528V3.09999ZM32.945 2.41558L59.405 81.9756L61.3028 81.3444L34.8428 1.78441L32.945 2.41558ZM61.2948 81.9985L89.9148 2.43848L88.0329 1.7615L59.4129 81.3215L61.2948 81.9985ZM88.9739 3.09999H112.374V1.09999H88.9739V3.09999ZM111.426 2.41937L138.786 83.5994L140.681 82.9606L113.321 1.78061L111.426 2.41937ZM140.68 83.6031L168.4 2.42314L166.508 1.77685L138.788 82.9568L140.68 83.6031ZM167.454 3.09999H199.314V1.09999H167.454V3.09999ZM198.373 1.75986L152.473 128.66L154.354 129.34L200.254 2.44013L198.373 1.75986ZM153.414 128H126.954V130H153.414V128ZM127.896 128.665L100.716 52.3445L98.8318 53.0155L126.012 129.335L127.896 128.665ZM98.8339 52.3386L71.1139 128.659L72.9938 129.341L100.714 53.0214L98.8339 52.3386ZM72.0539 128H45.5939V130H72.0539V128ZM219.821 129H218.821V130H219.821V129ZM219.821 2.09999V1.09999H218.821V2.09999H219.821ZM309.461 2.09999H310.461V1.09999H309.461V2.09999ZM309.461 27.66V28.66H310.461V27.66H309.461ZM251.501 27.66V26.66H250.501V27.66H251.501ZM251.501 51.78H250.501V52.78H251.501V51.78ZM305.321 51.78H306.321V50.78H305.321V51.78ZM305.321 77.34V78.34H306.321V77.34H305.321ZM251.501 77.34V76.34H250.501V77.34H251.501ZM251.501 103.44H250.501V104.44H251.501V103.44ZM309.461 103.44H310.461V102.44H309.461V103.44ZM309.461 129V130H310.461V129H309.461ZM220.821 129V2.09999H218.821V129H220.821ZM219.821 3.09999H309.461V1.09999H219.821V3.09999ZM308.461 2.09999V27.66H310.461V2.09999H308.461ZM309.461 26.66H251.501V28.66H309.461V26.66ZM250.501 27.66V51.78H252.501V27.66H250.501ZM251.501 52.78H305.321V50.78H251.501V52.78ZM304.321 51.78V77.34H306.321V51.78H304.321ZM305.321 76.34H251.501V78.34H305.321V76.34ZM250.501 77.34V103.44H252.501V77.34H250.501ZM251.501 104.44H309.461V102.44H251.501V104.44ZM308.461 103.44V129H310.461V103.44H308.461ZM309.461 128H219.821V130H309.461V128ZM337.588 129H336.588V130H337.588V129ZM337.588 2.09999V1.09999H336.588V2.09999H337.588ZM430.468 11.1L429.84 11.8784L429.847 11.8839L429.854 11.8893L430.468 11.1ZM436.768 52.14L435.942 51.576L435.937 51.583L435.932 51.59L436.768 52.14ZM423.088 63.12L422.71 62.1941L420.107 63.2563L422.796 64.0765L423.088 63.12ZM439.468 74.1L438.665 74.697L438.672 74.706L439.468 74.1ZM433.168 119.46L433.794 120.24L433.795 120.239L433.168 119.46ZM369.268 52.5H368.268V53.5H369.268V52.5ZM405.988 49.26L405.388 48.46L405.379 48.4662L405.371 48.4725L405.988 49.26ZM405.988 29.64L405.371 30.4275L405.39 30.4422L405.41 30.456L405.988 29.64ZM369.268 26.4V25.4H368.268V26.4H369.268ZM369.268 104.7H368.268V105.7H369.268V104.7ZM409.408 101.28L410.044 102.051L410.048 102.048L409.408 101.28ZM409.408 80.22L408.771 80.991L408.779 80.9976L408.787 81.004L409.408 80.22ZM369.268 76.8V75.8H368.268V76.8H369.268ZM338.588 129V2.09999H336.588V129H338.588ZM337.588 3.09999H398.788V1.09999H337.588V3.09999ZM398.788 3.09999C412.335 3.09999 422.64 6.07235 429.84 11.8784L431.095 10.3216C423.415 4.12764 412.6 1.09999 398.788 1.09999V3.09999ZM429.854 11.8893C437.159 17.5713 440.808 25.1942 440.808 34.86H442.808C442.808 24.6058 438.896 16.3887 431.082 10.3106L429.854 11.8893ZM440.808 34.86C440.808 41.2814 439.176 46.84 435.942 51.576L437.593 52.704C441.079 47.6 442.808 41.6386 442.808 34.86H440.808ZM435.932 51.59C432.812 56.3281 428.418 59.8642 422.71 62.1941L423.465 64.0458C429.517 61.5758 434.243 57.7919 437.603 52.69L435.932 51.59ZM422.796 64.0765C429.704 66.184 434.971 69.7333 438.665 74.697L440.27 73.503C436.284 68.1467 430.632 64.376 423.379 62.1635L422.796 64.0765ZM438.672 74.706C442.355 79.5401 444.228 85.6153 444.228 93H446.228C446.228 85.2647 444.26 78.7399 440.263 73.494L438.672 74.706ZM444.228 93C444.228 103.885 440.324 112.408 432.54 118.681L433.795 120.239C442.092 113.552 446.228 104.435 446.228 93H444.228ZM432.541 118.68C424.853 124.854 414.241 128 400.588 128V130C414.534 130 425.642 126.786 433.794 120.24L432.541 118.68ZM400.588 128H337.588V130H400.588V128ZM369.268 53.5H392.848V51.5H369.268V53.5ZM392.848 53.5C398.927 53.5 403.581 52.4133 406.604 50.0475L405.371 48.4725C402.874 50.4267 398.768 51.5 392.848 51.5V53.5ZM406.588 50.06C409.778 47.6669 411.308 44.0329 411.308 39.36H409.308C409.308 43.5671 407.957 46.5331 405.388 48.46L406.588 50.06ZM411.308 39.36C411.308 34.6893 409.778 31.0997 406.566 28.824L405.41 30.456C407.957 32.2603 409.308 35.1507 409.308 39.36H411.308ZM406.604 28.8525C403.581 26.4867 398.927 25.4 392.848 25.4V27.4C398.768 27.4 402.874 28.4733 405.371 30.4275L406.604 28.8525ZM392.848 25.4H369.268V27.4H392.848V25.4ZM368.268 26.4V52.5H370.268V26.4H368.268ZM369.268 105.7H396.088V103.7H369.268V105.7ZM396.088 105.7C402.29 105.7 407.016 104.553 410.044 102.051L408.771 100.509C406.279 102.567 402.125 103.7 396.088 103.7V105.7ZM410.048 102.048C413.211 99.4122 414.728 95.5565 414.728 90.66H412.728C412.728 95.1235 411.364 98.3478 408.767 100.512L410.048 102.048ZM414.728 90.66C414.728 85.7658 413.211 81.9559 410.028 79.4359L408.787 81.004C411.364 83.0441 412.728 86.1942 412.728 90.66H414.728ZM410.044 79.449C407.016 76.9474 402.29 75.8 396.088 75.8V77.8C402.125 77.8 406.279 78.9326 408.771 80.991L410.044 79.449ZM396.088 75.8H369.268V77.8H396.088V75.8ZM368.268 76.8V104.7H370.268V76.8H368.268ZM529.878 129H528.878V130H529.878V129ZM529.878 2.09999V1.09999H528.878V2.09999H529.878ZM624.198 12.72L623.526 13.4604L623.532 13.4659L623.538 13.4712L624.198 12.72ZM628.878 65.82L628.075 65.2248L628.073 65.2273L628.878 65.82ZM608.358 79.14L608.089 78.177L604.573 79.1614L608.099 80.1059L608.358 79.14ZM624.558 93L623.681 93.4808L623.682 93.4819L624.558 93ZM644.358 129V130H646.049L645.234 128.518L644.358 129ZM607.998 129L607.12 129.478L607.404 130H607.998V129ZM586.038 88.68L586.916 88.2017L586.911 88.1927L586.906 88.1839L586.038 88.68ZM580.458 83.28L580.011 84.1744L580.021 84.1792L580.03 84.1837L580.458 83.28ZM562.998 81.66V80.66H561.998V81.66H562.998ZM562.998 129V130H563.998V129H562.998ZM562.998 58.26H561.998V59.26H562.998V58.26ZM562.998 27.48V26.48H561.998V27.48H562.998ZM530.878 129V2.09999H528.878V129H530.878ZM529.878 3.09999H590.898V1.09999H529.878V3.09999ZM590.898 3.09999C605.142 3.09999 615.968 6.60043 623.526 13.4604L624.87 11.9795C616.828 4.67955 605.455 1.09999 590.898 1.09999V3.09999ZM623.538 13.4712C631.202 20.2061 635.078 29.6296 635.078 41.88H637.078C637.078 29.1704 633.034 19.1539 624.858 11.9688L623.538 13.4712ZM635.078 41.88C635.078 51.1846 632.726 58.9458 628.075 65.2248L629.682 66.4152C634.631 59.7342 637.078 51.5354 637.078 41.88H635.078ZM628.073 65.2273C623.548 71.3761 616.915 75.7057 608.089 78.177L608.628 80.103C617.802 77.5343 624.848 72.9839 629.684 66.4127L628.073 65.2273ZM608.099 80.1059C614.5 81.8203 619.702 86.2237 623.681 93.4808L625.435 92.5192C621.255 84.8963 615.657 80.0597 608.617 78.1741L608.099 80.1059ZM623.682 93.4819L643.482 129.482L645.234 128.518L625.434 92.5181L623.682 93.4819ZM644.358 128H607.998V130H644.358V128ZM608.876 128.522L586.916 88.2017L585.16 89.1583L607.12 129.478L608.876 128.522ZM586.906 88.1839C585.381 85.5138 583.378 83.5566 580.886 82.3763L580.03 84.1837C582.098 85.1634 583.816 86.8062 585.17 89.1761L586.906 88.1839ZM580.905 82.3856C578.582 81.224 575.904 80.66 572.898 80.66V82.66C575.653 82.66 578.014 83.176 580.011 84.1744L580.905 82.3856ZM572.898 80.66H562.998V82.66H572.898V80.66ZM561.998 81.66V129H563.998V81.66H561.998ZM562.998 128H529.878V130H562.998V128ZM562.998 59.26H584.958V57.26H562.998V59.26ZM584.958 59.26C591.603 59.26 596.771 57.9539 600.293 55.1751C603.86 52.3606 605.578 48.1655 605.578 42.78H603.578C603.578 47.7144 602.027 51.2594 599.054 53.6049C596.036 55.9861 591.394 57.26 584.958 57.26V59.26ZM605.578 42.78C605.578 37.4503 603.857 33.2994 600.288 30.5164C596.767 27.7703 591.601 26.48 584.958 26.48V28.48C591.396 28.48 596.04 29.7397 599.058 32.0936C602.029 34.4106 603.578 37.9097 603.578 42.78H605.578ZM584.958 26.48H562.998V28.48H584.958V26.48ZM561.998 27.48V58.26H563.998V27.48H561.998ZM664.168 129H663.168V130H664.168V129ZM664.168 2.09999V1.09999H663.168V2.09999H664.168ZM753.808 2.09999H754.808V1.09999H753.808V2.09999ZM753.808 27.66V28.66H754.808V27.66H753.808ZM695.848 27.66V26.66H694.848V27.66H695.848ZM695.848 51.78H694.848V52.78H695.848V51.78ZM749.668 51.78H750.668V50.78H749.668V51.78ZM749.668 77.34V78.34H750.668V77.34H749.668ZM695.848 77.34V76.34H694.848V77.34H695.848ZM695.848 103.44H694.848V104.44H695.848V103.44ZM753.808 103.44H754.808V102.44H753.808V103.44ZM753.808 129V130H754.808V129H753.808ZM665.168 129V2.09999H663.168V129H665.168ZM664.168 3.09999H753.808V1.09999H664.168V3.09999ZM752.808 2.09999V27.66H754.808V2.09999H752.808ZM753.808 26.66H695.848V28.66H753.808V26.66ZM694.848 27.66V51.78H696.848V27.66H694.848ZM695.848 52.78H749.668V50.78H695.848V52.78ZM748.668 51.78V77.34H750.668V51.78H748.668ZM749.668 76.34H695.848V78.34H749.668V76.34ZM694.848 77.34V103.44H696.848V77.34H694.848ZM695.848 104.44H753.808V102.44H695.848V104.44ZM752.808 103.44V129H754.808V103.44H752.808ZM753.808 128H664.168V130H753.808V128ZM781.935 129H780.935V130H781.935V129ZM781.935 2.09999V1.09999H780.935V2.09999H781.935ZM885.615 112.44L886.288 113.179L886.292 113.176L885.615 112.44ZM815.055 102.18H814.055V103.18H815.055V102.18ZM860.234 93.18L859.527 92.4729L860.234 93.18ZM815.055 28.92V27.92H814.055V28.92H815.055ZM782.935 129V2.09999H780.935V129H782.935ZM781.935 3.09999H834.495V1.09999H781.935V3.09999ZM834.495 3.09999C856.291 3.09999 873.06 8.57711 884.941 19.3993L886.288 17.9207C873.929 6.66288 856.618 1.09999 834.495 1.09999V3.09999ZM884.941 19.3993C896.807 30.2075 902.794 45.5117 902.794 65.46H904.794C904.794 45.0883 898.662 29.1925 886.288 17.9207L884.941 19.3993ZM902.794 65.46C902.794 85.4079 896.807 100.775 884.937 111.704L886.292 113.176C898.662 101.785 904.794 85.8322 904.794 65.46H902.794ZM884.941 111.701C873.06 122.523 856.291 128 834.495 128V130C856.618 130 873.929 124.437 886.288 113.179L884.941 111.701ZM834.495 128H781.935V130H834.495V128ZM815.055 103.18H832.334V101.18H815.055V103.18ZM832.334 103.18C845.072 103.18 854.68 100.149 860.942 93.8871L859.527 92.4729C853.789 98.2112 844.797 101.18 832.334 101.18V103.18ZM860.942 93.8871C867.317 87.5118 870.414 77.9709 870.414 65.46H868.414C868.414 77.6691 865.392 86.6082 859.527 92.4729L860.942 93.8871ZM870.414 65.46C870.414 52.9509 867.318 43.4638 860.935 37.2059L859.534 38.6341C865.391 44.3762 868.414 53.2491 868.414 65.46H870.414ZM860.935 37.2059C854.557 30.9535 844.957 27.92 832.334 27.92V29.92C844.672 29.92 853.672 32.8865 859.534 38.6341L860.935 37.2059ZM832.334 27.92H815.055V29.92H832.334V27.92ZM814.055 28.92V102.18H816.055V28.92H814.055ZM930.638 129H929.638V130H930.638V129ZM930.638 2.09999V1.09999H929.638V2.09999H930.638ZM1020.28 2.09999H1021.28V1.09999H1020.28V2.09999ZM1020.28 27.66V28.66H1021.28V27.66H1020.28ZM962.318 27.66V26.66H961.318V27.66H962.318ZM962.318 51.78H961.318V52.78H962.318V51.78ZM1016.14 51.78H1017.14V50.78H1016.14V51.78ZM1016.14 77.34V78.34H1017.14V77.34H1016.14ZM962.318 77.34V76.34H961.318V77.34H962.318ZM962.318 103.44H961.318V104.44H962.318V103.44ZM1020.28 103.44H1021.28V102.44H1020.28V103.44ZM1020.28 129V130H1021.28V129H1020.28ZM931.638 129V2.09999H929.638V129H931.638ZM930.638 3.09999H1020.28V1.09999H930.638V3.09999ZM1019.28 2.09999V27.66H1021.28V2.09999H1019.28ZM1020.28 26.66H962.318V28.66H1020.28V26.66ZM961.318 27.66V51.78H963.318V27.66H961.318ZM962.318 52.78H1016.14V50.78H962.318V52.78ZM1015.14 51.78V77.34H1017.14V51.78H1015.14ZM1016.14 76.34H962.318V78.34H1016.14V76.34ZM961.318 77.34V103.44H963.318V77.34H961.318ZM962.318 104.44H1020.28V102.44H962.318V104.44ZM1019.28 103.44V129H1021.28V103.44H1019.28ZM1020.28 128H930.638V130H1020.28V128ZM1065.19 127.38L1064.92 128.344L1064.93 128.347L1065.19 127.38ZM1042.69 117.48L1041.75 117.144L1041.49 117.865L1042.12 118.302L1042.69 117.48ZM1051.87 91.74L1052.43 90.9107L1051.36 90.1909L1050.93 91.4041L1051.87 91.74ZM1071.31 100.56L1071.03 101.52L1071.31 100.56ZM1110.37 100.74L1110.91 101.577L1110.92 101.572L1110.37 100.74ZM1111.81 86.16L1111.19 86.9494L1111.2 86.9573L1111.21 86.9651L1111.81 86.16ZM1100.11 81.84L1099.9 82.8179L1099.9 82.8181L1100.11 81.84ZM1079.05 77.34L1078.84 78.3175L1078.84 78.3179L1079.05 77.34ZM1051.51 19.74L1050.7 19.1499L1050.69 19.1602L1051.51 19.74ZM1070.41 5.33999L1070.79 6.26274L1070.8 6.25772L1070.41 5.33999ZM1123.33 3.89999L1123.02 4.85156L1123.03 4.85437L1123.04 4.85701L1123.33 3.89999ZM1142.59 13.8L1143.52 14.1557L1143.77 13.497L1143.24 13.0394L1142.59 13.8ZM1133.41 37.92L1132.81 38.7251L1133.87 39.5058L1134.34 38.2757L1133.41 37.92ZM1117.57 30.18L1117.26 31.1324L1117.27 31.1352L1117.28 31.1378L1117.57 30.18ZM1082.65 30.9L1083.18 31.7448L1083.19 31.7385L1083.2 31.732L1082.65 30.9ZM1080.49 46.38L1079.87 47.1693L1080.49 46.38ZM1092.01 50.7L1091.79 51.6772L1091.8 51.6776L1092.01 50.7ZM1112.89 55.2L1112.68 56.1776L1112.68 56.1782L1112.89 55.2ZM1122.25 125.94L1122.63 126.863L1122.25 125.94ZM1093.81 129.98C1083.93 129.98 1074.47 128.79 1065.44 126.413L1064.93 128.347C1074.14 130.77 1083.77 131.98 1093.81 131.98V129.98ZM1065.45 126.416C1056.41 123.917 1049.02 120.657 1043.26 116.658L1042.12 118.302C1048.11 122.463 1055.72 125.803 1064.92 128.344L1065.45 126.416ZM1043.63 117.816L1052.81 92.0759L1050.93 91.4041L1041.75 117.144L1043.63 117.816ZM1051.31 92.5693C1056.93 96.3558 1063.5 99.3361 1071.03 101.52L1071.59 99.5997C1064.23 97.4639 1057.85 94.5642 1052.43 90.9107L1051.31 92.5693ZM1071.03 101.52C1078.56 103.706 1086.15 104.8 1093.81 104.8V102.8C1086.34 102.8 1078.94 101.734 1071.59 99.5997L1071.03 101.52ZM1093.81 104.8C1101.75 104.8 1107.53 103.79 1110.91 101.577L1109.82 99.903C1106.96 101.77 1101.71 102.8 1093.81 102.8V104.8ZM1110.92 101.572C1114.36 99.2788 1116.23 96.3586 1116.23 92.82H1114.23C1114.23 95.5214 1112.85 97.8812 1109.81 99.9079L1110.92 101.572ZM1116.23 92.82C1116.23 89.7326 1114.93 87.2176 1112.4 85.3549L1111.21 86.9651C1113.25 88.4624 1114.23 90.3874 1114.23 92.82H1116.23ZM1112.42 85.3707C1110.07 83.5416 1105.97 82.066 1100.32 80.8619L1099.9 82.8181C1105.52 84.014 1109.22 85.4184 1111.19 86.9494L1112.42 85.3707ZM1100.32 80.8621L1079.26 76.3621L1078.84 78.3179L1099.9 82.8179L1100.32 80.8621ZM1079.26 76.3625C1067.98 73.928 1059.64 69.7812 1054.12 64.0044C1048.62 58.2482 1045.85 50.7839 1045.85 41.52H1043.85C1043.85 51.2161 1046.77 59.2018 1052.67 65.3856C1058.56 71.5488 1067.32 75.832 1078.84 78.3175L1079.26 76.3625ZM1045.85 41.52C1045.85 33.43 1048.01 26.3765 1052.32 20.3197L1050.69 19.1602C1046.12 25.5835 1043.85 33.05 1043.85 41.52H1045.85ZM1052.31 20.33C1056.75 14.2554 1062.9 9.56151 1070.79 6.26266L1070.02 4.41732C1061.84 7.83848 1055.38 12.7446 1050.7 19.15L1052.31 20.33ZM1070.8 6.25772C1078.69 2.84251 1087.91 1.12 1098.49 1.12V-0.880005C1087.7 -0.880005 1078.2 0.877487 1070.01 4.42227L1070.8 6.25772ZM1098.49 1.12C1107.15 1.12 1115.33 2.36579 1123.02 4.85156L1123.63 2.94842C1115.73 0.394199 1107.34 -0.880005 1098.49 -0.880005V1.12ZM1123.04 4.85701C1130.86 7.22776 1137.15 10.4714 1141.94 14.5606L1143.24 13.0394C1138.19 8.7286 1131.63 5.37223 1123.62 2.94297L1123.04 4.85701ZM1141.65 13.4443L1132.47 37.5643L1134.34 38.2757L1143.52 14.1557L1141.65 13.4443ZM1134 37.1149C1129.34 33.68 1123.95 31.0517 1117.85 29.2222L1117.28 31.1378C1123.18 32.9083 1128.36 35.44 1132.81 38.7251L1134 37.1149ZM1117.87 29.2276C1111.76 27.2729 1105.18 26.3 1098.13 26.3V28.3C1104.99 28.3 1111.37 29.2471 1117.26 31.1324L1117.87 29.2276ZM1098.13 26.3C1091.31 26.3 1085.92 27.5133 1082.09 30.0679L1083.2 31.732C1086.57 29.4867 1091.5 28.3 1098.13 28.3V26.3ZM1082.11 30.0552C1078.27 32.4871 1076.25 35.7825 1076.25 39.9H1078.25C1078.25 36.5775 1079.82 33.8729 1083.18 31.7448L1082.11 30.0552ZM1076.25 39.9C1076.25 42.8615 1077.48 45.308 1079.87 47.1693L1081.1 45.5906C1079.17 44.092 1078.25 42.2185 1078.25 39.9H1076.25ZM1079.87 47.1693C1082.22 48.9958 1086.25 50.4722 1091.79 51.6772L1092.22 49.7228C1086.72 48.5278 1083.07 47.1242 1081.1 45.5906L1079.87 47.1693ZM1091.8 51.6776L1112.68 56.1776L1113.1 54.2224L1092.22 49.7224L1091.8 51.6776ZM1112.68 56.1782C1124.15 58.6148 1132.63 62.6912 1138.23 68.3253C1143.81 73.935 1146.63 81.1702 1146.63 90.12H1148.63C1148.63 80.7098 1145.65 72.945 1139.65 66.9147C1133.68 60.9087 1124.78 56.7052 1113.09 54.2218L1112.68 56.1782ZM1146.63 90.12C1146.63 98.2102 1144.46 105.2 1140.16 111.133L1141.78 112.307C1146.35 106 1148.63 98.5898 1148.63 90.12H1146.63ZM1140.16 111.133C1135.84 117.083 1129.76 121.717 1121.86 125.017L1122.63 126.863C1130.82 123.443 1137.21 118.597 1141.78 112.307L1140.16 111.133ZM1121.86 125.017C1113.97 128.315 1104.63 129.98 1093.81 129.98V131.98C1104.83 131.98 1114.44 130.285 1122.63 126.863L1121.86 125.017ZM1171.09 129H1170.09V130H1171.09V129ZM1171.09 2.09999V1.09999H1170.09V2.09999H1171.09ZM1204.21 2.09999H1205.21V1.09999H1204.21V2.09999ZM1204.21 129V130H1205.21V129H1204.21ZM1172.09 129V2.09999H1170.09V129H1172.09ZM1171.09 3.09999H1204.21V1.09999H1171.09V3.09999ZM1203.21 2.09999V129H1205.21V2.09999H1203.21ZM1204.21 128H1171.09V130H1204.21V128ZM1262.09 122.88L1261.62 123.761L1261.62 123.764L1262.09 122.88ZM1239.05 100.2L1239.93 99.7227L1239.05 100.2ZM1239.41 31.26L1238.54 30.7672L1238.54 30.7707L1239.41 31.26ZM1263.53 8.22L1263.99 9.10822L1263.53 8.22ZM1326.71 3.71999L1326.42 4.6783L1326.43 4.68206L1326.71 3.71999ZM1346.33 13.08L1347.26 13.4469L1347.53 12.7539L1346.95 12.2937L1346.33 13.08ZM1336.25 38.64L1335.7 39.4776L1336.73 40.1473L1337.18 39.0069L1336.25 38.64ZM1319.51 30.9L1319.22 31.8584L1319.23 31.8612L1319.24 31.8638L1319.51 30.9ZM1274.33 38.1L1273.59 37.4206L1273.59 37.428L1274.33 38.1ZM1274.51 93.9L1273.79 94.5931L1274.51 93.9ZM1319.69 100.74L1319.93 101.711L1320.69 101.524V100.74H1319.69ZM1319.69 80.76H1320.69V79.76H1319.69V80.76ZM1294.31 80.76H1293.31V81.76H1294.31V80.76ZM1294.31 57.54V56.54H1293.31V57.54H1294.31ZM1346.69 57.54H1347.69V56.54H1346.69V57.54ZM1346.69 121.26L1347.11 122.167L1347.69 121.898V121.26H1346.69ZM1299.17 129.98C1284.77 129.98 1272.58 127.303 1262.56 121.996L1261.62 123.764C1272 129.257 1284.53 131.98 1299.17 131.98V129.98ZM1262.56 121.999C1252.65 116.687 1245.11 109.265 1239.93 99.7227L1238.17 100.677C1243.55 110.575 1251.37 118.273 1261.62 123.761L1262.56 121.999ZM1239.93 99.7227C1234.74 90.1725 1232.13 79.002 1232.13 66.18H1230.13C1230.13 79.278 1232.8 90.7875 1238.17 100.677L1239.93 99.7227ZM1232.13 66.18C1232.13 52.8785 1234.86 41.4136 1240.28 31.7492L1238.54 30.7707C1232.92 40.7864 1230.13 52.6014 1230.13 66.18H1232.13ZM1240.28 31.7527C1245.82 21.9664 1253.71 14.4216 1263.99 9.10822L1263.07 7.33178C1252.46 12.8184 1244.28 20.6336 1238.54 30.7672L1240.28 31.7527ZM1263.99 9.10822C1274.25 3.79807 1286.69 1.12 1301.33 1.12V-0.880005C1286.45 -0.880005 1273.68 1.84193 1263.07 7.33178L1263.99 9.10822ZM1301.33 1.12C1310.12 1.12 1318.48 2.3075 1326.42 4.67821L1326.99 2.76177C1318.86 0.332497 1310.3 -0.880005 1301.33 -0.880005V1.12ZM1326.43 4.68206C1334.39 6.93679 1340.8 10.0072 1345.71 13.8663L1346.95 12.2937C1341.78 8.23277 1335.11 5.06319 1326.98 2.75793L1326.43 4.68206ZM1345.4 12.7131L1335.32 38.2731L1337.18 39.0069L1347.26 13.4469L1345.4 12.7131ZM1336.79 37.8024C1331.2 34.1532 1325.52 31.5268 1319.77 29.9362L1319.24 31.8638C1324.77 33.3932 1330.26 35.9268 1335.7 39.4776L1336.79 37.8024ZM1319.79 29.9416C1314.05 28.2319 1307.96 27.38 1301.51 27.38V29.38C1307.78 29.38 1313.68 30.2081 1319.22 31.8584L1319.79 29.9416ZM1301.51 27.38C1289.22 27.38 1279.85 30.6689 1273.59 37.4206L1275.06 38.7794C1280.81 32.5711 1289.56 29.38 1301.51 29.38V27.38ZM1273.59 37.428C1267.48 44.1542 1264.51 53.7907 1264.51 66.18H1266.51C1266.51 54.0893 1269.41 45.0058 1275.07 38.772L1273.59 37.428ZM1264.51 66.18C1264.51 78.5709 1267.54 88.1015 1273.79 94.5931L1275.23 93.2069C1269.47 87.2185 1266.51 78.2691 1266.51 66.18H1264.51ZM1273.79 94.5931C1280.03 101.092 1289.22 104.26 1301.15 104.26V102.26C1289.56 102.26 1280.98 99.1885 1275.23 93.2069L1273.79 94.5931ZM1301.15 104.26C1306.77 104.26 1313.03 103.405 1319.93 101.711L1319.45 99.7689C1312.67 101.435 1306.57 102.26 1301.15 102.26V104.26ZM1320.69 100.74V80.76H1318.69V100.74H1320.69ZM1319.69 79.76H1294.31V81.76H1319.69V79.76ZM1295.31 80.76V57.54H1293.31V80.76H1295.31ZM1294.31 58.54H1346.69V56.54H1294.31V58.54ZM1345.69 57.54V121.26H1347.69V57.54H1345.69ZM1346.27 120.353C1339.63 123.436 1332.2 125.813 1323.99 127.48L1324.39 129.44C1332.73 127.747 1340.31 125.324 1347.11 122.167L1346.27 120.353ZM1323.99 127.48C1315.77 129.147 1307.5 129.98 1299.17 129.98V131.98C1307.63 131.98 1316.04 131.133 1324.39 129.44L1323.99 127.48ZM1376.04 129H1375.04V130H1376.04V129ZM1376.04 2.09999V1.09999H1375.04V2.09999H1376.04ZM1400.34 2.09999L1401.12 1.47436L1400.82 1.09999H1400.34V2.09999ZM1458.66 74.82L1457.88 75.4456L1459.66 77.6653V74.82H1458.66ZM1458.66 2.09999V1.09999H1457.66V2.09999H1458.66ZM1489.26 2.09999H1490.26V1.09999H1489.26V2.09999ZM1489.26 129V130H1490.26V129H1489.26ZM1465.14 129L1464.36 129.626L1464.66 130H1465.14V129ZM1406.82 56.28L1407.6 55.6544L1405.82 53.4347V56.28H1406.82ZM1406.82 129V130H1407.82V129H1406.82ZM1377.04 129V2.09999H1375.04V129H1377.04ZM1376.04 3.09999H1400.34V1.09999H1376.04V3.09999ZM1399.56 2.72563L1457.88 75.4456L1459.44 74.1944L1401.12 1.47436L1399.56 2.72563ZM1459.66 74.82V2.09999H1457.66V74.82H1459.66ZM1458.66 3.09999H1489.26V1.09999H1458.66V3.09999ZM1488.26 2.09999V129H1490.26V2.09999H1488.26ZM1489.26 128H1465.14V130H1489.26V128ZM1465.92 128.374L1407.6 55.6544L1406.04 56.9056L1464.36 129.626L1465.92 128.374ZM1405.82 56.28V129H1407.82V56.28H1405.82ZM1406.82 128H1376.04V130H1406.82V128Z" fill="#4A71E7" fill-opacity="0.5" mask="url(#path-1-outside-1_751_575)"/>
</svg>
