<svg width="22" height="24" viewBox="0 0 22 24" fill="none" xmlns="http://www.w3.org/2000/svg">
<path id="Vector" d="M21.3636 9.84202C19.3261 9.84696 17.3386 9.20321 15.6819 8.00171V16.3813C15.6813 17.9333 15.2131 19.4482 14.3398 20.7233C13.4665 21.9984 12.2298 22.973 10.795 23.5168C9.36023 24.0606 7.79577 24.1477 6.31083 23.7664C4.82589 23.3851 3.49124 22.5536 2.48535 21.383C1.47946 20.2125 0.850277 18.7587 0.681925 17.2161C0.513573 15.6735 0.81408 14.1156 1.54326 12.7507C2.27245 11.3858 3.39555 10.279 4.7624 9.57823C6.12925 8.87746 7.67469 8.61616 9.19208 8.82927V13.0439C8.49772 12.8227 7.7521 12.8293 7.0617 13.063C6.37131 13.2966 5.77144 13.7453 5.34776 14.345C4.92408 14.9446 4.69826 15.6646 4.70255 16.402C4.70684 17.1395 4.94101 17.8567 5.37163 18.4512C5.80225 19.0458 6.4073 19.4873 7.10036 19.7127C7.79343 19.9381 8.53907 19.9359 9.23081 19.7063C9.92255 19.4768 10.525 19.0316 10.9522 18.4345C11.3793 17.8374 11.6093 17.1188 11.6093 16.3813V0H15.6819C15.679 0.348435 15.7079 0.696395 15.768 1.03948C15.9095 1.80537 16.2037 2.53396 16.6327 3.18068C17.0617 3.8274 17.6164 4.37867 18.2629 4.80075C19.1826 5.41688 20.261 5.74528 21.3636 5.74505V9.84202Z" fill="black"/>
</svg>
